{
.appVersion = "939";
copyright = "Copyright 2013 The Arvo Project Authors (anton@korkork.com), with Reserved Font Name \"Arvo\".";
customParameters = (
{
name = license;
value = "This Font Software is licensed under the SIL Open Font License, Version 1.1. This license is available with a FAQ at: http://scripts.sil.org/OFL";
},
{
name = vendorID;
value = KORK;
},
{
name = licenseURL;
value = "http://scripts.sil.org/OFL";
},
{
name = fsType;
value = (
);
},
{
name = "Use Typo Metrics";
value = 1;
},
{
name = "Disable Last Change";
value = 1;
},
{
name = "Use Line Breaks";
value = 1;
}
);
date = "2016-08-13 21:52:47 +0000";
designer = "Anton Koovit (Cyrillic Expansion: Cyreal)";
designerURL = "http://anton.korkork.com";
disablesNiceNames = 1;
familyName = Arvo;
featurePrefixes = (
{
automatic = 1;
code = "languagesystem DFLT dflt;
languagesystem latn dflt;
languagesystem cyrl dflt;
languagesystem cyrl SRB;
languagesystem cyrl MKD;
languagesystem cyrl BGR;
";
name = Languagesystems;
}
);
features = (
{
automatic = 1;
code = "feature ccmp;
feature locl;
feature subs;
feature sups;
feature frac;
feature ordn;
feature salt;
feature ss01;
";
name = aalt;
},
{
automatic = 1;
code = "lookup ccmp_Other_1 {
	@CombiningTopAccents = [acutecomb brevecomb caroncomb circumflexcomb dieresiscomb dotaccentcomb gravecomb hookabovecomb hungarumlautcomb macroncomb ringcomb tildecomb];
	@CombiningNonTopAccents = [cedillacomb dotbelowcomb ogonekcomb horncomb strokeshortcomb];
	sub [i]' @CombiningTopAccents by [idotless];
	sub [i]' @CombiningNonTopAccents @CombiningTopAccents by [idotless];
} ccmp_Other_1;

lookup ccmp_latn_1 {
	script latn;
	lookupflag 0;
	sub brevecomb acutecomb by brevecomb_acutecomb;
	sub brevecomb gravecomb by brevecomb_gravecomb;
	sub brevecomb hookabovecomb by brevecomb_hookabovecomb;
	sub brevecomb tildecomb by brevecomb_tildecomb;
	sub circumflexcomb acutecomb by circumflexcomb_acutecomb;
	sub circumflexcomb gravecomb by circumflexcomb_gravecomb;

glyphs = (
{
glyphname = A;
layers = (
{
anchors = (
{
name = top;
position = "{459, 740}";
}
);
layerId = "EEC59083-BA83-4EFB-8B50-D01213A5FD15";
paths = (
{
closed = 1;
nodes = (
"430 0 LINE",
"670 0 LINE",
"689 84 LINE",
"616 84 LINE",
"539 740 LINE",
"381 740 LINE",
"10 84 LINE",
"-54 84 LINE",
"-73 0 LINE",
"167 0 LINE",
"186 84 LINE",
"119 84 LINE",
"212 251 LINE",
"493 251 LINE",
"511 84 LINE",
"449 84 LINE"
);
},
{
closed = 1;
nodes = (
"447 671 LINE",
"483 335 LINE",
"259 335 LINE"
);
}
);
width = 712;
},
{
anchors = (
{
name = top;
position = "{477, 740}";
}
);
layerId = "8956C7A5-95B5-4256-B2D2-E489185594C4";
paths = (
{
closed = 1;
nodes = (
"412 0 LINE",
"711 0 LINE",
"742 134 LINE",
"648 134 LINE",
"593 740 LINE",
"380 740 LINE",
"43 134 LINE",
"-19 134 LINE",
"-50 0 LINE",
"249 0 LINE",
"280 134 LINE",
"218 134 LINE",
"272 236 LINE",
"476 236 LINE",
"484 134 LINE",
"443 134 LINE"
);
},
{
closed = 1;
nodes = (
"451 573 LINE",
"466 377 LINE",
"347 377 LINE"
);
}
);
width = 722;
}
);
leftKerningGroup = A;
rightKerningGroup = A;
unicode = 0041;
},
{
color = 6;
glyphname = Aogonek;
layers = (
{
background = {
paths = (
{
closed = 1;
nodes = (
"-19 134 LINE",
"43 134 LINE",
"380 740 LINE",
"593 740 LINE",
"648 134 LINE",
"742 134 LINE",
"711 0 LINE",
"616 0 LINE",
"571 0 LINE",
"501 -19 LINE",
"454 -50 LINE",
"429 -87 LINE",
"429 -105 LINE",
"429 -124 LINE",
"453 -138 LINE",
"464 -138 LINE",
"483 -138 LINE",
"509 -132 LINE",
"519 -127 LINE",
"543 -210 LINE",
"532 -216 LINE",
"482 -230 LINE",
"456 -230 LINE",
"426 -230 LINE",
"375 -216 LINE",
"336 -190 LINE",
"314 -152 LINE",
"314 -127 LINE",
"314 -85 LINE",
"372 -22 LINE",
"412 0 LINE",
"443 134 LINE",
"484 134 LINE",
"476 236 LINE",
"272 236 LINE",
"218 134 LINE",
"280 134 LINE",
"249 0 LINE",
"-50 0 LINE"
);
},
{
closed = 1;
nodes = (
"347 377 LINE",
"465 377 LINE",
"451 573 LINE"
);
},
{
closed = 1;
nodes = (
"0 760 LINE",
"722 760 LINE",
"722 0 LINE",
"0 0 LINE"
);
}
);
};
layerId = "8956C7A5-95B5-4256-B2D2-E489185594C4";
paths = (
{
closed = 1;
nodes = (
"536 47 LINE",
"462 31 OFFCURVE",
"314 -27 OFFCURVE",
"314 -127 CURVE SMOOTH",
"314 -193 OFFCURVE",
"377 -230 OFFCURVE",
"456 -230 CURVE SMOOTH",
"491 -230 OFFCURVE",
"529 -218 OFFCURVE",
"543 -210 CURVE",
"519 -127 LINE",
"506 -133 OFFCURVE",
"489 -138 OFFCURVE",
"464 -138 CURVE SMOOTH",
"450 -138 OFFCURVE",
"429 -130 OFFCURVE",
"429 -105 CURVE SMOOTH",
"429 -57 OFFCURVE",
"496 0 OFFCURVE",
"616 0 CURVE"
);
},
{
closed = 1;
nodes = (
"-50 0 LINE",
"249 0 LINE",
"280 134 LINE",
"-19 134 LINE"
);
},
{
closed = 1;
nodes = (
"412 0 LINE",
"711 0 LINE",
"742 134 LINE",
"443 134 LINE"
);
},
{
closed = 1;
nodes = (
"173 236 LINE",
"529 236 LINE",
"503 377 LINE",
"258 377 LINE"
);
},
{
closed = 1;
nodes = (
"27 104 LINE",
"202 104 LINE",
"451 573 LINE",
"486 106 LINE",
"651 106 LINE",
"593 740 LINE",
"380 740 LINE"
);
}
);
width = 722;
},
{
background = {
paths = (
{
closed = 1;
nodes = (
"-19 134 LINE",
"43 134 LINE",
"380 740 LINE",
"593 740 LINE",
"648 134 LINE",
"742 134 LINE",
"711 0 LINE",
"616 0 LINE",
"571 0 LINE",
"501 -19 LINE",
"454 -50 LINE",
"429 -87 LINE",
"429 -105 LINE",
"429 -124 LINE",
"453 -138 LINE",
"464 -138 LINE",
"483 -138 LINE",
"509 -132 LINE",
"519 -127 LINE",
"543 -210 LINE",
"532 -216 LINE",
"482 -230 LINE",
"456 -230 LINE",
"426 -230 LINE",
"375 -216 LINE",
"336 -190 LINE",
"314 -152 LINE",
"314 -127 LINE",
"314 -85 LINE",
"372 -22 LINE",
"412 0 LINE",
"443 134 LINE",
"484 134 LINE",
"476 236 LINE",
"272 236 LINE",
"218 134 LINE",
"280 134 LINE",
"249 0 LINE",
"-50 0 LINE"
);
},
{
closed = 1;
nodes = (
"347 377 LINE",
"465 377 LINE",
"451 573 LINE"
);
},
{
closed = 1;
nodes = (
"0 760 LINE",
"722 760 LINE",
"722 0 LINE",
"0 0 LINE"
);
}
);
};
layerId = "EEC59083-BA83-4EFB-8B50-D01213A5FD15";
paths = (
{
closed = 1;
nodes = (
"520 39 LINE",
"463 24 OFFCURVE",
"347 -27 OFFCURVE",
"347 -127 CURVE SMOOTH",
"347 -193 OFFCURVE",
"405 -230 OFFCURVE",
"484 -230 CURVE SMOOTH",
"521 -230 OFFCURVE",
"554 -219 OFFCURVE",
"571 -209 CURVE",
"550 -147 LINE",
"537 -153 OFFCURVE",
"512 -158 OFFCURVE",
"487 -158 CURVE SMOOTH",
"454 -158 OFFCURVE",
"432 -137 OFFCURVE",
"432 -110 CURVE SMOOTH",
"432 -61 OFFCURVE",
"496 -1 OFFCURVE",
"604 0 CURVE"
);
},
{
closed = 1;
nodes = (
"-73 0 LINE",
"167 0 LINE",
"186 84 LINE",
"-54 84 LINE"
);
},
{
closed = 1;
nodes = (
"430 0 LINE",
"670 0 LINE",
"689 84 LINE",
"449 84 LINE"
);
},
{
closed = 1;
nodes = (
"178 251 LINE",
"542 251 LINE",
"529 335 LINE",
"226 335 LINE"
);
},
{
closed = 1;
nodes = (
"-15 40 LINE",
"95 40 LINE",
"447 671 LINE",
"516 42 LINE",
"621 42 LINE",
"539 740 LINE",
"381 740 LINE"
);
}
);
width = 711;
}
);
leftKerningGroup = A;
rightKerningGroup = A;
unicode = 0104;
},
{
glyphname = AE;
layers = (
{
layerId = "EEC59083-BA83-4EFB-8B50-D01213A5FD15";
paths = (
{
closed = 1;
nodes = (
"157 0 LINE",
"163 28 OFFCURVE",
"169 56 OFFCURVE",
"176 84 CURVE",
"116 84 LINE",
"157 140 OFFCURVE",
"198 195 OFFCURVE",
"239 251 CURVE",
"440 251 LINE",
"428 195 OFFCURVE",
"415 140 OFFCURVE",
"402 84 CURVE",
"337 84 LINE",
"331 56 OFFCURVE",
"324 28 OFFCURVE",
"318 0 CURVE",
"848 0 LINE",
"864 71 OFFCURVE",
"880 141 OFFCURVE",
"897 212 CURVE",
"795 212 LINE",
"785 169 OFFCURVE",
"775 126 OFFCURVE",
"765 84 CURVE",
"504 84 LINE",
"523 167 OFFCURVE",
"542 251 OFFCURVE",
"562 335 CURVE",
"778 335 LINE",
"785 363 OFFCURVE",
"792 391 OFFCURVE",
"799 419 CURVE",
"581 419 LINE",
"599 498 OFFCURVE",
"617 577 OFFCURVE",
"635 656 CURVE",
"899 656 LINE",
"889 613 OFFCURVE",
"879 571 OFFCURVE",
"869 529 CURVE",
"970 529 LINE",
"986 599 OFFCURVE",
"1002 670 OFFCURVE",
"1019 740 CURVE",
"481 740 LINE",
"320 521 OFFCURVE",
"159 303 OFFCURVE",
"-2 84 CURVE",
"-64 84 LINE",
"-71 56 OFFCURVE",
"-77 28 OFFCURVE",
"-83 0 CURVE"
);
},
{
closed = 1;
nodes = (
"301 335 LINE",
"378 439 OFFCURVE",
"455 544 OFFCURVE",
"532 648 CURVE",
"508 544 OFFCURVE",
"484 439 OFFCURVE",
"460 335 CURVE"
);
}
);
width = 972;
},
{
layerId = "8956C7A5-95B5-4256-B2D2-E489185594C4";
paths = (
{
closed = 1;
nodes = (
"260 0 LINE",
"270 44 OFFCURVE",
"281 89 OFFCURVE",
"291 134 CURVE",
"220 134 LINE",
"246 168 OFFCURVE",
"273 202 OFFCURVE",
"299 236 CURVE",
"496 236 LINE",
"482 177 OFFCURVE",
"468 118 OFFCURVE",
"455 59 CURVE",
"455 59 LINE",
"450 40 OFFCURVE",
"445 20 OFFCURVE",
"441 0 CURVE",
"976 0 LINE",
"997 88 OFFCURVE",
"1017 177 OFFCURVE",
"1037 265 CURVE",
"866 265 LINE",
"856 221 OFFCURVE",
"846 178 OFFCURVE",
"836 134 CURVE",
"643 134 LINE",
"656 191 OFFCURVE",
"669 248 OFFCURVE",
"683 305 CURVE",
"847 305 LINE",
"858 353 OFFCURVE",
"869 399 OFFCURVE",
"880 447 CURVE",
"715 447 LINE",
"728 500 OFFCURVE",
"740 553 OFFCURVE",
"752 606 CURVE",
"958 606 LINE",
"949 566 OFFCURVE",
"940 527 OFFCURVE",
"931 488 CURVE",
"1102 488 LINE",
"1122 572 OFFCURVE",
"1141 656 OFFCURVE",
"1160 740 CURVE",
"500 740 LINE",
"343 538 OFFCURVE",
"185 336 OFFCURVE",
"28 134 CURVE",
"-39 134 LINE",
"-49 89 OFFCURVE",
"-60 44 OFFCURVE",
"-70 0 CURVE"
);
},
{
closed = 1;
nodes = (
"409 377 LINE",
"465 450 OFFCURVE",
"522 523 OFFCURVE",
"579 596 CURVE",
"562 523 OFFCURVE",
"545 450 OFFCURVE",
"528 377 CURVE"
);
}
);
width = 1070;
}
);
leftKerningGroup = A;
rightKerningGroup = E;
unicode = 00C6;
},
{
glyphname = B;
layers = (
{
anchors = (
{
name = top;
position = "{309, 700}";
}
);
layerId = "EEC59083-BA83-4EFB-8B50-D01213A5FD15";
paths = (
{
closed = 1;
nodes = (
"37 0 LINE",
"373 0 LINE SMOOTH",
"520 0 OFFCURVE",
"638 90 OFFCURVE",
"638 227 CURVE SMOOTH",
"638 287 OFFCURVE",
"613 336 OFFCURVE",
"571 368 CURVE",
"656 401 OFFCURVE",
"706 470 OFFCURVE",
"706 562 CURVE SMOOTH",
"706 666 OFFCURVE",
"643 740 OFFCURVE",
"532 740 CURVE SMOOTH",
"201 740 LINE",
"181 656 LINE",
"253 656 LINE",
"121 84 LINE",
"56 84 LINE"
);
},
{
closed = 1;
nodes = (
"444 329 LINE",
"497 329 OFFCURVE",
"532 285 OFFCURVE",
"532 219 CURVE SMOOTH",
"532 143 OFFCURVE",
"475 84 OFFCURVE",
"387 84 CURVE SMOOTH",
"223 84 LINE",
"279 329 LINE"
);
},
{
closed = 1;
nodes = (
"512 656 LINE",
"571 656 OFFCURVE",
"600 608 OFFCURVE",
"600 547 CURVE SMOOTH",
"600 468 OFFCURVE",
"538 414 OFFCURVE",
"460 414 CURVE SMOOTH",
"299 414 LINE",
"354 656 LINE"
);
}
);
width = 709;
},
{
anchors = (
{
name = top;
position = "{342, 700}";
}
);
layerId = "8956C7A5-95B5-4256-B2D2-E489185594C4";
paths = (
{
closed = 1;
nodes = (
"30 0 LINE",
"420 0 LINE SMOOTH",
"591 0 OFFCURVE",
"700 81 OFFCURVE",
"700 242 CURVE SMOOTH",
"700 291 OFFCURVE",
"681 333 OFFCURVE",
"643 365 CURVE",
"729 405 OFFCURVE",
"760 478 OFFCURVE",
"760 553 CURVE SMOOTH",
"760 660 OFFCURVE",
"691 740 OFFCURVE",
"566 740 CURVE SMOOTH",
"192 740 LINE",
"161 606 LINE",
"245 606 LINE",
"136 134 LINE",
"61 134 LINE"
);
},
{
closed = 1;
nodes = (
"467 306 LINE",
"511 306 OFFCURVE",
"534 277 OFFCURVE",
"534 239 CURVE SMOOTH",
"534 177 OFFCURVE",
"496 134 OFFCURVE",
"428 134 CURVE SMOOTH",
"307 134 LINE",
"347 306 LINE"
);
},
{
closed = 1;
nodes = (
"524 606 LINE",
"571 606 OFFCURVE",
"595 573 OFFCURVE",
"595 534 CURVE SMOOTH",
"595 477 OFFCURVE",
"550 440 OFFCURVE",
"491 440 CURVE SMOOTH",
"378 440 LINE",
"417 606 LINE"
);
}
);
width = 740;
}
);
leftKerningGroup = I;
rightKerningGroup = B;
unicode = 0042;
},
{
glyphname = C;
layers = (
{
anchors = (
{
name = bottom;
position = "{313, 0}";
},
{
name = top;
position = "{466, 740}";
}
);
layerId = "EEC59083-BA83-4EFB-8B50-D01213A5FD15";
paths = (
{
closed = 1;
nodes = (
"587 207 LINE",
"531 126 OFFCURVE",
"457 85 OFFCURVE",
"359 85 CURVE SMOOTH",
"247 85 OFFCURVE",
"146 178 OFFCURVE",
"146 328 CURVE SMOOTH",
"146 508 OFFCURVE",
"273 657 OFFCURVE",
"445 657 CURVE SMOOTH",
"535 657 OFFCURVE",
"603 611 OFFCURVE",
"631 544 CURVE",
"766 544 LINE",
"786 628 LINE",
"709 628 LINE",
"655 706 OFFCURVE",
"565 754 OFFCURVE",
"456 754 CURVE SMOOTH",
"215 754 OFFCURVE",
"37 565 OFFCURVE",
"37 320 CURVE SMOOTH",
"37 130 OFFCURVE",
"170 -12 OFFCURVE",
"348 -12 CURVE SMOOTH",
"497 -12 OFFCURVE",
"605 51 OFFCURVE",
"681 157 CURVE"
);
}
);
width = 717;
},
{
anchors = (
{
name = bottom;
position = "{336, 0}";
},
{
name = top;
position = "{495, 740}";
}
);
layerId = "8956C7A5-95B5-4256-B2D2-E489185594C4";
paths = (
{
closed = 1;
nodes = (
"535 244 LINE",
"499 191 OFFCURVE",
"446 149 OFFCURVE",
"374 149 CURVE SMOOTH",
"284 149 OFFCURVE",
"227 216 OFFCURVE",
"227 313 CURVE SMOOTH",
"227 457 OFFCURVE",
"341 590 OFFCURVE",
"474 590 CURVE SMOOTH",
"537 590 OFFCURVE",
"581 559 OFFCURVE",
"598 515 CURVE",
"788 515 LINE",
"819 649 LINE",
"726 649 LINE",
"677 713 OFFCURVE",
"600 754 OFFCURVE",
"495 754 CURVE SMOOTH",
"273 754 OFFCURVE",
"50 574 OFFCURVE",
"50 297 CURVE SMOOTH",
"50 111 OFFCURVE",
"178 -15 OFFCURVE",
"355 -15 CURVE SMOOTH",
"502 -15 OFFCURVE",
"616 51 OFFCURVE",
"690 167 CURVE"
);
}
);
width = 729;
}
);
leftKerningGroup = O;
rightKerningGroup = C;
unicode = 0043;
},
{
color = 6;
glyphname = Cacute;
layers = (
{
background = {
paths = (
{
closed = 1;
nodes = (
"474 590 LINE",
"441 590 LINE",
"378 569 LINE",
"323 531 LINE",
"278 479 LINE",
"245 418 LINE",
"227 349 LINE",
"227 313 LINE",
"227 276 LINE",
"248 216 LINE",
"286 173 LINE",
"340 149 LINE",
"374 149 LINE",
"401 149 LINE",
"448 164 LINE",
"488 189 LINE",
"521 224 LINE",
"535 244 LINE",
"690 167 LINE",
"634 79 LINE",
"466 -15 LINE",
"355 -15 LINE",
"289 -15 LINE",
"177 30 LINE",
"95 112 LINE",
"50 227 LINE",
"50 297 LINE",
"50 366 LINE",
"85 488 LINE",
"147 589 LINE",
"231 669 LINE",
"331 725 LINE",
"439 754 LINE",
"495 754 LINE",
"540 754 LINE",
"615 735 LINE",
"677 701 LINE",
"715 664 LINE",
"726 649 LINE",
"819 649 LINE",
"788 515 LINE",
"598 515 LINE",
"585 548 LINE",
"521 590 LINE"
);
},
{
closed = 1;
nodes = (
"364 921 LINE",
"523 921 LINE",
"523 909 LINE",
"374 769 LINE",
"259 769 LINE"
);
},
{
closed = 1;
nodes = (
"0 760 LINE",
"729 760 LINE",
"729 0 LINE",
"0 0 LINE"
);
}
);
};
components = (
{
name = C;
},
{
name = acute;
transform = "{1, 0, 0, 1, 398, 234}";
}
);
layerId = "8956C7A5-95B5-4256-B2D2-E489185594C4";
width = 729;
},
{
background = {
paths = (
{
closed = 1;
nodes = (
"474 590 LINE",
"441 590 LINE",
"378 569 LINE",
"323 531 LINE",
"278 479 LINE",
"245 418 LINE",
"227 349 LINE",
"227 313 LINE",
"227 276 LINE",
"248 216 LINE",
"286 173 LINE",
"340 149 LINE",
"374 149 LINE",
"401 149 LINE",
"448 164 LINE",
"488 189 LINE",
"521 224 LINE",
"535 244 LINE",
"690 167 LINE",
"634 79 LINE",
"466 -15 LINE",
"355 -15 LINE",
"289 -15 LINE",
"177 30 LINE",
"95 112 LINE",
"50 227 LINE",
"50 297 LINE",
"50 366 LINE",
"85 488 LINE",
"147 589 LINE",
"231 669 LINE",
"331 725 LINE",
"439 754 LINE",
"495 754 LINE",
"540 754 LINE",
"615 735 LINE",
"677 701 LINE",
"715 664 LINE",
"726 649 LINE",
"819 649 LINE",
"788 515 LINE",
"598 515 LINE",
"585 548 LINE",
"521 590 LINE"
);
},
{
closed = 1;
nodes = (
"364 921 LINE",
"523 921 LINE",
"523 909 LINE",
"374 769 LINE",
"259 769 LINE"
);
},
{
closed = 1;
nodes = (
"0 760 LINE",
"729 760 LINE",
"729 0 LINE",
"0 0 LINE"
);
}
);
};
components = (
{
name = C;
},
{
name = acute;
transform = "{1, 0, 0, 1, 301, 234}";
}
);
layerId = "EEC59083-BA83-4EFB-8B50-D01213A5FD15";
width = 717;
}
);
leftKerningGroup = O;
rightKerningGroup = C;
unicode = 0106;
},
{
glyphname = D;
layers = (
{
anchors = (
{
name = top;
position = "{305, 700}";
}
);
layerId = "EEC59083-BA83-4EFB-8B50-D01213A5FD15";
paths = (
{
closed = 1;
nodes = (
"188 656 LINE",
"252 656 LINE",
"120 84 LINE",
"56 84 LINE",
"37 0 LINE",
"319 0 LINE SMOOTH",
"567 0 OFFCURVE",
"759 171 OFFCURVE",
"759 427 CURVE SMOOTH",
"759 599 OFFCURVE",
"649 740 OFFCURVE",
"476 740 CURVE SMOOTH",
"208 740 LINE"
);
},
{
closed = 1;
nodes = (
"463 656 LINE",
"578 656 OFFCURVE",
"652 545 OFFCURVE",
"652 419 CURVE SMOOTH",
"652 217 OFFCURVE",
"492 84 OFFCURVE",
"330 84 CURVE SMOOTH",
"222 84 LINE",
"353 656 LINE"
);
}
);
width = 762;
},
{
anchors = (
{
name = top;
position = "{374, 700}";
}
);
layerId = "8956C7A5-95B5-4256-B2D2-E489185594C4";
paths = (
{
closed = 1;
nodes = (
"170 606 LINE",
"246 606 LINE",
"137 134 LINE",
"61 134 LINE",
"30 0 LINE",
"338 0 LINE SMOOTH",
"632 0 OFFCURVE",
"804 193 OFFCURVE",
"804 436 CURVE SMOOTH",
"804 629 OFFCURVE",
"677 740 OFFCURVE",
"498 740 CURVE SMOOTH",
"201 740 LINE"
);
},
{
closed = 1;
nodes = (
"469 606 LINE",
"551 606 OFFCURVE",
"626 558 OFFCURVE",
"626 422 CURVE SMOOTH",
"626 264 OFFCURVE",
"502 134 OFFCURVE",
"360 134 CURVE SMOOTH",
"308 134 LINE",
"417 606 LINE"
);
}
);
width = 774;
}
);
leftKerningGroup = I;
rightKerningGroup = O;
unicode = 0044;
},
{
color = 6;
glyphname = Dcaron;
layers = (
{
background = {
paths = (
{
closed = 1;
nodes = (
"201 740 LINE",
"498 740 LINE",
"565 740 LINE",
"677 699 LINE",
"759 622 LINE",
"804 508 LINE",
"804 436 LINE",
"804 375 LINE",
"776 263 LINE",
"721 167 LINE",
"641 87 LINE",
"538 31 LINE",
"411 0 LINE",
"338 0 LINE",
"30 0 LINE",
"61 134 LINE",
"137 134 LINE",
"246 606 LINE",
"170 606 LINE"
);
},
{
closed = 1;
nodes = (
"417 606 LINE",
"308 134 LINE",
"360 134 LINE",
"396 134 LINE",
"462 155 LINE",
"521 192 LINE",
"571 245 LINE",
"606 309 LINE",
"626 382 LINE",
"626 422 LINE",
"626 473 LINE",
"600 543 LINE",
"557 587 LINE",
"500 606 LINE",
"469 606 LINE"
);
},
{
closed = 1;
nodes = (
"589 928 LINE",
"415 770 LINE",
"298 770 LINE",
"202 928 LINE",
"323 928 LINE",
"370 852 LINE",
"454 928 LINE"
);
},
{
closed = 1;
nodes = (
"0 760 LINE",
"774 760 LINE",
"774 0 LINE",
"0 0 LINE"
);
}
);
};
components = (
{
name = D;
},
{
name = caron;
transform = "{1, 0, 0, 1, 134, 194}";
}
);
layerId = "8956C7A5-95B5-4256-B2D2-E489185594C4";
width = 774;
},
{
background = {
paths = (
{
closed = 1;
nodes = (
"201 740 LINE",
"498 740 LINE",
"565 740 LINE",
"677 699 LINE",
"759 622 LINE",
"804 508 LINE",
"804 436 LINE",
"804 375 LINE",
"776 263 LINE",
"721 167 LINE",
"641 87 LINE",
"538 31 LINE",
"411 0 LINE",
"338 0 LINE",
"30 0 LINE",
"61 134 LINE",
"137 134 LINE",
"246 606 LINE",
"170 606 LINE"
);
},
{
closed = 1;
nodes = (
"417 606 LINE",
"308 134 LINE",
"360 134 LINE",
"396 134 LINE",
"462 155 LINE",
"521 192 LINE",
"571 245 LINE",
"606 309 LINE",
"626 382 LINE",
"626 422 LINE",
"626 473 LINE",
"600 543 LINE",
"557 587 LINE",
"500 606 LINE",
"469 606 LINE"
);
},
{
closed = 1;
nodes = (
"589 928 LINE",
"415 770 LINE",
"298 770 LINE",
"202 928 LINE",
"323 928 LINE",
"370 852 LINE",
"454 928 LINE"
);
},
{
closed = 1;
nodes = (
"0 760 LINE",
"774 760 LINE",
"774 0 LINE",
"0 0 LINE"
);
}
);
};
components = (
{
name = D;
},
{
name = caron;
transform = "{1, 0, 0, 1, 39, 194}";
}
);
layerId = "EEC59083-BA83-4EFB-8B50-D01213A5FD15";
width = 762;
}
);
leftKerningGroup = I;
rightKerningGroup = D;
unicode = 010E;
},
{
glyphname = E;
layers = (
{
anchors = (
{
name = top;
position = "{518, 740}";
}
);
layerId = "EEC59083-BA83-4EFB-8B50-D01213A5FD15";
paths = (
{
closed = 1;
nodes = (
"181 656 LINE",
"253 656 LINE",
"121 84 LINE",
"56 84 LINE",
"37 0 LINE",
"567 0 LINE",
"616 212 LINE",
"514 212 LINE",
"484 84 LINE",
"223 84 LINE",
"281 335 LINE",
"497 335 LINE",
"518 419 LINE",
"300 419 LINE",
"354 656 LINE",
"618 656 LINE",
"588 529 LINE",
"689 529 LINE",
"738 740 LINE",
"201 740 LINE"
);
}
);
width = 691;
},
{
anchors = (
{
name = top;
position = "{562, 740}";
}
);
layerId = "8956C7A5-95B5-4256-B2D2-E489185594C4";
paths = (
{
closed = 1;
nodes = (
"161 606 LINE",
"246 606 LINE",
"137 134 LINE",
"61 134 LINE",
"30 0 LINE",
"641 0 LINE",
"702 265 LINE",
"531 265 LINE",
"501 134 LINE",
"308 134 LINE",
"348 305 LINE",
"512 305 LINE",
"545 447 LINE",
"380 447 LINE",
"417 606 LINE",
"623 606 LINE",
"596 488 LINE",
"767 488 LINE",
"825 740 LINE",
"192 740 LINE"
);
}
);
width = 735;
}
);
leftKerningGroup = I;
rightKerningGroup = E;
unicode = 0045;
},
{
color = 6;
glyphname = Ecaron;
layers = (
{
background = {
paths = (
{
closed = 1;
nodes = (
"192 740 LINE",
"825 740 LINE",
"767 488 LINE",
"596 488 LINE",
"623 606 LINE",
"417 606 LINE",
"380 447 LINE",
"545 447 LINE",
"512 305 LINE",
"348 305 LINE",
"308 134 LINE",
"501 134 LINE",
"531 265 LINE",
"702 265 LINE",
"641 0 LINE",
"30 0 LINE",
"61 134 LINE",
"137 134 LINE",
"246 606 LINE",
"161 606 LINE"
);
},
{
closed = 1;
nodes = (
"764 968 LINE",
"590 810 LINE",
"473 810 LINE",
"377 968 LINE",
"498 968 LINE",
"545 892 LINE",
"629 968 LINE"
);
},
{
closed = 1;
nodes = (
"0 760 LINE",
"735 760 LINE",
"735 0 LINE",
"0 0 LINE"
);
}
);
};
components = (
{
name = E;
},
{
name = caron;
transform = "{1, 0, 0, 1, 322, 234}";
}
);
layerId = "8956C7A5-95B5-4256-B2D2-E489185594C4";
width = 735;
},
{
background = {
paths = (
{
closed = 1;
nodes = (
"192 740 LINE",
"825 740 LINE",
"767 488 LINE",
"596 488 LINE",
"623 606 LINE",
"417 606 LINE",
"380 447 LINE",
"545 447 LINE",
"512 305 LINE",
"348 305 LINE",
"308 134 LINE",
"501 134 LINE",
"531 265 LINE",
"702 265 LINE",
"641 0 LINE",
"30 0 LINE",
"61 134 LINE",
"137 134 LINE",
"246 606 LINE",
"161 606 LINE"
);
},
{
closed = 1;
nodes = (
"764 968 LINE",
"590 810 LINE",
"473 810 LINE",
"377 968 LINE",
"498 968 LINE",
"545 892 LINE",
"629 968 LINE"
);
},
{
closed = 1;
nodes = (
"0 760 LINE",
"735 760 LINE",
"735 0 LINE",
"0 0 LINE"
);
}
);
};
components = (
{
name = E;
},
{
name = caron;
transform = "{1, 0, 0, 1, 252, 234}";
}
);
layerId = "EEC59083-BA83-4EFB-8B50-D01213A5FD15";
width = 691;
}
);
leftKerningGroup = I;
rightKerningGroup = E;
unicode = 011A;
},
{
color = 6;
glyphname = Edotaccent;
layers = (
{
background = {
paths = (
{
closed = 1;
nodes = (
"192 740 LINE",
"825 740 LINE",
"767 488 LINE",
"596 488 LINE",
"623 606 LINE",
"417 606 LINE",
"380 447 LINE",
"545 447 LINE",
"512 305 LINE",
"348 305 LINE",
"308 134 LINE",
"501 134 LINE",
"531 265 LINE",
"702 265 LINE",
"641 0 LINE",
"30 0 LINE",
"61 134 LINE",
"137 134 LINE",
"246 606 LINE",
"161 606 LINE"
);
},
{
closed = 1;
nodes = (
"437 903 LINE",
"437 921 LINE",
"451 953 LINE",
"474 977 LINE",
"506 990 LINE",
"524 990 LINE",
"542 990 LINE",
"573 977 LINE",
"597 953 LINE",
"610 921 LINE",
"610 903 LINE",
"610 885 LINE",
"597 854 LINE",
"573 830 LINE",
"542 816 LINE",
"524 816 LINE",
"506 816 LINE",
"474 830 LINE",
"451 854 LINE",
"437 885 LINE"
);
},
{
closed = 1;
nodes = (
"0 760 LINE",
"735 760 LINE",
"735 0 LINE",
"0 0 LINE"
);
}
);
};
components = (
{
name = E;
},
{
name = dotaccent;
transform = "{1, 0, 0, 1, 426, 234}";
}
);
layerId = "8956C7A5-95B5-4256-B2D2-E489185594C4";
width = 735;
},
{
background = {
paths = (
{
closed = 1;
nodes = (
"192 740 LINE",
"825 740 LINE",
"767 488 LINE",
"596 488 LINE",
"623 606 LINE",
"417 606 LINE",
"380 447 LINE",
"545 447 LINE",
"512 305 LINE",
"348 305 LINE",
"308 134 LINE",
"501 134 LINE",
"531 265 LINE",
"702 265 LINE",
"641 0 LINE",
"30 0 LINE",
"61 134 LINE",
"137 134 LINE",
"246 606 LINE",
"161 606 LINE"
);
},
{
closed = 1;
nodes = (
"437 903 LINE",
"437 921 LINE",
"451 953 LINE",
"474 977 LINE",
"506 990 LINE",
"524 990 LINE",
"542 990 LINE",
"573 977 LINE",
"597 953 LINE",
"610 921 LINE",
"610 903 LINE",
"610 885 LINE",
"597 854 LINE",
"573 830 LINE",
"542 816 LINE",
"524 816 LINE",
"506 816 LINE",
"474 830 LINE",
"451 854 LINE",
"437 885 LINE"
);
},
{
closed = 1;
nodes = (
"0 760 LINE",
"735 760 LINE",
"735 0 LINE",
"0 0 LINE"
);
}
);
};
components = (
{
name = E;
},
{
name = dotaccent;
transform = "{1, 0, 0, 1, 351, 234}";
}
);
layerId = "EEC59083-BA83-4EFB-8B50-D01213A5FD15";
width = 691;
}
);
leftKerningGroup = I;
rightKerningGroup = E;
unicode = 0116;
},
{
color = 6;
glyphname = Emacron;
layers = (
{
background = {
paths = (
{
closed = 1;
nodes = (
"192 740 LINE",
"825 740 LINE",
"767 488 LINE",
"596 488 LINE",
"623 606 LINE",
"417 606 LINE",
"380 447 LINE",
"545 447 LINE",
"512 305 LINE",
"348 305 LINE",
"308 134 LINE",
"501 134 LINE",
"531 265 LINE",
"702 265 LINE",
"641 0 LINE",
"30 0 LINE",
"61 134 LINE",
"137 134 LINE",
"246 606 LINE",
"161 606 LINE"
);
},
{
closed = 1;
nodes = (
"697 809 LINE",
"361 809 LINE",
"361 914 LINE",
"697 914 LINE"
);
},
{
closed = 1;
nodes = (
"0 760 LINE",
"735 760 LINE",
"735 0 LINE",
"0 0 LINE"
);
}
);
};
components = (
{
name = E;
},
{
name = macron;
transform = "{1, 0, 0, 1, 354, 234}";
}
);
layerId = "8956C7A5-95B5-4256-B2D2-E489185594C4";
width = 735;
},
{
background = {
paths = (
{
closed = 1;
nodes = (
"192 740 LINE",
"825 740 LINE",
"767 488 LINE",
"596 488 LINE",
"623 606 LINE",
"417 606 LINE",
"380 447 LINE",
"545 447 LINE",
"512 305 LINE",
"348 305 LINE",
"308 134 LINE",
"501 134 LINE",
"531 265 LINE",
"702 265 LINE",
"641 0 LINE",
"30 0 LINE",
"61 134 LINE",
"137 134 LINE",
"246 606 LINE",
"161 606 LINE"
);
},
{
closed = 1;
nodes = (
"697 809 LINE",
"361 809 LINE",
"361 914 LINE",
"697 914 LINE"
);
},
{
closed = 1;
nodes = (
"0 760 LINE",
"735 760 LINE",
"735 0 LINE",
"0 0 LINE"
);
}
);
};
components = (
{
name = E;
},
{
name = macroncomb;
transform = "{1, 0, 0, 1, 273, 234}";
}
);
layerId = "EEC59083-BA83-4EFB-8B50-D01213A5FD15";
width = 691;
}
);
leftKerningGroup = I;
rightKerningGroup = E;
unicode = 0112;
},
{
color = 6;
glyphname = Eogonek;
layers = (
{
background = {
paths = (
{
closed = 1;
nodes = (
"192 740 LINE",
"825 740 LINE",
"767 488 LINE",
"596 488 LINE",
"623 606 LINE",
"417 606 LINE",
"380 447 LINE",
"545 447 LINE",
"512 305 LINE",
"347 305 LINE",
"308 134 LINE",
"501 134 LINE",
"531 265 LINE",
"702 265 LINE",
"641 0 LINE",
"640 0 LINE",
"599 0 LINE",
"537 -20 LINE",
"496 -52 LINE",
"475 -89 LINE",
"475 -105 LINE",
"475 -124 LINE",
"499 -138 LINE",
"510 -138 LINE",
"529 -138 LINE",
"555 -132 LINE",
"565 -127 LINE",
"589 -210 LINE",
"578 -216 LINE",
"528 -230 LINE",
"502 -230 LINE",
"472 -230 LINE",
"421 -216 LINE",
"382 -190 LINE",
"360 -152 LINE",
"360 -127 LINE",
"360 -88 LINE",
"414 -23 LINE",
"452 0 LINE",
"30 0 LINE",
"61 134 LINE",
"137 134 LINE",
"246 606 LINE",
"161 606 LINE"
);
},
{
closed = 1;
nodes = (
"0 760 LINE",
"735 760 LINE",
"735 0 LINE",
"0 0 LINE"
);
}
);
};
layerId = "8956C7A5-95B5-4256-B2D2-E489185594C4";
paths = (
{
closed = 1;
nodes = (
"598 47 LINE",
"517 47 OFFCURVE",
"360 -27 OFFCURVE",
"360 -127 CURVE SMOOTH",
"360 -193 OFFCURVE",
"423 -230 OFFCURVE",
"502 -230 CURVE SMOOTH",
"537 -230 OFFCURVE",
"575 -218 OFFCURVE",
"589 -210 CURVE",
"565 -127 LINE",
"552 -133 OFFCURVE",
"535 -138 OFFCURVE",
"510 -138 CURVE SMOOTH",
"496 -138 OFFCURVE",
"475 -130 OFFCURVE",
"475 -105 CURVE SMOOTH",
"475 -61 OFFCURVE",
"531 0 OFFCURVE",
"640 0 CURVE"
);
},
{
closed = 1;
nodes = (
"291 61 LINE",
"431 665 LINE",
"260 665 LINE",
"120 61 LINE"
);
},
{
closed = 1;
nodes = (
"161 606 LINE",
"623 606 LINE",
"596 488 LINE",
"767 488 LINE",
"825 740 LINE",
"192 740 LINE"
);
},
{
closed = 1;
nodes = (
"30 0 LINE",
"641 0 LINE",
"702 265 LINE",
"531 265 LINE",
"501 134 LINE",
"61 134 LINE"
);
},
{
closed = 1;
nodes = (
"282 305 LINE",
"512 305 LINE",
"545 447 LINE",
"315 447 LINE"
);
}
);
width = 735;
},
{
background = {
paths = (
{
closed = 1;
nodes = (
"192 740 LINE",
"825 740 LINE",
"767 488 LINE",
"596 488 LINE",
"623 606 LINE",
"417 606 LINE",
"380 447 LINE",
"545 447 LINE",
"512 305 LINE",
"347 305 LINE",
"308 134 LINE",
"501 134 LINE",
"531 265 LINE",
"702 265 LINE",
"641 0 LINE",
"640 0 LINE",
"599 0 LINE",
"537 -20 LINE",
"496 -52 LINE",
"475 -89 LINE",
"475 -105 LINE",
"475 -124 LINE",
"499 -138 LINE",
"510 -138 LINE",
"529 -138 LINE",
"555 -132 LINE",
"565 -127 LINE",
"589 -210 LINE",
"578 -216 LINE",
"528 -230 LINE",
"502 -230 LINE",
"472 -230 LINE",
"421 -216 LINE",
"382 -190 LINE",
"360 -152 LINE",
"360 -127 LINE",
"360 -88 LINE",
"414 -23 LINE",
"452 0 LINE",
"30 0 LINE",
"61 134 LINE",
"137 134 LINE",
"246 606 LINE",
"161 606 LINE"
);
},
{
closed = 1;
nodes = (
"0 760 LINE",
"735 760 LINE",
"735 0 LINE",
"0 0 LINE"
);
}
);
};
layerId = "EEC59083-BA83-4EFB-8B50-D01213A5FD15";
paths = (
{
closed = 1;
nodes = (
"491 39 LINE",
"405 22 OFFCURVE",
"318 -27 OFFCURVE",
"318 -127 CURVE SMOOTH",
"318 -193 OFFCURVE",
"376 -230 OFFCURVE",
"455 -230 CURVE SMOOTH",
"492 -230 OFFCURVE",
"525 -219 OFFCURVE",
"542 -209 CURVE",
"521 -147 LINE",
"508 -153 OFFCURVE",
"483 -158 OFFCURVE",
"458 -158 CURVE SMOOTH",
"425 -158 OFFCURVE",
"403 -137 OFFCURVE",
"403 -110 CURVE SMOOTH",
"403 -61 OFFCURVE",
"467 0 OFFCURVE",
"566 0 CURVE"
);
},
{
closed = 1;
nodes = (
"216 52 LINE",
"361 684 LINE",
"260 684 LINE",
"114 52 LINE"
);
},
{
closed = 1;
nodes = (
"181 656 LINE",
"618 656 LINE",
"588 529 LINE",
"689 529 LINE",
"738 740 LINE",
"201 740 LINE"
);
},
{
closed = 1;
nodes = (
"37 0 LINE",
"567 0 LINE",
"616 212 LINE",
"514 212 LINE",
"484 84 LINE",
"56 84 LINE"
);
},
{
closed = 1;
nodes = (
"235 335 LINE",
"497 335 LINE",
"518 419 LINE",
"255 419 LINE"
);
}
);
width = 690;
}
);
leftKerningGroup = I;
rightKerningGroup = E;
unicode = 0118;
},
{
glyphname = F;
layers = (
{
anchors = (
{
name = top;
position = "{299, 700}";
}
);
layerId = "EEC59083-BA83-4EFB-8B50-D01213A5FD15";
paths = (
{
closed = 1;
nodes = (
"179 656 LINE",
"251 656 LINE",
"119 84 LINE",
"56 84 LINE",
"37 0 LINE",
"277 0 LINE",
"296 84 LINE",
"221 84 LINE",
"278 334 LINE",
"534 334 LINE",
"553 418 LINE",
"298 418 LINE",
"352 656 LINE",
"621 656 LINE",
"593 531 LINE",
"689 531 LINE",
"737 740 LINE",
"199 740 LINE"
);
}
);
width = 650;
},
{
anchors = (
{
name = top;
position = "{319, 700}";
}
);
layerId = "8956C7A5-95B5-4256-B2D2-E489185594C4";
paths = (
{
closed = 1;
nodes = (
"139 606 LINE",
"244 606 LINE",
"135 134 LINE",
"61 134 LINE",
"30 0 LINE",
"360 0 LINE",
"391 134 LINE",
"306 134 LINE",
"343 294 LINE",
"520 294 LINE",
"553 436 LINE",
"376 436 LINE",
"416 606 LINE",
"606 606 LINE",
"579 488 LINE",
"749 488 LINE",
"807 740 LINE",
"170 740 LINE"
);
}
);
width = 667;
}
);
leftKerningGroup = I;
rightKerningGroup = F;
unicode = 0046;
},
{
glyphname = G;
layers = (
{
anchors = (
{
name = bottom;
position = "{357, 0}";
},
{
name = top;
position = "{446, 700}";
}
);
layerId = "EEC59083-BA83-4EFB-8B50-D01213A5FD15";
paths = (
{
closed = 1;
nodes = (
"662 0 LINE",
"742 354 LINE",
"428 354 LINE",
"408 268 LINE",
"614 268 LINE",
"570 153 OFFCURVE",
"478 85 OFFCURVE",
"359 85 CURVE SMOOTH",
"242 85 OFFCURVE",
"146 186 OFFCURVE",
"146 328 CURVE SMOOTH",
"146 509 OFFCURVE",
"270 657 OFFCURVE",
"445 657 CURVE SMOOTH",
"535 657 OFFCURVE",
"603 611 OFFCURVE",
"631 544 CURVE",
"766 544 LINE",
"786 628 LINE",
"709 628 LINE",
"667 691 OFFCURVE",
"580 754 OFFCURVE",
"456 754 CURVE SMOOTH",
"213 754 OFFCURVE",
"37 562 OFFCURVE",
"37 320 CURVE SMOOTH",
"37 134 OFFCURVE",
"169 -12 OFFCURVE",
"348 -12 CURVE SMOOTH",
"443 -12 OFFCURVE",
"529 27 OFFCURVE",
"588 108 CURVE",
"564 0 LINE"
);
}
);
width = 789;
},
{
anchors = (
{
name = bottom;
position = "{357, 0}";
},
{
name = top;
position = "{504, 700}";
}
);
layerId = "8956C7A5-95B5-4256-B2D2-E489185594C4";
paths = (
{
closed = 1;
nodes = (
"699 0 LINE",
"791 395 LINE",
"447 395 LINE",
"416 261 LINE",
"572 261 LINE",
"544 194 OFFCURVE",
"464 144 OFFCURVE",
"383 144 CURVE SMOOTH",
"292 144 OFFCURVE",
"237 216 OFFCURVE",
"237 313 CURVE SMOOTH",
"237 457 OFFCURVE",
"351 593 OFFCURVE",
"484 593 CURVE SMOOTH",
"548 593 OFFCURVE",
"593 556 OFFCURVE",
"610 515 CURVE",
"800 515 LINE",
"831 649 LINE",
"744 649 LINE",
"696 711 OFFCURVE",
"605 754 OFFCURVE",
"505 754 CURVE SMOOTH",
"283 754 OFFCURVE",
"60 574 OFFCURVE",
"60 297 CURVE SMOOTH",
"60 111 OFFCURVE",
"190 -15 OFFCURVE",
"360 -15 CURVE SMOOTH",
"444 -15 OFFCURVE",
"527 29 OFFCURVE",
"579 111 CURVE",
"553 0 LINE"
);
}
);
width = 769;
}
);
leftKerningGroup = O;
rightKerningGroup = C;
unicode = 0047;
},
{
color = 6;
glyphname = Gbreve;
layers = (
{
background = {
paths = (
{
closed = 1;
nodes = (
"553 0 LINE",
"579 111 LINE",
"560 80 LINE",
"498 21 LINE",
"407 -15 LINE",
"360 -15 LINE",
"296 -15 LINE",
"187 30 LINE",
"106 112 LINE",
"60 227 LINE",
"60 297 LINE",
"60 366 LINE",
"95 488 LINE",
"157 589 LINE",
"242 669 LINE",
"340 725 LINE",
"449 754 LINE",
"505 754 LINE",
"543 754 LINE",
"615 738 LINE",
"678 709 LINE",
"728 670 LINE",
"744 649 LINE",
"831 649 LINE",
"800 515 LINE",
"610 515 LINE",
"604 530 LINE",
"581 559 LINE",
"548 580 LINE",
"508 593 LINE",
"484 593 LINE",
"434 593 LINE",
"344 546 LINE",
"277 468 LINE",
"237 367 LINE",
"237 313 LINE",
"237 276 LINE",
"257 215 LINE",
"294 169 LINE",
"349 144 LINE",
"383 144 LINE",
"415 144 LINE",
"476 163 LINE",
"527 197 LINE",
"562 239 LINE",
"572 261 LINE",
"416 261 LINE",
"447 395 LINE",
"791 395 LINE",
"699 0 LINE"
);
},
{
closed = 1;
nodes = (
"488 799 LINE",
"441 799 LINE",
"371 820 LINE",
"319 860 LINE",
"284 919 LINE",
"272 957 LINE",
"395 957 LINE",
"405 928 LINE",
"451 897 LINE",
"488 897 LINE",
"523 897 LINE",
"568 925 LINE",
"580 957 LINE",
"702 957 LINE",
"691 919 LINE",
"656 861 LINE",
"604 820 LINE",
"534 799 LINE"
);
},
{
closed = 1;
nodes = (
"0 760 LINE",
"769 760 LINE",
"769 0 LINE",
"0 0 LINE"
);
}
);
};
components = (
{
name = G;
},
{
name = brevecomb;
transform = "{1, 0, 0, 1, 291, 194}";
}
);
layerId = "8956C7A5-95B5-4256-B2D2-E489185594C4";
width = 769;
},
{
background = {
paths = (
{
closed = 1;
nodes = (
"553 0 LINE",
"579 111 LINE",
"560 80 LINE",
"498 21 LINE",
"407 -15 LINE",
"360 -15 LINE",
"296 -15 LINE",
"187 30 LINE",
"106 112 LINE",
"60 227 LINE",
"60 297 LINE",
"60 366 LINE",
"95 488 LINE",
"157 589 LINE",
"242 669 LINE",
"340 725 LINE",
"449 754 LINE",
"505 754 LINE",
"543 754 LINE",
"615 738 LINE",
"678 709 LINE",
"728 670 LINE",
"744 649 LINE",
"831 649 LINE",
"800 515 LINE",
"610 515 LINE",
"604 530 LINE",
"581 559 LINE",
"548 580 LINE",
"508 593 LINE",
"484 593 LINE",
"434 593 LINE",
"344 546 LINE",
"277 468 LINE",
"237 367 LINE",
"237 313 LINE",
"237 276 LINE",
"257 215 LINE",
"294 169 LINE",
"349 144 LINE",
"383 144 LINE",
"415 144 LINE",
"476 163 LINE",
"527 197 LINE",
"562 239 LINE",
"572 261 LINE",
"416 261 LINE",
"447 395 LINE",
"791 395 LINE",
"699 0 LINE"
);
},
{
closed = 1;
nodes = (
"488 799 LINE",
"441 799 LINE",
"371 820 LINE",
"319 860 LINE",
"284 919 LINE",
"272 957 LINE",
"395 957 LINE",
"405 928 LINE",
"451 897 LINE",
"488 897 LINE",
"523 897 LINE",
"568 925 LINE",
"580 957 LINE",
"702 957 LINE",
"691 919 LINE",
"656 861 LINE",
"604 820 LINE",
"534 799 LINE"
);
},
{
closed = 1;
nodes = (
"0 760 LINE",
"769 760 LINE",
"769 0 LINE",
"0 0 LINE"
);
}
);
};
components = (
{
name = G;
},
{
name = brevecomb;
transform = "{1, 0, 0, 1, 153, 194}";
}
);
layerId = "EEC59083-BA83-4EFB-8B50-D01213A5FD15";
width = 789;
}
);
leftKerningGroup = O;
rightKerningGroup = G;
unicode = 011E;
},
{
color = 6;
glyphname = Gcommaaccent;
layers = (
{
background = {
paths = (
{
closed = 1;
nodes = (
"553 0 LINE",
"579 111 LINE",
"560 80 LINE",
"498 21 LINE",
"407 -15 LINE",
"360 -15 LINE",
"296 -15 LINE",
"187 30 LINE",
"106 112 LINE",
"60 227 LINE",
"60 297 LINE",
"60 366 LINE",
"95 488 LINE",
"157 589 LINE",
"242 669 LINE",
"340 725 LINE",
"449 754 LINE",
"505 754 LINE",
"543 754 LINE",
"615 738 LINE",
"678 709 LINE",
"728 670 LINE",
"744 649 LINE",
"831 649 LINE",
"800 515 LINE",
"610 515 LINE",
"604 530 LINE",
"581 559 LINE",
"548 580 LINE",
"508 593 LINE",
"484 593 LINE",
"434 593 LINE",
"344 546 LINE",
"277 468 LINE",
"237 367 LINE",
"237 313 LINE",
"237 276 LINE",
"257 215 LINE",
"294 169 LINE",
"349 144 LINE",
"383 144 LINE",
"415 144 LINE",
"476 163 LINE",
"527 197 LINE",
"562 239 LINE",
"572 261 LINE",
"416 261 LINE",
"447 395 LINE",
"791 395 LINE",
"699 0 LINE"
);
},
{
closed = 1;
nodes = (
"342 -14 LINE",
"483 -65 LINE",
"387 -230 LINE",
"286 -195 LINE"
);
},
{
closed = 1;
nodes = (
"0 760 LINE",
"769 760 LINE",
"769 0 LINE",
"0 0 LINE"
);
}
);
};
components = (
{
name = G;
},
{
name = commaaccentcomb;
transform = "{1, 0, 0, 1, 311, 0}";
}
);
layerId = "8956C7A5-95B5-4256-B2D2-E489185594C4";
width = 769;
},
{
background = {
paths = (
{
closed = 1;
nodes = (
"553 0 LINE",
"579 111 LINE",
"560 80 LINE",
"498 21 LINE",
"407 -15 LINE",
"360 -15 LINE",
"296 -15 LINE",
"187 30 LINE",
"106 112 LINE",
"60 227 LINE",
"60 297 LINE",
"60 366 LINE",
"95 488 LINE",
"157 589 LINE",
"242 669 LINE",
"340 725 LINE",
"449 754 LINE",
"505 754 LINE",
"543 754 LINE",
"615 738 LINE",
"678 709 LINE",
"728 670 LINE",
"744 649 LINE",
"831 649 LINE",
"800 515 LINE",
"610 515 LINE",
"604 530 LINE",
"581 559 LINE",
"548 580 LINE",
"508 593 LINE",
"484 593 LINE",
"434 593 LINE",
"344 546 LINE",
"277 468 LINE",
"237 367 LINE",
"237 313 LINE",
"237 276 LINE",
"257 215 LINE",
"294 169 LINE",
"349 144 LINE",
"383 144 LINE",
"415 144 LINE",
"476 163 LINE",
"527 197 LINE",
"562 239 LINE",
"572 261 LINE",
"416 261 LINE",
"447 395 LINE",
"791 395 LINE",
"699 0 LINE"
);
},
{
closed = 1;
nodes = (
"342 -14 LINE",
"483 -65 LINE",
"387 -230 LINE",
"286 -195 LINE"
);
},
{
closed = 1;
nodes = (
"0 760 LINE",
"769 760 LINE",
"769 0 LINE",
"0 0 LINE"
);
}
);
};
components = (
{
name = G;
},
{
name = commaaccentcomb;
transform = "{1, 0, 0, 1, 312, 0}";
}
);
layerId = "EEC59083-BA83-4EFB-8B50-D01213A5FD15";
width = 789;
}
);
leftKerningGroup = O;
rightKerningGroup = G;
unicode = 0122;
},
{
glyphname = H;
layers = (
{
layerId = "EEC59083-BA83-4EFB-8B50-D01213A5FD15";
paths = (
{
closed = 1;
nodes = (
"701 656 LINE",
"773 656 LINE",
"722 432 LINE",
"303 432 LINE",
"354 656 LINE",
"421 656 LINE",
"441 740 LINE",
"201 740 LINE",
"181 656 LINE",
"253 656 LINE",
"121 84 LINE",
"56 84 LINE",
"37 0 LINE",
"277 0 LINE",
"296 84 LINE",
"223 84 LINE",
"284 350 LINE",
"703 350 LINE",
"641 84 LINE",
"576 84 LINE",
"557 0 LINE",
"797 0 LINE",
"816 84 LINE",
"743 84 LINE",
"874 656 LINE",
"941 656 LINE",
"961 740 LINE",
"721 740 LINE"
);
}
);
width = 944;
},
{
guideLines = (
{
angle = 76.9965;
position = "{192, 370}";
}
);
layerId = "8956C7A5-95B5-4256-B2D2-E489185594C4";
paths = (
{
closed = 1;
nodes = (
"659 606 LINE",
"742 606 LINE",
"707 455 LINE",
"382 455 LINE",
"417 606 LINE",
"492 606 LINE",
"523 740 LINE",
"193 740 LINE",
"162 606 LINE",
"246 606 LINE",
"137 134 LINE",
"61 134 LINE",
"30 0 LINE",
"360 0 LINE",
"391 134 LINE",
"308 134 LINE",
"352 323 LINE",
"677 323 LINE",
"633 134 LINE",
"559 134 LINE",
"528 0 LINE",
"858 0 LINE",
"889 134 LINE",
"804 134 LINE",
"913 606 LINE",
"989 606 LINE",
"1020 740 LINE",
"690 740 LINE"
);
}
);
width = 950;
}
);
leftKerningGroup = I;
rightKerningGroup = I;
unicode = 0048;
},
{
glyphname = I;
layers = (
{
anchors = (
{
name = top;
position = "{338, 740}";
}
);
layerId = "EEC59083-BA83-4EFB-8B50-D01213A5FD15";
paths = (
{
closed = 1;
nodes = (
"188 656 LINE",
"258 656 LINE",
"126 84 LINE",
"56 84 LINE",
"37 0 LINE",
"277 0 LINE",
"296 84 LINE",
"228 84 LINE",
"359 656 LINE",
"428 656 LINE",
"448 740 LINE",
"208 740 LINE"
);
}
);
width = 431;
},
{
anchors = (
{
name = top;
position = "{352, 740}";
}
);
layerId = "8956C7A5-95B5-4256-B2D2-E489185594C4";
paths = (
{
closed = 1;
nodes = (
"161 606 LINE",
"246 606 LINE",
"137 134 LINE",
"61 134 LINE",
"30 0 LINE",
"360 0 LINE",
"391 134 LINE",
"308 134 LINE",
"417 606 LINE",
"491 606 LINE",
"522 740 LINE",
"192 740 LINE"
);
}
);
width = 452;
}
);
leftKerningGroup = I;
rightKerningGroup = I;
unicode = 0049;
},
{
color = 6;
glyphname = Idotaccent;
layers = (
{
background = {
paths = (
{
closed = 1;
nodes = (
"192 740 LINE",
"522 740 LINE",
"491 606 LINE",
"417 606 LINE",
"308 134 LINE",
"391 134 LINE",
"360 0 LINE",
"30 0 LINE",
"61 134 LINE",
"137 134 LINE",
"246 606 LINE",
"161 606 LINE"
);
},
{
closed = 1;
nodes = (
"260 903 LINE",
"260 921 LINE",
"273 953 LINE",
"296 977 LINE",
"328 990 LINE",
"347 990 LINE",
"364 990 LINE",
"396 977 LINE",
"419 953 LINE",
"433 921 LINE",
"433 903 LINE",
"433 885 LINE",
"419 854 LINE",
"396 830 LINE",
"364 816 LINE",
"347 816 LINE",
"328 816 LINE",
"296 830 LINE",
"273 854 LINE",
"260 885 LINE"
);
},
{
closed = 1;
nodes = (
"0 760 LINE",
"452 760 LINE",
"452 0 LINE",
"0 0 LINE"
);
}
);
};
components = (
{
name = I;
},
{
name = dotaccent;
transform = "{1, 0, 0, 1, 216, 234}";
}
);
layerId = "8956C7A5-95B5-4256-B2D2-E489185594C4";
width = 452;
},
{
background = {
paths = (
{
closed = 1;
nodes = (
"192 740 LINE",
"522 740 LINE",
"491 606 LINE",
"417 606 LINE",
"308 134 LINE",
"391 134 LINE",
"360 0 LINE",
"30 0 LINE",
"61 134 LINE",
"137 134 LINE",
"246 606 LINE",
"161 606 LINE"
);
},
{
closed = 1;
nodes = (
"260 903 LINE",
"260 921 LINE",
"273 953 LINE",
"296 977 LINE",
"328 990 LINE",
"347 990 LINE",
"364 990 LINE",
"396 977 LINE",
"419 953 LINE",
"433 921 LINE",
"433 903 LINE",
"433 885 LINE",
"419 854 LINE",
"396 830 LINE",
"364 816 LINE",
"347 816 LINE",
"328 816 LINE",
"296 830 LINE",
"273 854 LINE",
"260 885 LINE"
);
},
{
closed = 1;
nodes = (
"0 760 LINE",
"452 760 LINE",
"452 0 LINE",
"0 0 LINE"
);
}
);
};
components = (
{
name = I;
},
{
name = dotaccent;
transform = "{1, 0, 0, 1, 171, 234}";
}
);
layerId = "EEC59083-BA83-4EFB-8B50-D01213A5FD15";
width = 431;
}
);
leftKerningGroup = I;
rightKerningGroup = I;
unicode = 0130;
},
{
color = 6;
glyphname = Imacron;
layers = (
{
background = {
paths = (
{
closed = 1;
nodes = (
"192 740 LINE",
"522 740 LINE",
"491 606 LINE",
"417 606 LINE",
"308 134 LINE",
"391 134 LINE",
"360 0 LINE",
"30 0 LINE",
"61 134 LINE",
"137 134 LINE",
"246 606 LINE",
"161 606 LINE"
);
},
{
closed = 1;
nodes = (
"519 809 LINE",
"183 809 LINE",
"183 914 LINE",
"519 914 LINE"
);
},
{
closed = 1;
nodes = (
"0 760 LINE",
"452 760 LINE",
"452 0 LINE",
"0 0 LINE"
);
}
);
};
components = (
{
name = I;
},
{
name = macroncomb.i;
transform = "{1, 0, 0, 1, 156, 234}";
}
);
layerId = "8956C7A5-95B5-4256-B2D2-E489185594C4";
width = 452;
},
{
background = {
paths = (
{
closed = 1;
nodes = (
"192 740 LINE",
"522 740 LINE",
"491 606 LINE",
"417 606 LINE",
"308 134 LINE",
"391 134 LINE",
"360 0 LINE",
"30 0 LINE",
"61 134 LINE",
"137 134 LINE",
"246 606 LINE",
"161 606 LINE"
);
},
{
closed = 1;
nodes = (
"519 809 LINE",
"183 809 LINE",
"183 914 LINE",
"519 914 LINE"
);
},
{
closed = 1;
nodes = (
"0 760 LINE",
"452 760 LINE",
"452 0 LINE",
"0 0 LINE"
);
}
);
};
components = (
{
name = I;
},
{
name = macroncomb.i;
transform = "{1, 0, 0, 1, 143, 234}";
}
);
layerId = "EEC59083-BA83-4EFB-8B50-D01213A5FD15";
width = 431;
}
);
leftKerningGroup = I;
rightKerningGroup = I;
unicode = 012A;
},
{
color = 6;
glyphname = Iogonek;
layers = (
{
background = {
paths = (
{
closed = 1;
nodes = (
"192 740 LINE",
"522 740 LINE",
"491 606 LINE",
"417 606 LINE",
"308 134 LINE",
"391 134 LINE",
"360 0 LINE",
"206 0 LINE",
"181 -1 LINE",
"131 -22 LINE",
"90 -53 LINE",
"65 -89 LINE",
"65 -105 LINE",
"65 -124 LINE",
"89 -138 LINE",
"100 -138 LINE",
"119 -138 LINE",
"145 -132 LINE",
"155 -127 LINE",
"179 -210 LINE",
"168 -216 LINE",
"118 -230 LINE",
"92 -230 LINE",
"62 -230 LINE",
"11 -216 LINE",
"-28 -190 LINE",
"-50 -152 LINE",
"-50 -127 LINE",
"-50 -85 LINE",
"3 -22 LINE",
"40 0 LINE",
"71 134 LINE",
"137 134 LINE",
"246 606 LINE",
"161 606 LINE"
);
},
{
closed = 1;
nodes = (
"0 760 LINE",
"452 760 LINE",
"452 0 LINE",
"0 0 LINE"
);
}
);
};
layerId = "8956C7A5-95B5-4256-B2D2-E489185594C4";
paths = (
{
closed = 1;
nodes = (
"158 47 LINE",
"84 31 OFFCURVE",
"-50 -27 OFFCURVE",
"-50 -127 CURVE SMOOTH",
"-50 -193 OFFCURVE",
"13 -230 OFFCURVE",
"92 -230 CURVE SMOOTH",
"127 -230 OFFCURVE",
"165 -218 OFFCURVE",
"179 -210 CURVE",
"155 -127 LINE",
"142 -133 OFFCURVE",
"125 -138 OFFCURVE",
"100 -138 CURVE SMOOTH",
"86 -138 OFFCURVE",
"65 -130 OFFCURVE",
"65 -105 CURVE SMOOTH",
"65 -61 OFFCURVE",
"143 0 OFFCURVE",
"211 0 CURVE"
);
},
{
closed = 1;
nodes = (
"40 0 LINE",
"360 0 LINE",
"391 134 LINE",
"71 134 LINE"
);
},
{
closed = 1;
nodes = (
"291 61 LINE",
"431 665 LINE",
"260 665 LINE",
"120 61 LINE"
);
},
{
closed = 1;
nodes = (
"161 606 LINE",
"491 606 LINE",
"522 740 LINE",
"192 740 LINE"
);
}
);
width = 452;
},
{
background = {
paths = (
{
closed = 1;
nodes = (
"192 740 LINE",
"522 740 LINE",
"491 606 LINE",
"417 606 LINE",
"308 134 LINE",
"391 134 LINE",
"360 0 LINE",
"206 0 LINE",
"181 -1 LINE",
"131 -22 LINE",
"90 -53 LINE",
"65 -89 LINE",
"65 -105 LINE",
"65 -124 LINE",
"89 -138 LINE",
"100 -138 LINE",
"119 -138 LINE",
"145 -132 LINE",
"155 -127 LINE",
"179 -210 LINE",
"168 -216 LINE",
"118 -230 LINE",
"92 -230 LINE",
"62 -230 LINE",
"11 -216 LINE",
"-28 -190 LINE",
"-50 -152 LINE",
"-50 -127 LINE",
"-50 -85 LINE",
"3 -22 LINE",
"40 0 LINE",
"71 134 LINE",
"137 134 LINE",
"246 606 LINE",
"161 606 LINE"
);
},
{
closed = 1;
nodes = (
"0 760 LINE",
"452 760 LINE",
"452 0 LINE",
"0 0 LINE"
);
}
);
};
layerId = "EEC59083-BA83-4EFB-8B50-D01213A5FD15";
paths = (
{
closed = 1;
nodes = (
"136 38 LINE",
"78 38 OFFCURVE",
"-37 -27 OFFCURVE",
"-37 -127 CURVE SMOOTH",
"-37 -193 OFFCURVE",
"21 -230 OFFCURVE",
"100 -230 CURVE SMOOTH",
"137 -230 OFFCURVE",
"170 -219 OFFCURVE",
"187 -209 CURVE",
"166 -147 LINE",
"153 -153 OFFCURVE",
"128 -158 OFFCURVE",
"103 -158 CURVE SMOOTH",
"70 -158 OFFCURVE",
"48 -137 OFFCURVE",
"48 -110 CURVE SMOOTH",
"48 -53 OFFCURVE",
"128 0 OFFCURVE",
"209 0 CURVE"
);
},
{
closed = 1;
nodes = (
"37 0 LINE",
"277 0 LINE",
"296 84 LINE",
"56 84 LINE"
);
},
{
closed = 1;
nodes = (
"221 52 LINE",
"366 684 LINE",
"265 684 LINE",
"119 52 LINE"
);
},
{
closed = 1;
nodes = (
"188 656 LINE",
"428 656 LINE",
"448 740 LINE",
"208 740 LINE"
);
}
);
width = 431;
}
);
leftKerningGroup = I;
rightKerningGroup = I;
unicode = 012E;
},
{
glyphname = J;
layers = (
{
anchors = (
{
name = top;
position = "{23, 660}";
}
);
layerId = "EEC59083-BA83-4EFB-8B50-D01213A5FD15";
paths = (
{
closed = 1;
nodes = (
"169 656 LINE",
"242 656 LINE",
"114 100 LINE",
"102 46 OFFCURVE",
"-38 -109 OFFCURVE",
"-38 -109 CURVE",
"44 -116 LINE",
"44 -116 OFFCURVE",
"195 27 OFFCURVE",
"208 84 CURVE",
"340 656 LINE",
"409 656 LINE",
"429 740 LINE",
"189 740 LINE"
);
}
);
width = 372;
},
{
anchors = (
{
name = top;
position = "{61, 660}";
}
);
layerId = "8956C7A5-95B5-4256-B2D2-E489185594C4";
paths = (
{
closed = 1;
nodes = (
"141 606 LINE",
"229 606 LINE",
"112 100 LINE",
"100 46 OFFCURVE",
"-40 -109 OFFCURVE",
"-40 -109 CURVE",
"97 -120 LINE",
"97 -120 OFFCURVE",
"265 27 OFFCURVE",
"278 84 CURVE",
"398 606 LINE",
"471 606 LINE",
"502 740 LINE",
"172 740 LINE"
);
}
);
width = 382;
}
);
leftKerningGroup = J;
rightKerningGroup = U;
unicode = 004A;
},
{
glyphname = K;
layers = (
{
anchors = (
{
name = bottom;
position = "{373, 0}";
},
{
name = top;
position = "{351, 700}";
}
);
layerId = "EEC59083-BA83-4EFB-8B50-D01213A5FD15";
paths = (
{
closed = 1;
nodes = (
"292 378 LINE",
"521 84 LINE",
"502 0 LINE",
"701 0 LINE",
"720 84 LINE",
"643 84 LINE",
"414 368 LINE",
"823 656 LINE",
"869 656 LINE",
"889 740 LINE",
"699 740 LINE",
"679 656 LINE"
);
},
{
closed = 1;
nodes = (
"181 656 LINE",
"253 656 LINE",
"121 84 LINE",
"56 84 LINE",
"37 0 LINE",
"277 0 LINE",
"296 84 LINE",
"223 84 LINE",
"354 656 LINE",
"421 656 LINE",
"441 740 LINE",
"201 740 LINE"
);
}
);
width = 802;
},
{
anchors = (
{
name = bottom;
position = "{418, 0}";
},
{
name = top;
position = "{366, 700}";
}
);
layerId = "8956C7A5-95B5-4256-B2D2-E489185594C4";
paths = (
{
closed = 1;
nodes = (
"377 387 LINE",
"561 134 LINE",
"530 0 LINE",
"805 0 LINE",
"835 134 LINE",
"763 134 LINE",
"592 373 LINE",
"906 606 LINE",
"971 606 LINE",
"1002 740 LINE",
"700 740 LINE",
"669 607 LINE"
);
},
{
closed = 1;
nodes = (
"161 606 LINE",
"246 606 LINE",
"137 134 LINE",
"61 134 LINE",
"30 0 LINE",
"360 0 LINE",
"391 134 LINE",
"308 134 LINE",
"417 606 LINE",
"491 606 LINE",
"522 740 LINE",
"192 740 LINE"
);
}
);
width = 852;
}
);
leftKerningGroup = I;
rightKerningGroup = K;
unicode = 004B;
},
{
color = 6;
glyphname = Kcommaaccent;
layers = (
{
background = {
paths = (
{
closed = 1;
nodes = (
"669 607 LINE",
"700 740 LINE",
"1002 740 LINE",
"971 606 LINE",
"906 606 LINE",
"592 373 LINE",
"763 134 LINE",
"835 134 LINE",
"805 0 LINE",
"530 0 LINE",
"561 134 LINE",
"377 387 LINE"
);
},
{
closed = 1;
nodes = (
"192 740 LINE",
"522 740 LINE",
"491 606 LINE",
"417 606 LINE",
"308 134 LINE",
"391 134 LINE",
"360 0 LINE",
"30 0 LINE",
"61 134 LINE",
"137 134 LINE",
"246 606 LINE",
"161 606 LINE"
);
},
{
closed = 1;
nodes = (
"383 -14 LINE",
"524 -65 LINE",
"428 -230 LINE",
"327 -195 LINE"
);
},
{
closed = 1;
nodes = (
"0 760 LINE",
"852 760 LINE",
"852 0 LINE",
"0 0 LINE"
);
}
);
};
components = (
{
name = K;
},
{
name = commaaccentcomb;
transform = "{1, 0, 0, 1, 372, 0}";
}
);
layerId = "8956C7A5-95B5-4256-B2D2-E489185594C4";
width = 852;
},
{
background = {
paths = (
{
closed = 1;
nodes = (
"669 607 LINE",
"700 740 LINE",
"1002 740 LINE",
"971 606 LINE",
"906 606 LINE",
"592 373 LINE",
"763 134 LINE",
"835 134 LINE",
"805 0 LINE",
"530 0 LINE",
"561 134 LINE",
"377 387 LINE"
);
},
{
closed = 1;
nodes = (
"192 740 LINE",
"522 740 LINE",
"491 606 LINE",
"417 606 LINE",
"308 134 LINE",
"391 134 LINE",
"360 0 LINE",
"30 0 LINE",
"61 134 LINE",
"137 134 LINE",
"246 606 LINE",
"161 606 LINE"
);
},
{
closed = 1;
nodes = (
"383 -14 LINE",
"524 -65 LINE",
"428 -230 LINE",
"327 -195 LINE"
);
},
{
closed = 1;
nodes = (
"0 760 LINE",
"852 760 LINE",
"852 0 LINE",
"0 0 LINE"
);
}
);
};
components = (
{
name = K;
},
{
name = commaaccentcomb;
transform = "{1, 0, 0, 1, 328, 0}";
}
);
layerId = "EEC59083-BA83-4EFB-8B50-D01213A5FD15";
width = 802;
}
);
leftKerningGroup = I;
rightKerningGroup = K;
unicode = 0136;
},
{
glyphname = L;
layers = (
{
anchors = (
{
name = bottom;
position = "{318, 0}";
},
{
name = center;
position = "{363, 370}";
},
{
name = top;
position = "{305, 700}";
},
{
name = topright;
position = "{564, 740}";
}
);
layerId = "EEC59083-BA83-4EFB-8B50-D01213A5FD15";
paths = (
{
closed = 1;
nodes = (
"181 656 LINE",
"253 656 LINE",
"121 84 LINE",
"56 84 LINE",
"37 0 LINE",
"588 0 LINE",
"639 219 LINE",
"541 219 LINE",
"518 123 LINE",
"513 101 OFFCURVE",
"498 84 OFFCURVE",
"470 84 CURVE SMOOTH",
"223 84 LINE",
"354 656 LINE",
"421 656 LINE",
"441 740 LINE",
"201 740 LINE"
);
}
);
width = 672;
},
{
anchors = (
{
name = bottom;
position = "{324, 0}";
},
{
name = center;
position = "{349, 370}";
},
{
name = top;
position = "{330, 700}";
},
{
name = topright;
position = "{635, 740}";
}
);
layerId = "8956C7A5-95B5-4256-B2D2-E489185594C4";
paths = (
{
closed = 1;
nodes = (
"161 606 LINE",
"245 606 LINE",
"136 134 LINE",
"61 134 LINE",
"30 0 LINE",
"621 0 LINE",
"683 272 LINE",
"518 272 LINE",
"494 174 LINE",
"488 151 OFFCURVE",
"470 134 OFFCURVE",
"447 134 CURVE SMOOTH",
"307 134 LINE",
"417 606 LINE",
"491 606 LINE",
"522 740 LINE",
"192 740 LINE"
);
}
);
width = 643;
}
);
leftKerningGroup = I;
rightKerningGroup = L;
unicode = 004C;
},
{
color = 6;
glyphname = Lacute;
layers = (
{
background = {
paths = (
{
closed = 1;
nodes = (
"192 740 LINE",
"522 740 LINE",
"491 606 LINE",
"417 606 LINE",
"307 134 LINE",
"447 134 LINE",
"464 134 LINE",
"489 157 LINE",
"494 174 LINE",
"518 272 LINE",
"683 272 LINE",
"621 0 LINE",
"30 0 LINE",
"61 134 LINE",
"136 134 LINE",
"245 606 LINE",
"161 606 LINE"
);
},
{
closed = 1;
nodes = (
"358 921 LINE",
"517 921 LINE",
"517 909 LINE",
"368 769 LINE",
"253 769 LINE"
);
},
{
closed = 1;
nodes = (
"0 760 LINE",
"643 760 LINE",
"643 0 LINE",
"0 0 LINE"
);
}
);
};
components = (
{
name = L;
},
{
name = acute;
transform = "{1, 0, 0, 1, 233, 194}";
}
);
layerId = "8956C7A5-95B5-4256-B2D2-E489185594C4";
width = 643;
},
{
background = {
paths = (
{
closed = 1;
nodes = (
"192 740 LINE",
"522 740 LINE",
"491 606 LINE",
"417 606 LINE",
"307 134 LINE",
"447 134 LINE",
"464 134 LINE",
"489 157 LINE",
"494 174 LINE",
"518 272 LINE",
"683 272 LINE",
"621 0 LINE",
"30 0 LINE",
"61 134 LINE",
"136 134 LINE",
"245 606 LINE",
"161 606 LINE"
);
},
{
closed = 1;
nodes = (
"358 921 LINE",
"517 921 LINE",
"517 909 LINE",
"368 769 LINE",
"253 769 LINE"
);
},
{
closed = 1;
nodes = (
"0 760 LINE",
"643 760 LINE",
"643 0 LINE",
"0 0 LINE"
);
}
);
};
components = (
{
name = L;
},
{
name = acute;
transform = "{1, 0, 0, 1, 140, 194}";
}
);
layerId = "EEC59083-BA83-4EFB-8B50-D01213A5FD15";
width = 672;
}
);
leftKerningGroup = I;
rightKerningGroup = L;
unicode = 0139;
},
{
color = 6;
glyphname = Lcaron;
layers = (
{
background = {
paths = (
{
closed = 1;
nodes = (
"192 740 LINE",
"522 740 LINE",
"491 606 LINE",
"417 606 LINE",
"307 134 LINE",
"447 134 LINE",
"464 134 LINE",
"489 157 LINE",
"494 174 LINE",
"518 272 LINE",
"683 272 LINE",
"621 0 LINE",
"30 0 LINE",
"61 134 LINE",
"136 134 LINE",
"245 606 LINE",
"161 606 LINE"
);
},
{
closed = 1;
nodes = (
"0 760 LINE",
"643 760 LINE",
"643 0 LINE",
"0 0 LINE"
);
}
);
};
components = (
{
name = L;
},
{
name = quotesingle;
transform = "{1, 0, 0, 1, 443, -30}";
}
);
layerId = "8956C7A5-95B5-4256-B2D2-E489185594C4";
width = 643;
},
{
background = {
paths = (
{
closed = 1;
nodes = (
"192 740 LINE",
"522 740 LINE",
"491 606 LINE",
"417 606 LINE",
"307 134 LINE",
"447 134 LINE",
"464 134 LINE",
"489 157 LINE",
"494 174 LINE",
"518 272 LINE",
"683 272 LINE",
"621 0 LINE",
"30 0 LINE",
"61 134 LINE",
"136 134 LINE",
"245 606 LINE",
"161 606 LINE"
);
},
{
closed = 1;
nodes = (
"0 760 LINE",
"643 760 LINE",
"643 0 LINE",
"0 0 LINE"
);
}
);
};
components = (
{
name = L;
},
{
name = quotesingle;
transform = "{1, 0, 0, 1, 418, -25}";
}
);
layerId = "EEC59083-BA83-4EFB-8B50-D01213A5FD15";
width = 671;
}
);
leftKerningGroup = I;
rightKerningGroup = L;
unicode = 013D;
},
{
color = 6;
glyphname = Lcommaaccent;
layers = (
{
background = {
paths = (
{
closed = 1;
nodes = (
"192 740 LINE",
"522 740 LINE",
"491 606 LINE",
"417 606 LINE",
"307 134 LINE",
"447 134 LINE",
"464 134 LINE",
"489 157 LINE",
"494 174 LINE",
"518 272 LINE",
"683 272 LINE",
"621 0 LINE",
"30 0 LINE",
"61 134 LINE",
"136 134 LINE",
"245 606 LINE",
"161 606 LINE"
);
},
{
closed = 1;
nodes = (
"279 -14 LINE",
"420 -65 LINE",
"324 -230 LINE",
"223 -195 LINE"
);
},
{
closed = 1;
nodes = (
"0 760 LINE",
"643 760 LINE",
"643 0 LINE",
"0 0 LINE"
);
}
);
};
components = (
{
name = L;
},
{
name = commaaccentcomb;
transform = "{1, 0, 0, 1, 278, 0}";
}
);
layerId = "8956C7A5-95B5-4256-B2D2-E489185594C4";
width = 643;
},
{
background = {
paths = (
{
closed = 1;
nodes = (
"192 740 LINE",
"522 740 LINE",
"491 606 LINE",
"417 606 LINE",
"307 134 LINE",
"447 134 LINE",
"464 134 LINE",
"489 157 LINE",
"494 174 LINE",
"518 272 LINE",
"683 272 LINE",
"621 0 LINE",
"30 0 LINE",
"61 134 LINE",
"136 134 LINE",
"245 606 LINE",
"161 606 LINE"
);
},
{
closed = 1;
nodes = (
"279 -14 LINE",
"420 -65 LINE",
"324 -230 LINE",
"223 -195 LINE"
);
},
{
closed = 1;
nodes = (
"0 760 LINE",
"643 760 LINE",
"643 0 LINE",
"0 0 LINE"
);
}
);
};
components = (
{
name = L;
},
{
name = commaaccentcomb;
transform = "{1, 0, 0, 1, 273, 0}";
}
);
layerId = "EEC59083-BA83-4EFB-8B50-D01213A5FD15";
width = 672;
}
);
leftKerningGroup = I;
rightKerningGroup = L;
unicode = 013B;
},
{
color = 6;
glyphname = Lslash;
layers = (
{
anchors = (
{
name = top;
position = "{330, 700}";
}
);
background = {
paths = (
{
closed = 1;
nodes = (
"192 740 LINE",
"522 740 LINE",
"491 606 LINE",
"416 606 LINE",
"395 513 LINE",
"607 613 LINE",
"569 442 LINE",
"355 341 LINE",
"307 134 LINE",
"447 134 LINE",
"464 134 LINE",
"489 157 LINE",
"494 174 LINE",
"518 272 LINE",
"683 272 LINE",
"621 0 LINE",
"30 0 LINE",
"61 134 LINE",
"136 134 LINE",
"163 251 LINE",
"39 193 LINE",
"77 364 LINE",
"203 423 LINE",
"245 606 LINE",
"161 606 LINE"
);
},
{
closed = 1;
nodes = (
"0 760 LINE",
"643 760 LINE",
"643 0 LINE",
"0 0 LINE"
);
}
);
};
layerId = "8956C7A5-95B5-4256-B2D2-E489185594C4";
paths = (
{
closed = 1;
nodes = (
"518 272 LINE",
"494 174 LINE SMOOTH",
"488 151 OFFCURVE",
"470 134 OFFCURVE",
"447 134 CURVE SMOOTH",
"61 134 LINE",
"30 0 LINE",
"621 0 LINE",
"683 272 LINE"
);
},
{
closed = 1;
nodes = (
"39 193 LINE",
"569 442 LINE",
"607 613 LINE",
"77 364 LINE"
);
},
{
closed = 1;
nodes = (
"290 61 LINE",
"430 665 LINE",
"259 665 LINE",
"119 61 LINE"
);
},
{
closed = 1;
nodes = (
"161 606 LINE",
"491 606 LINE",
"522 740 LINE",
"192 740 LINE"
);
}
);
width = 643;
},
{
anchors = (
{
name = top;
position = "{378, 700}";
}
);
background = {
paths = (
{
closed = 1;
nodes = (
"192 740 LINE",
"522 740 LINE",
"491 606 LINE",
"416 606 LINE",
"395 513 LINE",
"607 613 LINE",
"569 442 LINE",
"355 341 LINE",
"307 134 LINE",
"447 134 LINE",
"464 134 LINE",
"489 157 LINE",
"494 174 LINE",
"518 272 LINE",
"683 272 LINE",
"621 0 LINE",
"30 0 LINE",
"61 134 LINE",
"136 134 LINE",
"163 251 LINE",
"39 193 LINE",
"77 364 LINE",
"203 423 LINE",
"245 606 LINE",
"161 606 LINE"
);
},
{
closed = 1;
nodes = (
"0 760 LINE",
"643 760 LINE",
"643 0 LINE",
"0 0 LINE"
);
}
);
};
layerId = "EEC59083-BA83-4EFB-8B50-D01213A5FD15";
paths = (
{
closed = 1;
nodes = (
"541 219 LINE",
"518 123 LINE SMOOTH",
"513 101 OFFCURVE",
"498 84 OFFCURVE",
"470 84 CURVE SMOOTH",
"56 84 LINE",
"37 0 LINE",
"588 0 LINE",
"639 219 LINE"
);
},
{
closed = 1;
nodes = (
"41 222 LINE",
"512 475 LINE",
"539 590 LINE",
"68 337 LINE"
);
},
{
closed = 1;
nodes = (
"216 52 LINE",
"361 684 LINE",
"260 684 LINE",
"114 52 LINE"
);
},
{
closed = 1;
nodes = (
"181 656 LINE",
"421 656 LINE",
"441 740 LINE",
"201 740 LINE"
);
}
);
width = 671;
}
);
leftKerningGroup = I;
rightKerningGroup = L;
unicode = 0141;
},
{
glyphname = M;
layers = (
{
anchors = (
{
name = top;
position = "{452, 700}";
}
);
layerId = "EEC59083-BA83-4EFB-8B50-D01213A5FD15";
paths = (
{
closed = 1;
nodes = (
"37 0 LINE",
"277 0 LINE",
"296 84 LINE",
"216 84 LINE",
"346 646 LINE",
"445 0 LINE",
"558 0 LINE",
"948 647 LINE",
"818 84 LINE",
"754 84 LINE",
"735 0 LINE",
"975 0 LINE",
"994 84 LINE",
"916 84 LINE",
"1048 656 LINE",
"1115 656 LINE",
"1135 740 LINE",
"904 740 LINE",
"521 105 LINE",
"425 740 LINE",
"201 740 LINE",
"181 656 LINE",
"254 656 LINE",
"122 84 LINE",
"56 84 LINE"
);
}
);
width = 1118;
},
{
anchors = (
{
name = top;
position = "{448, 700}";
}
);
layerId = "8956C7A5-95B5-4256-B2D2-E489185594C4";
paths = (
{
closed = 1;
nodes = (
"25 0 LINE",
"324 0 LINE",
"355 134 LINE",
"285 134 LINE",
"382 537 LINE",
"479 9 LINE",
"626 9 LINE",
"957 531 LINE",
"864 134 LINE",
"808 134 LINE",
"777 0 LINE",
"1076 0 LINE",
"1107 134 LINE",
"1034 134 LINE",
"1144 606 LINE",
"1219 606 LINE",
"1250 740 LINE",
"905 740 LINE",
"603 244 LINE",
"514 740 LINE",
"178 740 LINE",
"147 606 LINE",
"232 606 LINE",
"123 134 LINE",
"56 134 LINE"
);
}
);
width = 1175;
}
);
leftKerningGroup = I;
rightKerningGroup = I;
unicode = 004D;
},
{
glyphname = N;
layers = (
{
anchors = (
{
name = bottom;
position = "{398, 0}";
},
{
name = top;
position = "{554, 740}";
}
);
layerId = "EEC59083-BA83-4EFB-8B50-D01213A5FD15";
paths = (
{
closed = 1;
nodes = (
"650 656 LINE",
"722 656 LINE",
"602 132 LINE",
"403 740 LINE",
"200 740 LINE",
"180 656 LINE",
"253 656 LINE",
"121 84 LINE",
"56 84 LINE",
"37 0 LINE",
"277 0 LINE",
"296 84 LINE",
"222 84 LINE",
"343 613 LINE",
"545 0 LINE",
"673 0 LINE",
"823 656 LINE",
"890 656 LINE",
"909 740 LINE",
"669 740 LINE"
);
}
);
width = 872;
},
{
anchors = (
{
name = bottom;
position = "{418, 0}";
},
{
name = top;
position = "{567, 740}";
}
);
layerId = "8956C7A5-95B5-4256-B2D2-E489185594C4";
paths = (
{
closed = 1;
nodes = (
"632 606 LINE",
"697 606 LINE",
"622 283 LINE",
"439 740 LINE",
"187 740 LINE",
"156 606 LINE",
"236 606 LINE",
"127 134 LINE",
"61 134 LINE",
"30 0 LINE",
"329 0 LINE",
"360 134 LINE",
"297 134 LINE",
"372 457 LINE",
"560 0 LINE",
"728 0 LINE",
"868 606 LINE",
"931 606 LINE",
"962 740 LINE",
"663 740 LINE"
);
}
);
width = 872;
}
);
leftKerningGroup = I;
rightKerningGroup = I;
unicode = 004E;
},
{
color = 6;
glyphname = Nacute;
layers = (
{
background = {
paths = (
{
closed = 1;
nodes = (
"663 740 LINE",
"962 740 LINE",
"931 606 LINE",
"868 606 LINE",
"728 0 LINE",
"560 0 LINE",
"372 457 LINE",
"297 134 LINE",
"360 134 LINE",
"329 0 LINE",
"30 0 LINE",
"61 134 LINE",
"127 134 LINE",
"236 606 LINE",
"156 606 LINE",
"187 740 LINE",
"439 740 LINE",
"622 283 LINE",
"697 606 LINE",
"632 606 LINE"
);
},
{
closed = 1;
nodes = (
"594 961 LINE",
"753 961 LINE",
"753 949 LINE",
"604 810 LINE",
"489 810 LINE"
);
},
{
closed = 1;
nodes = (
"0 760 LINE",
"872 760 LINE",
"872 0 LINE",
"0 0 LINE"
);
}
);
};
components = (
{
name = N;
},
{
name = acute;
transform = "{1, 0, 0, 1, 470, 234}";
}
);
layerId = "8956C7A5-95B5-4256-B2D2-E489185594C4";
width = 872;
},
{
background = {
paths = (
{
closed = 1;
nodes = (
"663 740 LINE",
"962 740 LINE",
"931 606 LINE",
"868 606 LINE",
"728 0 LINE",
"560 0 LINE",
"372 457 LINE",
"297 134 LINE",
"360 134 LINE",
"329 0 LINE",
"30 0 LINE",
"61 134 LINE",
"127 134 LINE",
"236 606 LINE",
"156 606 LINE",
"187 740 LINE",
"439 740 LINE",
"622 283 LINE",
"697 606 LINE",
"632 606 LINE"
);
},
{
closed = 1;
nodes = (
"594 961 LINE",
"753 961 LINE",
"753 949 LINE",
"604 810 LINE",
"489 810 LINE"
);
},
{
closed = 1;
nodes = (
"0 760 LINE",
"872 760 LINE",
"872 0 LINE",
"0 0 LINE"
);
}
);
};
components = (
{
name = N;
},
{
name = acute;
transform = "{1, 0, 0, 1, 389, 234}";
}
);
layerId = "EEC59083-BA83-4EFB-8B50-D01213A5FD15";
width = 872;
}
);
leftKerningGroup = I;
rightKerningGroup = N;
unicode = 0143;
},
{
color = 6;
glyphname = Ncaron;
layers = (
{
background = {
paths = (
{
closed = 1;
nodes = (
"663 740 LINE",
"962 740 LINE",
"931 606 LINE",
"868 606 LINE",
"728 0 LINE",
"560 0 LINE",
"372 457 LINE",
"297 134 LINE",
"360 134 LINE",
"329 0 LINE",
"30 0 LINE",
"61 134 LINE",
"127 134 LINE",
"236 606 LINE",
"156 606 LINE",
"187 740 LINE",
"439 740 LINE",
"622 283 LINE",
"697 606 LINE",
"632 606 LINE"
);
},
{
closed = 1;
nodes = (
"801 968 LINE",
"627 810 LINE",
"510 810 LINE",
"414 968 LINE",
"535 968 LINE",
"582 892 LINE",
"666 968 LINE"
);
},
{
closed = 1;
nodes = (
"0 760 LINE",
"872 760 LINE",
"872 0 LINE",
"0 0 LINE"
);
}
);
};
components = (
{
name = N;
},
{
name = caron;
transform = "{1, 0, 0, 1, 327, 234}";
}
);
layerId = "8956C7A5-95B5-4256-B2D2-E489185594C4";
width = 872;
},
{
background = {
paths = (
{
closed = 1;
nodes = (
"663 740 LINE",
"962 740 LINE",
"931 606 LINE",
"868 606 LINE",
"728 0 LINE",
"560 0 LINE",
"372 457 LINE",
"297 134 LINE",
"360 134 LINE",
"329 0 LINE",
"30 0 LINE",
"61 134 LINE",
"127 134 LINE",
"236 606 LINE",
"156 606 LINE",
"187 740 LINE",
"439 740 LINE",
"622 283 LINE",
"697 606 LINE",
"632 606 LINE"
);
},
{
closed = 1;
nodes = (
"801 968 LINE",
"627 810 LINE",
"510 810 LINE",
"414 968 LINE",
"535 968 LINE",
"582 892 LINE",
"666 968 LINE"
);
},
{
closed = 1;
nodes = (
"0 760 LINE",
"872 760 LINE",
"872 0 LINE",
"0 0 LINE"
);
}
);
};
components = (
{
name = N;
},
{
name = caron;
transform = "{1, 0, 0, 1, 288, 234}";
}
);
layerId = "EEC59083-BA83-4EFB-8B50-D01213A5FD15";
width = 872;
}
);
leftKerningGroup = I;
rightKerningGroup = N;
unicode = 0147;
},
{
color = 6;
glyphname = Ncommaaccent;
layers = (
{
background = {
paths = (
{
closed = 1;
nodes = (
"663 740 LINE",
"962 740 LINE",
"931 606 LINE",
"868 606 LINE",
"728 0 LINE",
"560 0 LINE",
"372 457 LINE",
"297 134 LINE",
"360 134 LINE",
"329 0 LINE",
"30 0 LINE",
"61 134 LINE",
"127 134 LINE",
"236 606 LINE",
"156 606 LINE",
"187 740 LINE",
"439 740 LINE",
"622 283 LINE",
"697 606 LINE",
"632 606 LINE"
);
},
{
closed = 1;
nodes = (
"352 -14 LINE",
"493 -65 LINE",
"397 -230 LINE",
"296 -195 LINE"
);
},
{
closed = 1;
nodes = (
"0 760 LINE",
"872 760 LINE",
"872 0 LINE",
"0 0 LINE"
);
}
);
};
components = (
{
name = N;
},
{
name = commaaccentcomb;
transform = "{1, 0, 0, 1, 372, 0}";
}
);
layerId = "8956C7A5-95B5-4256-B2D2-E489185594C4";
width = 872;
},
{
background = {
paths = (
{
closed = 1;
nodes = (
"663 740 LINE",
"962 740 LINE",
"931 606 LINE",
"868 606 LINE",
"728 0 LINE",
"560 0 LINE",
"372 457 LINE",
"297 134 LINE",
"360 134 LINE",
"329 0 LINE",
"30 0 LINE",
"61 134 LINE",
"127 134 LINE",
"236 606 LINE",
"156 606 LINE",
"187 740 LINE",
"439 740 LINE",
"622 283 LINE",
"697 606 LINE",
"632 606 LINE"
);
},
{
closed = 1;
nodes = (
"352 -14 LINE",
"493 -65 LINE",
"397 -230 LINE",
"296 -195 LINE"
);
},
{
closed = 1;
nodes = (
"0 760 LINE",
"872 760 LINE",
"872 0 LINE",
"0 0 LINE"
);
}
);
};
components = (
{
name = N;
},
{
name = commaaccentcomb;
transform = "{1, 0, 0, 1, 353, 0}";
}
);
layerId = "EEC59083-BA83-4EFB-8B50-D01213A5FD15";
width = 872;
}
);
leftKerningGroup = I;
rightKerningGroup = N;
unicode = 0145;
},
{
glyphname = O;
layers = (
{
anchors = (
{
name = top;
position = "{460, 740}";
}
);
layerId = "EEC59083-BA83-4EFB-8B50-D01213A5FD15";
paths = (
{
closed = 1;
nodes = (
"585 -15 OFFCURVE",
"767 168 OFFCURVE",
"767 430 CURVE SMOOTH",
"767 635 OFFCURVE",
"623 754 OFFCURVE",
"456 754 CURVE SMOOTH",
"226 754 OFFCURVE",
"37 575 OFFCURVE",
"37 320 CURVE SMOOTH",
"37 117 OFFCURVE",
"181 -15 OFFCURVE",
"348 -15 CURVE SMOOTH"
);
},
{
closed = 1;
nodes = (
"235 84 OFFCURVE",
"146 189 OFFCURVE",
"146 328 CURVE SMOOTH",
"146 517 OFFCURVE",
"284 655 OFFCURVE",
"445 655 CURVE SMOOTH",
"569 655 OFFCURVE",
"658 564 OFFCURVE",
"658 422 CURVE SMOOTH",
"658 231 OFFCURVE",
"528 84 OFFCURVE",
"359 84 CURVE SMOOTH"
);
}
);
width = 770;
},
{
anchors = (
{
name = top;
position = "{500, 740}";
}
);
layerId = "8956C7A5-95B5-4256-B2D2-E489185594C4";
paths = (
{
closed = 1;
nodes = (
"603 -15 OFFCURVE",
"810 170 OFFCURVE",
"810 441 CURVE SMOOTH",
"810 626 OFFCURVE",
"690 754 OFFCURVE",
"505 754 CURVE SMOOTH",
"283 754 OFFCURVE",
"60 574 OFFCURVE",
"60 297 CURVE SMOOTH",
"60 111 OFFCURVE",
"188 -15 OFFCURVE",
"365 -15 CURVE SMOOTH"
);
},
{
closed = 1;
nodes = (
"294 149 OFFCURVE",
"237 216 OFFCURVE",
"237 313 CURVE SMOOTH",
"237 457 OFFCURVE",
"351 590 OFFCURVE",
"484 590 CURVE SMOOTH",
"575 590 OFFCURVE",
"631 523 OFFCURVE",
"631 426 CURVE SMOOTH",
"631 281 OFFCURVE",
"515 149 OFFCURVE",
"384 149 CURVE SMOOTH"
);
}
);
width = 780;
}
);
leftKerningGroup = O;
rightKerningGroup = O;
unicode = 004F;
},
{
color = 6;
glyphname = Ohungarumlaut;
layers = (
{
background = {
paths = (
{
closed = 1;
nodes = (
"365 -15 LINE",
"299 -15 LINE",
"187 30 LINE",
"105 112 LINE",
"60 227 LINE",
"60 297 LINE",
"60 366 LINE",
"95 488 LINE",
"157 589 LINE",
"242 669 LINE",
"340 725 LINE",
"449 754 LINE",
"505 754 LINE",
"574 754 LINE",
"687 708 LINE",
"767 625 LINE",
"810 510 LINE",
"810 441 LINE",
"810 373 LINE",
"777 253 LINE",
"718 151 LINE",
"636 71 LINE",
"537 15 LINE",
"425 -15 LINE"
);
},
{
closed = 1;
nodes = (
"384 149 LINE",
"417 149 LINE",
"479 170 LINE",
"534 207 LINE",
"580 259 LINE",
"612 320 LINE",
"631 390 LINE",
"631 426 LINE",
"631 462 LINE",
"611 522 LINE",
"573 566 LINE",
"518 590 LINE",
"484 590 LINE",
"434 590 LINE",
"344 544 LINE",
"277 467 LINE",
"237 367 LINE",
"237 313 LINE",
"237 276 LINE",
"257 216 LINE",
"296 173 LINE",
"350 149 LINE"
);
},
{
closed = 1;
nodes = (
"891 993 LINE",
"754 837 LINE",
"662 837 LINE",
"764 993 LINE"
);
},
{
closed = 1;
nodes = (
"697 993 LINE",
"572 837 LINE",
"481 837 LINE",
"571 993 LINE"
);
},
{
closed = 1;
nodes = (
"0 760 LINE",
"780 760 LINE",
"780 0 LINE",
"0 0 LINE"
);
}
);
};
components = (
{
name = O;
},
{
name = hungarumlautcomb;
transform = "{1, 0, 0, 1, 315, 234}";
}
);
layerId = "8956C7A5-95B5-4256-B2D2-E489185594C4";
width = 780;
},
{
background = {
paths = (
{
closed = 1;
nodes = (
"365 -15 LINE",
"299 -15 LINE",
"187 30 LINE",
"105 112 LINE",
"60 227 LINE",
"60 297 LINE",
"60 366 LINE",
"95 488 LINE",
"157 589 LINE",
"242 669 LINE",
"340 725 LINE",
"449 754 LINE",
"505 754 LINE",
"574 754 LINE",
"687 708 LINE",
"767 625 LINE",
"810 510 LINE",
"810 441 LINE",
"810 373 LINE",
"777 253 LINE",
"718 151 LINE",
"636 71 LINE",
"537 15 LINE",
"425 -15 LINE"
);
},
{
closed = 1;
nodes = (
"384 149 LINE",
"417 149 LINE",
"479 170 LINE",
"534 207 LINE",
"580 259 LINE",
"612 320 LINE",
"631 390 LINE",
"631 426 LINE",
"631 462 LINE",
"611 522 LINE",
"573 566 LINE",
"518 590 LINE",
"484 590 LINE",
"434 590 LINE",
"344 544 LINE",
"277 467 LINE",
"237 367 LINE",
"237 313 LINE",
"237 276 LINE",
"257 216 LINE",
"296 173 LINE",
"350 149 LINE"
);
},
{
closed = 1;
nodes = (
"891 993 LINE",
"754 837 LINE",
"662 837 LINE",
"764 993 LINE"
);
},
{
closed = 1;
nodes = (
"697 993 LINE",
"572 837 LINE",
"481 837 LINE",
"571 993 LINE"
);
},
{
closed = 1;
nodes = (
"0 760 LINE",
"780 760 LINE",
"780 0 LINE",
"0 0 LINE"
);
}
);
};
components = (
{
name = O;
},
{
name = hungarumlautcomb;
transform = "{1, 0, 0, 1, 349, 234}";
}
);
layerId = "EEC59083-BA83-4EFB-8B50-D01213A5FD15";
width = 770;
}
);
leftKerningGroup = O;
rightKerningGroup = O;
unicode = 0150;
},
{
color = 6;
glyphname = Omacron;
layers = (
{
background = {
paths = (
{
closed = 1;
nodes = (
"365 -15 LINE",
"299 -15 LINE",
"187 30 LINE",
"105 112 LINE",
"60 227 LINE",
"60 297 LINE",
"60 366 LINE",
"95 488 LINE",
"157 589 LINE",
"242 669 LINE",
"340 725 LINE",
"449 754 LINE",
"505 754 LINE",
"574 754 LINE",
"687 708 LINE",
"767 625 LINE",
"810 510 LINE",
"810 441 LINE",
"810 373 LINE",
"777 253 LINE",
"718 151 LINE",
"636 71 LINE",
"537 15 LINE",
"425 -15 LINE"
);
},
{
closed = 1;
nodes = (
"384 149 LINE",
"417 149 LINE",
"479 170 LINE",
"534 207 LINE",
"580 259 LINE",
"612 320 LINE",
"631 390 LINE",
"631 426 LINE",
"631 462 LINE",
"611 522 LINE",
"573 566 LINE",
"518 590 LINE",
"484 590 LINE",
"434 590 LINE",
"344 544 LINE",
"277 467 LINE",
"237 367 LINE",
"237 313 LINE",
"237 276 LINE",
"257 216 LINE",
"296 173 LINE",
"350 149 LINE"
);
},
{
closed = 1;
nodes = (
"722 828 LINE",
"386 828 LINE",
"386 933 LINE",
"722 933 LINE"
);
},
{
closed = 1;
nodes = (
"0 760 LINE",
"780 760 LINE",
"780 0 LINE",
"0 0 LINE"
);
}
);
};
components = (
{
name = O;
},
{
name = macroncomb;
transform = "{1, 0, 0, 1, 274, 234}";
}
);
layerId = "8956C7A5-95B5-4256-B2D2-E489185594C4";
width = 780;
},
{
background = {
paths = (
{
closed = 1;
nodes = (
"365 -15 LINE",
"299 -15 LINE",
"187 30 LINE",
"105 112 LINE",
"60 227 LINE",
"60 297 LINE",
"60 366 LINE",
"95 488 LINE",
"157 589 LINE",
"242 669 LINE",
"340 725 LINE",
"449 754 LINE",
"505 754 LINE",
"574 754 LINE",
"687 708 LINE",
"767 625 LINE",
"810 510 LINE",
"810 441 LINE",
"810 373 LINE",
"777 253 LINE",
"718 151 LINE",
"636 71 LINE",
"537 15 LINE",
"425 -15 LINE"
);
},
{
closed = 1;
nodes = (
"384 149 LINE",
"417 149 LINE",
"479 170 LINE",
"534 207 LINE",
"580 259 LINE",
"612 320 LINE",
"631 390 LINE",
"631 426 LINE",
"631 462 LINE",
"611 522 LINE",
"573 566 LINE",
"518 590 LINE",
"484 590 LINE",
"434 590 LINE",
"344 544 LINE",
"277 467 LINE",
"237 367 LINE",
"237 313 LINE",
"237 276 LINE",
"257 216 LINE",
"296 173 LINE",
"350 149 LINE"
);
},
{
closed = 1;
nodes = (
"722 828 LINE",
"386 828 LINE",
"386 933 LINE",
"722 933 LINE"
);
},
{
closed = 1;
nodes = (
"0 760 LINE",
"780 760 LINE",
"780 0 LINE",
"0 0 LINE"
);
}
);
};
components = (
{
name = O;
},
{
name = macroncomb;
transform = "{1, 0, 0, 1, 215, 234}";
}
);
layerId = "EEC59083-BA83-4EFB-8B50-D01213A5FD15";
width = 770;
}
);
leftKerningGroup = O;
rightKerningGroup = O;
unicode = 014C;
},
{
color = 6;
glyphname = OE;
layers = (
{
background = {
paths = (
{
closed = 1;
nodes = (
"360 0 LINE",
"291 0 LINE",
"180 50 LINE",
"102 134 LINE",
"60 247 LINE",
"60 310 LINE",
"60 399 LINE",
"130 555 LINE",
"251 672 LINE",
"415 740 LINE",
"509 740 LINE",
"1115 740 LINE",
"1057 488 LINE",
"886 488 LINE",
"913 605 LINE",
"713 605 LINE",
"676 447 LINE",
"825 447 LINE",
"790 305 LINE",
"643 305 LINE",
"604 134 LINE",
"791 134 LINE",
"821 265 LINE",
"993 265 LINE",
"932 0 LINE"
);
},
{
closed = 1;
nodes = (
"235 327 LINE",
"235 288 LINE",
"256 218 LINE",
"293 165 LINE",
"347 134 LINE",
"380 134 LINE",
"442 134 LINE",
"551 606 LINE",
"507 606 LINE",
"457 606 LINE",
"360 563 LINE",
"283 487 LINE",
"235 385 LINE"
);
},
{
closed = 1;
nodes = (
"0 760 LINE",
"1030 760 LINE",
"1030 0 LINE",
"0 0 LINE"
);
}
);
};
layerId = "8956C7A5-95B5-4256-B2D2-E489185594C4";
paths = (
{
closed = 1;
nodes = (
"932 0 LINE",
"993 265 LINE",
"821 265 LINE",
"791 134 LINE",
"380 134 LINE SMOOTH",
"292 134 OFFCURVE",
"235 224 OFFCURVE",
"235 327 CURVE SMOOTH",
"235 483 OFFCURVE",
"375 606 OFFCURVE",
"507 606 CURVE SMOOTH",
"913 605 LINE",
"886 488 LINE",
"1057 488 LINE",
"1115 740 LINE",
"509 740 LINE SMOOTH",
"259 740 OFFCURVE",
"60 547 OFFCURVE",
"60 310 CURVE SMOOTH",
"60 142 OFFCURVE",
"175 0 OFFCURVE",
"360 0 CURVE SMOOTH"
);
},
{
closed = 1;
nodes = (
"587 61 LINE",
"727 665 LINE",
"565 665 LINE",
"425 61 LINE"
);
},
{
closed = 1;
nodes = (
"530 305 LINE",
"790 305 LINE",
"825 447 LINE",
"563 447 LINE"
);
}
);
width = 1030;
},
{
background = {
paths = (
{
closed = 1;
nodes = (
"360 0 LINE",
"291 0 LINE",
"180 50 LINE",
"102 134 LINE",
"60 247 LINE",
"60 310 LINE",
"60 399 LINE",
"130 555 LINE",
"251 672 LINE",
"415 740 LINE",
"509 740 LINE",
"1115 740 LINE",
"1057 488 LINE",
"886 488 LINE",
"913 605 LINE",
"713 605 LINE",
"676 447 LINE",
"825 447 LINE",
"790 305 LINE",
"643 305 LINE",
"604 134 LINE",
"791 134 LINE",
"821 265 LINE",
"993 265 LINE",
"932 0 LINE"
);
},
{
closed = 1;
nodes = (
"235 327 LINE",
"235 288 LINE",
"256 218 LINE",
"293 165 LINE",
"347 134 LINE",
"380 134 LINE",
"442 134 LINE",
"551 606 LINE",
"507 606 LINE",
"457 606 LINE",
"360 563 LINE",
"283 487 LINE",
"235 385 LINE"
);
},
{
closed = 1;
nodes = (
"0 760 LINE",
"1030 760 LINE",
"1030 0 LINE",
"0 0 LINE"
);
}
);
};
layerId = "EEC59083-BA83-4EFB-8B50-D01213A5FD15";
paths = (
{
closed = 1;
nodes = (
"888 0 LINE",
"937 211 LINE",
"835 211 LINE",
"805 84 LINE",
"345 84 LINE SMOOTH",
"215 84 OFFCURVE",
"141 189 OFFCURVE",
"141 320 CURVE SMOOTH",
"141 507 OFFCURVE",
"308 656 OFFCURVE",
"467 656 CURVE SMOOTH",
"937 656 LINE",
"909 529 LINE",
"1009 529 LINE",
"1057 740 LINE",
"479 740 LINE SMOOTH",
"245 740 OFFCURVE",
"37 549 OFFCURVE",
"37 312 CURVE SMOOTH",
"37 145 OFFCURVE",
"150 0 OFFCURVE",
"336 0 CURVE SMOOTH"
);
},
{
closed = 1;
nodes = (
"537 51 LINE",
"683 685 LINE",
"587 685 LINE",
"441 51 LINE"
);
},
{
closed = 1;
nodes = (
"560 335 LINE",
"824 335 LINE",
"844 419 LINE",
"580 419 LINE"
);
}
);
width = 1009;
}
);
leftKerningGroup = O;
rightKerningGroup = E;
unicode = 0152;
},
{
glyphname = P;
layers = (
{
layerId = "EEC59083-BA83-4EFB-8B50-D01213A5FD15";
paths = (
{
closed = 1;
nodes = (
"180 656 LINE",
"252 656 LINE",
"120 84 LINE",
"56 84 LINE",
"37 0 LINE",
"277 0 LINE",
"296 84 LINE",
"222 84 LINE",
"276 321 LINE",
"397 321 LINE SMOOTH",
"585 321 OFFCURVE",
"688 421 OFFCURVE",
"688 555 CURVE SMOOTH",
"688 657 OFFCURVE",
"610 740 OFFCURVE",
"497 740 CURVE SMOOTH",
"200 740 LINE"
);
},
{
closed = 1;
nodes = (
"469 656 LINE",
"550 656 OFFCURVE",
"585 604 OFFCURVE",
"585 549 CURVE SMOOTH",
"585 456 OFFCURVE",
"514 405 OFFCURVE",
"408 405 CURVE SMOOTH",
"296 405 LINE",
"353 656 LINE"
);
}
);
width = 661;
},
{
layerId = "8956C7A5-95B5-4256-B2D2-E489185594C4";
paths = (
{
closed = 1;
nodes = (
"161 606 LINE",
"246 606 LINE",
"137 134 LINE",
"61 134 LINE",
"30 0 LINE",
"360 0 LINE",
"391 134 LINE",
"308 134 LINE",
"340 275 LINE",
"428 275 LINE SMOOTH",
"664 275 OFFCURVE",
"751 398 OFFCURVE",
"751 541 CURVE SMOOTH",
"751 653 OFFCURVE",
"672 740 OFFCURVE",
"536 740 CURVE SMOOTH",
"192 740 LINE"
);
},
{
closed = 1;
nodes = (
"469 606 LINE",
"536 606 OFFCURVE",
"570 574 OFFCURVE",
"570 525 CURVE SMOOTH",
"570 445 OFFCURVE",
"511 407 OFFCURVE",
"423 407 CURVE SMOOTH",
"371 407 LINE",
"417 606 LINE"
);
}
);
width = 661;
}
);
leftKerningGroup = I;
rightKerningGroup = P;
unicode = 0050;
},
{
glyphname = Thorn;
layers = (
{
layerId = "EEC59083-BA83-4EFB-8B50-D01213A5FD15";
paths = (
{
closed = 1;
nodes = (
"277 0 LINE",
"296 84 LINE",
"228 84 LINE",
"252 189 LINE",
"407 189 LINE SMOOTH",
"571 189 OFFCURVE",
"675 286 OFFCURVE",
"675 422 CURVE SMOOTH",
"675 528 OFFCURVE",
"592 590 OFFCURVE",
"477 590 CURVE SMOOTH",
"344 590 LINE",
"359 656 LINE",
"428 656 LINE",
"448 740 LINE",
"208 740 LINE",
"188 656 LINE",
"258 656 LINE",
"126 84 LINE",
"56 84 LINE",
"37 0 LINE"
);
},
{
closed = 1;
nodes = (
"325 506 LINE",
"456 506 LINE",
"537 506 OFFCURVE",
"572 469 OFFCURVE",
"572 414 CURVE SMOOTH",
"572 321 OFFCURVE",
"503 273 OFFCURVE",
"414 273 CURVE SMOOTH",
"271 273 LINE"
);
}
);
width = 679;
},
{
guideLines = (
{
position = "{376, 294}";
},
{
position = "{405, 160}";
},
{
position = "{99, 134}";
},
{
angle = 180;
position = "{204, 606}";
}
);
layerId = "8956C7A5-95B5-4256-B2D2-E489185594C4";
paths = (
{
closed = 1;
nodes = (
"277 0 LINE",
"308 134 LINE",
"308 134 LINE",
"314 162 LINE",
"403 162 LINE SMOOTH",
"573 162 OFFCURVE",
"719 241 OFFCURVE",
"719 395 CURVE SMOOTH",
"719 504 OFFCURVE",
"638 586 OFFCURVE",
"503 586 CURVE SMOOTH",
"413 586 LINE",
"418 606 LINE",
"418 606 LINE",
"448 740 LINE",
"192 740 LINE",
"161 606 LINE",
"246 606 LINE",
"137 134 LINE",
"61 134 LINE",
"30 0 LINE"
);
},
{
closed = 1;
nodes = (
"381 452 LINE",
"441 452 LINE",
"510 452 OFFCURVE",
"540 427 OFFCURVE",
"540 386 CURVE SMOOTH",
"540 317 OFFCURVE",
"485 294 OFFCURVE",
"407 294 CURVE SMOOTH",
"345 294 LINE"
);
}
);
width = 660;
}
);
leftKerningGroup = I;
rightKerningGroup = P;
rightMetricsKey = P;
unicode = 00DE;
},
{
glyphname = Q;
layers = (
{
anchors = (
{
name = top;
position = "{272, 700}";
}
);
layerId = "EEC59083-BA83-4EFB-8B50-D01213A5FD15";
paths = (
{
closed = 1;
nodes = (
"273 -99 LINE",
"279 -97 OFFCURVE",
"289 -95 OFFCURVE",
"298 -94 CURVE SMOOTH",
"372 -82 OFFCURVE",
"412 -159 OFFCURVE",
"509 -159 CURVE SMOOTH",
"571 -159 OFFCURVE",
"654 -122 OFFCURVE",
"687 -49 CURVE",
"621 -15 LINE",
"603 -53 OFFCURVE",
"566 -72 OFFCURVE",
"529 -72 CURVE",
"464 -72 OFFCURVE",
"438 -31 OFFCURVE",
"383 -14 CURVE",
"603 3 OFFCURVE",
"767 181 OFFCURVE",
"767 430 CURVE SMOOTH",
"767 635 OFFCURVE",
"623 754 OFFCURVE",
"456 754 CURVE SMOOTH",
"226 754 OFFCURVE",
"37 575 OFFCURVE",
"37 320 CURVE SMOOTH",
"37 139 OFFCURVE",
"151 15 OFFCURVE",
"293 -10 CURVE"
);
},
{
closed = 1;
nodes = (
"235 84 OFFCURVE",
"146 189 OFFCURVE",
"146 328 CURVE SMOOTH",
"146 517 OFFCURVE",
"284 655 OFFCURVE",
"445 655 CURVE SMOOTH",
"569 655 OFFCURVE",
"658 564 OFFCURVE",
"658 422 CURVE SMOOTH",
"658 231 OFFCURVE",
"528 84 OFFCURVE",
"359 84 CURVE SMOOTH"
);
}
);
width = 761;
},
{
anchors = (
{
name = top;
position = "{298, 700}";
}
);
layerId = "8956C7A5-95B5-4256-B2D2-E489185594C4";
paths = (
{
closed = 1;
nodes = (
"274 -129 LINE",
"290 -124 OFFCURVE",
"300 -123 OFFCURVE",
"316 -123 CURVE SMOOTH",
"391 -123 OFFCURVE",
"447 -193 OFFCURVE",
"521 -193 CURVE SMOOTH",
"616 -193 OFFCURVE",
"710 -131 OFFCURVE",
"743 -36 CURVE",
"646 18 LINE",
"627 -32 OFFCURVE",
"583 -52 OFFCURVE",
"543 -52 CURVE",
"500 -51 OFFCURVE",
"468 -26 OFFCURVE",
"430 -9 CURVE",
"635 25 OFFCURVE",
"800 199 OFFCURVE",
"800 441 CURVE SMOOTH",
"800 626 OFFCURVE",
"680 754 OFFCURVE",
"495 754 CURVE SMOOTH",
"273 754 OFFCURVE",
"50 574 OFFCURVE",
"50 297 CURVE SMOOTH",
"50 130 OFFCURVE",
"153 11 OFFCURVE",
"302 -11 CURVE"
);
},
{
closed = 1;
nodes = (
"284 149 OFFCURVE",
"227 216 OFFCURVE",
"227 313 CURVE SMOOTH",
"227 457 OFFCURVE",
"341 590 OFFCURVE",
"474 590 CURVE SMOOTH",
"565 590 OFFCURVE",
"621 523 OFFCURVE",
"621 426 CURVE SMOOTH",
"621 281 OFFCURVE",
"505 149 OFFCURVE",
"374 149 CURVE SMOOTH"
);
}
);
width = 760;
}
);
leftKerningGroup = O;
rightKerningGroup = O;
unicode = 0051;
},
{
glyphname = R;
layers = (
{
anchors = (
{
name = bottom;
position = "{323, 0}";
},
{
name = top;
position = "{451, 740}";
}
);
layerId = "EEC59083-BA83-4EFB-8B50-D01213A5FD15";
paths = (
{
closed = 1;
nodes = (
"180 656 LINE",
"253 656 LINE",
"121 84 LINE",
"56 84 LINE",
"37 0 LINE",
"277 0 LINE",
"296 84 LINE",
"223 84 LINE",
"282 343 LINE",
"362 343 LINE SMOOTH",
"434 343 OFFCURVE",
"470 306 OFFCURVE",
"471 225 CURVE SMOOTH",
"474 0 LINE",
"617 0 LINE",
"636 84 LINE",
"573 84 LINE",
"570 254 LINE SMOOTH",
"569 304 OFFCURVE",
"549 342 OFFCURVE",
"523 360 CURVE",
"612 388 OFFCURVE",
"689 461 OFFCURVE",
"689 567 CURVE SMOOTH",
"689 669 OFFCURVE",
"614 740 OFFCURVE",
"501 740 CURVE SMOOTH",
"200 740 LINE"
);
},
{
closed = 1;
nodes = (
"469 656 LINE",
"550 656 OFFCURVE",
"586 617 OFFCURVE",
"586 562 CURVE SMOOTH",
"586 469 OFFCURVE",
"515 425 OFFCURVE",
"417 425 CURVE SMOOTH",
"301 425 LINE",
"354 656 LINE"
);
}
);
width = 702;
},
{
anchors = (
{
name = bottom;
position = "{324, 0}";
},
{
name = top;
position = "{485, 740}";
}
);
layerId = "8956C7A5-95B5-4256-B2D2-E489185594C4";
paths = (
{
closed = 1;
nodes = (
"151 606 LINE",
"236 606 LINE",
"126 134 LINE",
"61 134 LINE",
"30 0 LINE",
"329 0 LINE",
"360 134 LINE",
"297 134 LINE",
"335 295 LINE",
"382 295 LINE SMOOTH",
"461 295 OFFCURVE",
"488 260 OFFCURVE",
"482 176 CURVE SMOOTH",
"470 0 LINE",
"690 0 LINE",
"721 134 LINE",
"651 134 LINE",
"648 240 LINE SMOOTH",
"646 287 OFFCURVE",
"632 318 OFFCURVE",
"611 337 CURVE",
"718 382 OFFCURVE",
"764 447 OFFCURVE",
"764 551 CURVE SMOOTH",
"764 644 OFFCURVE",
"707 740 OFFCURVE",
"576 740 CURVE SMOOTH",
"182 740 LINE"
);
},
{
closed = 1;
nodes = (
"504 606 LINE",
"567 606 OFFCURVE",
"592 576 OFFCURVE",
"592 530 CURVE SMOOTH",
"592 459 OFFCURVE",
"539 427 OFFCURVE",
"458 427 CURVE SMOOTH",
"365 427 LINE",
"407 606 LINE"
);
}
);
width = 724;
}
);
leftKerningGroup = I;
rightKerningGroup = R;
unicode = 0052;
},
{
color = 6;
glyphname = Racute;
layers = (
{
background = {
paths = (
{
closed = 1;
nodes = (
"182 740 LINE",
"576 740 LINE",
"625 740 LINE",
"696 707 LINE",
"742 654 LINE",
"764 586 LINE",
"764 551 LINE",
"764 503 LINE",
"737 428 LINE",
"679 369 LINE",
"624 342 LINE",
"612 336 LINE",
"617 332 LINE",
"633 312 LINE",
"647 270 LINE",
"648 240 LINE",
"651 134 LINE",
"721 134 LINE",
"690 0 LINE",
"470 0 LINE",
"482 176 LINE",
"484 207 LINE",
"476 252 LINE",
"452 281 LINE",
"412 295 LINE",
"382 295 LINE",
"335 295 LINE",
"297 134 LINE",
"360 134 LINE",
"329 0 LINE",
"30 0 LINE",
"61 134 LINE",
"126 134 LINE",
"236 606 LINE",
"151 606 LINE"
);
},
{
closed = 1;
nodes = (
"407 606 LINE",
"365 427 LINE",
"458 427 LINE",
"488 427 LINE",
"538 439 LINE",
"573 464 LINE",
"592 503 LINE",
"592 530 LINE",
"592 564 LINE",
"551 606 LINE",
"504 606 LINE"
);
},
{
closed = 1;
nodes = (
"516 961 LINE",
"675 961 LINE",
"675 949 LINE",
"526 809 LINE",
"411 809 LINE"
);
},
{
closed = 1;
nodes = (
"0 760 LINE",
"724 760 LINE",
"724 0 LINE",
"0 0 LINE"
);
}
);
};
components = (
{
name = R;
},
{
name = acutecomb;
transform = "{1, 0, 0, 1, 388, 234}";
}
);
layerId = "8956C7A5-95B5-4256-B2D2-E489185594C4";
width = 724;
},
{
background = {
paths = (
{
closed = 1;
nodes = (
"182 740 LINE",
"576 740 LINE",
"625 740 LINE",
"696 707 LINE",
"742 654 LINE",
"764 586 LINE",
"764 551 LINE",
"764 503 LINE",
"737 428 LINE",
"679 369 LINE",
"624 342 LINE",
"612 336 LINE",
"617 332 LINE",
"633 312 LINE",
"647 270 LINE",
"648 240 LINE",
"651 134 LINE",
"721 134 LINE",
"690 0 LINE",
"470 0 LINE",
"482 176 LINE",
"484 207 LINE",
"476 252 LINE",
"452 281 LINE",
"412 295 LINE",
"382 295 LINE",
"335 295 LINE",
"297 134 LINE",
"360 134 LINE",
"329 0 LINE",
"30 0 LINE",
"61 134 LINE",
"126 134 LINE",
"236 606 LINE",
"151 606 LINE"
);
},
{
closed = 1;
nodes = (
"407 606 LINE",
"365 427 LINE",
"458 427 LINE",
"488 427 LINE",
"538 439 LINE",
"573 464 LINE",
"592 503 LINE",
"592 530 LINE",
"592 564 LINE",
"551 606 LINE",
"504 606 LINE"
);
},
{
closed = 1;
nodes = (
"516 961 LINE",
"675 961 LINE",
"675 949 LINE",
"526 809 LINE",
"411 809 LINE"
);
},
{
closed = 1;
nodes = (
"0 760 LINE",
"724 760 LINE",
"724 0 LINE",
"0 0 LINE"
);
}
);
};
components = (
{
name = R;
},
{
name = acute;
transform = "{1, 0, 0, 1, 286, 234}";
}
);
layerId = "EEC59083-BA83-4EFB-8B50-D01213A5FD15";
width = 702;
}
);
leftKerningGroup = I;
rightKerningGroup = R;
unicode = 0154;
},
{
color = 6;
glyphname = Rcaron;
layers = (
{
background = {
paths = (
{
closed = 1;
nodes = (
"182 740 LINE",
"576 740 LINE",
"625 740 LINE",
"696 707 LINE",
"742 654 LINE",
"764 586 LINE",
"764 551 LINE",
"764 503 LINE",
"737 428 LINE",
"679 369 LINE",
"624 342 LINE",
"612 336 LINE",
"617 332 LINE",
"633 312 LINE",
"647 270 LINE",
"648 240 LINE",
"651 134 LINE",
"721 134 LINE",
"690 0 LINE",
"470 0 LINE",
"482 176 LINE",
"484 207 LINE",
"476 252 LINE",
"452 281 LINE",
"412 295 LINE",
"382 295 LINE",
"335 295 LINE",
"297 134 LINE",
"360 134 LINE",
"329 0 LINE",
"30 0 LINE",
"61 134 LINE",
"126 134 LINE",
"236 606 LINE",
"151 606 LINE"
);
},
{
closed = 1;
nodes = (
"407 606 LINE",
"365 427 LINE",
"458 427 LINE",
"488 427 LINE",
"538 439 LINE",
"573 464 LINE",
"592 503 LINE",
"592 530 LINE",
"592 564 LINE",
"551 606 LINE",
"504 606 LINE"
);
},
{
closed = 1;
nodes = (
"723 968 LINE",
"549 809 LINE",
"432 809 LINE",
"336 968 LINE",
"457 968 LINE",
"504 891 LINE",
"588 968 LINE"
);
},
{
closed = 1;
nodes = (
"0 760 LINE",
"724 760 LINE",
"724 0 LINE",
"0 0 LINE"
);
}
);
};
components = (
{
name = R;
},
{
name = caron;
transform = "{1, 0, 0, 1, 245, 234}";
}
);
layerId = "8956C7A5-95B5-4256-B2D2-E489185594C4";
width = 724;
},
{
background = {
paths = (
{
closed = 1;
nodes = (
"182 740 LINE",
"576 740 LINE",
"625 740 LINE",
"696 707 LINE",
"742 654 LINE",
"764 586 LINE",
"764 551 LINE",
"764 503 LINE",
"737 428 LINE",
"679 369 LINE",
"624 342 LINE",
"612 336 LINE",
"617 332 LINE",
"633 312 LINE",
"647 270 LINE",
"648 240 LINE",
"651 134 LINE",
"721 134 LINE",
"690 0 LINE",
"470 0 LINE",
"482 176 LINE",
"484 207 LINE",
"476 252 LINE",
"452 281 LINE",
"412 295 LINE",
"382 295 LINE",
"335 295 LINE",
"297 134 LINE",
"360 134 LINE",
"329 0 LINE",
"30 0 LINE",
"61 134 LINE",
"126 134 LINE",
"236 606 LINE",
"151 606 LINE"
);
},
{
closed = 1;
nodes = (
"407 606 LINE",
"365 427 LINE",
"458 427 LINE",
"488 427 LINE",
"538 439 LINE",
"573 464 LINE",
"592 503 LINE",
"592 530 LINE",
"592 564 LINE",
"551 606 LINE",
"504 606 LINE"
);
},
{
closed = 1;
nodes = (
"723 968 LINE",
"549 809 LINE",
"432 809 LINE",
"336 968 LINE",
"457 968 LINE",
"504 891 LINE",
"588 968 LINE"
);
},
{
closed = 1;
nodes = (
"0 760 LINE",
"724 760 LINE",
"724 0 LINE",
"0 0 LINE"
);
}
);
};
components = (
{
name = R;
},
{
name = caron;
transform = "{1, 0, 0, 1, 185, 234}";
}
);
layerId = "EEC59083-BA83-4EFB-8B50-D01213A5FD15";
width = 702;
}
);
leftKerningGroup = I;
rightKerningGroup = R;
unicode = 0158;
},
{
color = 6;
glyphname = Rcommaaccent;
layers = (
{
background = {
paths = (
{
closed = 1;
nodes = (
"182 740 LINE",
"576 740 LINE",
"625 740 LINE",
"696 707 LINE",
"742 654 LINE",
"764 586 LINE",
"764 551 LINE",
"764 503 LINE",
"737 428 LINE",
"679 369 LINE",
"624 342 LINE",
"612 336 LINE",
"617 332 LINE",
"633 312 LINE",
"647 270 LINE",
"648 240 LINE",
"651 134 LINE",
"721 134 LINE",
"690 0 LINE",
"470 0 LINE",
"482 176 LINE",
"484 207 LINE",
"476 252 LINE",
"452 281 LINE",
"412 295 LINE",
"382 295 LINE",
"335 295 LINE",
"297 134 LINE",
"360 134 LINE",
"329 0 LINE",
"30 0 LINE",
"61 134 LINE",
"126 134 LINE",
"236 606 LINE",
"151 606 LINE"
);
},
{
closed = 1;
nodes = (
"407 606 LINE",
"365 427 LINE",
"458 427 LINE",
"488 427 LINE",
"538 439 LINE",
"573 464 LINE",
"592 503 LINE",
"592 530 LINE",
"592 564 LINE",
"551 606 LINE",
"504 606 LINE"
);
},
{
closed = 1;
nodes = (
"319 -14 LINE",
"460 -65 LINE",
"364 -230 LINE",
"263 -195 LINE"
);
},
{
closed = 1;
nodes = (
"0 760 LINE",
"724 760 LINE",
"724 0 LINE",
"0 0 LINE"
);
}
);
};
components = (
{
name = R;
},
{
name = commaaccentcomb;
transform = "{1, 0, 0, 1, 278, 0}";
}
);
layerId = "8956C7A5-95B5-4256-B2D2-E489185594C4";
width = 724;
},
{
background = {
paths = (
{
closed = 1;
nodes = (
"182 740 LINE",
"576 740 LINE",
"625 740 LINE",
"696 707 LINE",
"742 654 LINE",
"764 586 LINE",
"764 551 LINE",
"764 503 LINE",
"737 428 LINE",
"679 369 LINE",
"624 342 LINE",
"612 336 LINE",
"617 332 LINE",
"633 312 LINE",
"647 270 LINE",
"648 240 LINE",
"651 134 LINE",
"721 134 LINE",
"690 0 LINE",
"470 0 LINE",
"482 176 LINE",
"484 207 LINE",
"476 252 LINE",
"452 281 LINE",
"412 295 LINE",
"382 295 LINE",
"335 295 LINE",
"297 134 LINE",
"360 134 LINE",
"329 0 LINE",
"30 0 LINE",
"61 134 LINE",
"126 134 LINE",
"236 606 LINE",
"151 606 LINE"
);
},
{
closed = 1;
nodes = (
"407 606 LINE",
"365 427 LINE",
"458 427 LINE",
"488 427 LINE",
"538 439 LINE",
"573 464 LINE",
"592 503 LINE",
"592 530 LINE",
"592 564 LINE",
"551 606 LINE",
"504 606 LINE"
);
},
{
closed = 1;
nodes = (
"319 -14 LINE",
"460 -65 LINE",
"364 -230 LINE",
"263 -195 LINE"
);
},
{
closed = 1;
nodes = (
"0 760 LINE",
"724 760 LINE",
"724 0 LINE",
"0 0 LINE"
);
}
);
};
components = (
{
name = R;
},
{
name = commaaccentcomb;
transform = "{1, 0, 0, 1, 278, 0}";
}
);
layerId = "EEC59083-BA83-4EFB-8B50-D01213A5FD15";
width = 702;
}
);
leftKerningGroup = I;
rightKerningGroup = R;
unicode = 0156;
},
{
glyphname = S;
layers = (
{
anchors = (
{
name = bottom;
position = "{245, 0}";
},
{
name = top;
position = "{419, 740}";
}
);
layerId = "EEC59083-BA83-4EFB-8B50-D01213A5FD15";
paths = (
{
closed = 1;
nodes = (
"525 546 LINE",
"652 546 LINE",
"671 624 LINE",
"622 624 LINE",
"599 700 OFFCURVE",
"523 751 OFFCURVE",
"413 751 CURVE SMOOTH",
"237 751 OFFCURVE",
"132 650 OFFCURVE",
"132 517 CURVE SMOOTH",
"132 431 OFFCURVE",
"179 376 OFFCURVE",
"267 348 CURVE",
"352 321 LINE",
"410 302 OFFCURVE",
"458 275 OFFCURVE",
"458 213 CURVE SMOOTH",
"458 132 OFFCURVE",
"387 74 OFFCURVE",
"290 74 CURVE SMOOTH",
"195 74 OFFCURVE",
"141 108 OFFCURVE",
"150 179 CURVE",
"159 215 LINE",
"26 215 LINE",
"7 137 LINE",
"53 137 LINE",
"62 57 OFFCURVE",
"119 -15 OFFCURVE",
"273 -15 CURVE SMOOTH",
"445 -15 OFFCURVE",
"562 83 OFFCURVE",
"562 228 CURVE SMOOTH",
"562 319 OFFCURVE",
"515 371 OFFCURVE",
"421 403 CURVE",
"330 436 LINE SMOOTH",
"287 451 OFFCURVE",
"232 463 OFFCURVE",
"232 528 CURVE SMOOTH",
"232 601 OFFCURVE",
"296 663 OFFCURVE",
"404 663 CURVE SMOOTH",
"479 663 OFFCURVE",
"542 624 OFFCURVE",
"527 555 CURVE"
);
}
);
width = 624;
},
{
anchors = (
{
name = bottom;
position = "{285, 0}";
},
{
name = top;
position = "{423, 740}";
}
);
layerId = "8956C7A5-95B5-4256-B2D2-E489185594C4";
paths = (
{
closed = 1;
nodes = (
"499 498 LINE",
"676 498 LINE",
"705 623 LINE",
"649 623 LINE",
"639 693 OFFCURVE",
"555 753 OFFCURVE",
"431 753 CURVE SMOOTH",
"253 753 OFFCURVE",
"127 673 OFFCURVE",
"127 512 CURVE SMOOTH",
"127 422 OFFCURVE",
"181 354 OFFCURVE",
"259 328 CURVE",
"343 299 LINE",
"388 284 OFFCURVE",
"427 267 OFFCURVE",
"427 224 CURVE SMOOTH",
"427 168 OFFCURVE",
"382 127 OFFCURVE",
"309 127 CURVE SMOOTH",
"232 127 OFFCURVE",
"199 165 OFFCURVE",
"208 223 CURVE",
"217 260 LINE",
"39 260 LINE",
"10 135 LINE",
"65 135 LINE",
"76 45 OFFCURVE",
"162 -12 OFFCURVE",
"286 -12 CURVE SMOOTH",
"470 -12 OFFCURVE",
"603 84 OFFCURVE",
"603 245 CURVE SMOOTH",
"603 332 OFFCURVE",
"566 394 OFFCURVE",
"483 424 CURVE",
"382 461 LINE SMOOTH",
"343 475 OFFCURVE",
"295 485 OFFCURVE",
"295 535 CURVE SMOOTH",
"295 593 OFFCURVE",
"349 617 OFFCURVE",
"413 617 CURVE SMOOTH",
"475 617 OFFCURVE",
"520 581 OFFCURVE",
"504 519 CURVE"
);
}
);
width = 619;
}
);
leftKerningGroup = S;
rightKerningGroup = S;
unicode = 0053;
},
{
color = 6;
glyphname = Sacute;
layers = (
{
background = {
paths = (
{
closed = 1;
nodes = (
"39 260 LINE",
"217 260 LINE",
"204 210 LINE",
"211 169 LINE",
"236 142 LINE",
"279 127 LINE",
"309 127 LINE",
"336 127 LINE",
"380 142 LINE",
"411 167 LINE",
"427 203 LINE",
"427 224 LINE",
"427 240 LINE",
"413 264 LINE",
"390 281 LINE",
"360 293 LINE",
"343 299 LINE",
"259 328 LINE",
"229 338 LINE",
"181 373 LINE",
"146 419 LINE",
"127 479 LINE",
"127 512 LINE",
"127 572 LINE",
"172 663 LINE",
"252 723 LINE",
"364 753 LINE",
"431 753 LINE",
"479 753 LINE",
"559 730 LINE",
"616 693 LINE",
"646 646 LINE",
"649 623 LINE",
"705 623 LINE",
"676 498 LINE",
"499 498 LINE",
"509 543 LINE",
"500 579 LINE",
"475 604 LINE",
"437 617 LINE",
"413 617 LINE",
"389 617 LINE",
"346 608 LINE",
"314 588 LINE",
"295 557 LINE",
"295 535 LINE",
"295 516 LINE",
"311 492 LINE",
"347 474 LINE",
"382 461 LINE",
"483 424 LINE",
"545 401 LINE",
"603 311 LINE",
"603 245 LINE",
"603 185 LINE",
"556 89 LINE",
"472 23 LINE",
"355 -12 LINE",
"286 -12 LINE",
"235 -12 LINE",
"150 13 LINE",
"92 60 LINE",
"67 112 LINE",
"64 135 LINE",
"10 135 LINE"
);
},
{
closed = 1;
nodes = (
"460 961 LINE",
"619 961 LINE",
"619 949 LINE",
"470 809 LINE",
"355 809 LINE"
);
},
{
closed = 1;
nodes = (
"0 760 LINE",
"619 760 LINE",
"619 0 LINE",
"0 0 LINE"
);
}
);
};
components = (
{
name = S;
},
{
name = acute;
transform = "{1, 0, 0, 1, 326, 234}";
}
);
layerId = "8956C7A5-95B5-4256-B2D2-E489185594C4";
width = 619;
},
{
background = {
paths = (
{
closed = 1;
nodes = (
"39 260 LINE",
"217 260 LINE",
"204 210 LINE",
"211 169 LINE",
"236 142 LINE",
"279 127 LINE",
"309 127 LINE",
"336 127 LINE",
"380 142 LINE",
"411 167 LINE",
"427 203 LINE",
"427 224 LINE",
"427 240 LINE",
"413 264 LINE",
"390 281 LINE",
"360 293 LINE",
"343 299 LINE",
"259 328 LINE",
"229 338 LINE",
"181 373 LINE",
"146 419 LINE",
"127 479 LINE",
"127 512 LINE",
"127 572 LINE",
"172 663 LINE",
"252 723 LINE",
"364 753 LINE",
"431 753 LINE",
"479 753 LINE",
"559 730 LINE",
"616 693 LINE",
"646 646 LINE",
"649 623 LINE",
"705 623 LINE",
"676 498 LINE",
"499 498 LINE",
"509 543 LINE",
"500 579 LINE",
"475 604 LINE",
"437 617 LINE",
"413 617 LINE",
"389 617 LINE",
"346 608 LINE",
"314 588 LINE",
"295 557 LINE",
"295 535 LINE",
"295 516 LINE",
"311 492 LINE",
"347 474 LINE",
"382 461 LINE",
"483 424 LINE",
"545 401 LINE",
"603 311 LINE",
"603 245 LINE",
"603 185 LINE",
"556 89 LINE",
"472 23 LINE",
"355 -12 LINE",
"286 -12 LINE",
"235 -12 LINE",
"150 13 LINE",
"92 60 LINE",
"67 112 LINE",
"64 135 LINE",
"10 135 LINE"
);
},
{
closed = 1;
nodes = (
"460 961 LINE",
"619 961 LINE",
"619 949 LINE",
"470 809 LINE",
"355 809 LINE"
);
},
{
closed = 1;
nodes = (
"0 760 LINE",
"619 760 LINE",
"619 0 LINE",
"0 0 LINE"
);
}
);
};
components = (
{
name = S;
},
{
name = acute;
transform = "{1, 0, 0, 1, 254, 234}";
}
);
layerId = "EEC59083-BA83-4EFB-8B50-D01213A5FD15";
width = 624;
}
);
leftKerningGroup = S;
rightKerningGroup = S;
unicode = 015A;
},
{
color = 6;
glyphname = Scedilla;
layers = (
{
background = {
paths = (
{
closed = 1;
nodes = (
"39 260 LINE",
"217 260 LINE",
"204 210 LINE",
"211 169 LINE",
"236 142 LINE",
"279 127 LINE",
"309 127 LINE",
"336 127 LINE",
"380 142 LINE",
"411 167 LINE",
"427 203 LINE",
"427 224 LINE",
"427 240 LINE",
"413 264 LINE",
"390 281 LINE",
"360 293 LINE",
"343 299 LINE",
"259 328 LINE",
"229 338 LINE",
"181 373 LINE",
"146 419 LINE",
"127 479 LINE",
"127 512 LINE",
"127 572 LINE",
"172 663 LINE",
"252 723 LINE",
"364 753 LINE",
"431 753 LINE",
"479 753 LINE",
"559 730 LINE",
"616 693 LINE",
"646 646 LINE",
"649 623 LINE",
"705 623 LINE",
"676 498 LINE",
"499 498 LINE",
"509 543 LINE",
"500 579 LINE",
"475 604 LINE",
"437 617 LINE",
"413 617 LINE",
"389 617 LINE",
"346 608 LINE",
"314 588 LINE",
"295 557 LINE",
"295 535 LINE",
"295 516 LINE",
"311 492 LINE",
"347 474 LINE",
"382 461 LINE",
"483 424 LINE",
"545 401 LINE",
"603 311 LINE",
"603 245 LINE",
"603 185 LINE",
"556 89 LINE",
"472 23 LINE",
"355 -12 LINE",
"286 -12 LINE",
"235 -12 LINE",
"150 13 LINE",
"92 60 LINE",
"67 112 LINE",
"64 135 LINE",
"10 135 LINE"
);
},
{
closed = 1;
nodes = (
"115 -141 LINE",
"140 -135 LINE",
"178 -115 LINE",
"205 -86 LINE",
"224 -48 LINE",
"230 -23 LINE",
"359 -68 LINE",
"345 -102 LINE",
"303 -155 LINE",
"249 -193 LINE",
"185 -217 LINE",
"149 -221 LINE"
);
},
{
closed = 1;
nodes = (
"0 760 LINE",
"619 760 LINE",
"619 0 LINE",
"0 0 LINE"
);
}
);
};
components = (
{
name = S;
},
{
name = cedilla;
transform = "{1, 0, 0, 1, 65, 0}";
}
);
layerId = "8956C7A5-95B5-4256-B2D2-E489185594C4";
width = 619;
},
{
background = {
paths = (
{
closed = 1;
nodes = (
"39 260 LINE",
"217 260 LINE",
"204 210 LINE",
"211 169 LINE",
"236 142 LINE",
"279 127 LINE",
"309 127 LINE",
"336 127 LINE",
"380 142 LINE",
"411 167 LINE",
"427 203 LINE",
"427 224 LINE",
"427 240 LINE",
"413 264 LINE",
"390 281 LINE",
"360 293 LINE",
"343 299 LINE",
"259 328 LINE",
"229 338 LINE",
"181 373 LINE",
"146 419 LINE",
"127 479 LINE",
"127 512 LINE",
"127 572 LINE",
"172 663 LINE",
"252 723 LINE",
"364 753 LINE",
"431 753 LINE",
"479 753 LINE",
"559 730 LINE",
"616 693 LINE",
"646 646 LINE",
"649 623 LINE",
"705 623 LINE",
"676 498 LINE",
"499 498 LINE",
"509 543 LINE",
"500 579 LINE",
"475 604 LINE",
"437 617 LINE",
"413 617 LINE",
"389 617 LINE",
"346 608 LINE",
"314 588 LINE",
"295 557 LINE",
"295 535 LINE",
"295 516 LINE",
"311 492 LINE",
"347 474 LINE",
"382 461 LINE",
"483 424 LINE",
"545 401 LINE",
"603 311 LINE",
"603 245 LINE",
"603 185 LINE",
"556 89 LINE",
"472 23 LINE",
"355 -12 LINE",
"286 -12 LINE",
"235 -12 LINE",
"150 13 LINE",
"92 60 LINE",
"67 112 LINE",
"64 135 LINE",
"10 135 LINE"
);
},
{
closed = 1;
nodes = (
"115 -141 LINE",
"140 -135 LINE",
"178 -115 LINE",
"205 -86 LINE",
"224 -48 LINE",
"230 -23 LINE",
"359 -68 LINE",
"345 -102 LINE",
"303 -155 LINE",
"249 -193 LINE",
"185 -217 LINE",
"149 -221 LINE"
);
},
{
closed = 1;
nodes = (
"0 760 LINE",
"619 760 LINE",
"619 0 LINE",
"0 0 LINE"
);
}
);
};
components = (
{
name = S;
},
{
name = cedilla;
transform = "{1, 0, 0, 1, 112, 0}";
}
);
layerId = "EEC59083-BA83-4EFB-8B50-D01213A5FD15";
width = 624;
}
);
leftKerningGroup = S;
rightKerningGroup = S;
unicode = 015E;
},
{
color = 6;
glyphname = Scommaaccent;
layers = (
{
background = {
paths = (
{
closed = 1;
nodes = (
"39 260 LINE",
"217 260 LINE",
"204 210 LINE",
"211 169 LINE",
"236 142 LINE",
"279 127 LINE",
"309 127 LINE",
"336 127 LINE",
"380 142 LINE",
"411 167 LINE",
"427 203 LINE",
"427 224 LINE",
"427 240 LINE",
"413 264 LINE",
"390 281 LINE",
"360 293 LINE",
"343 299 LINE",
"259 328 LINE",
"229 338 LINE",
"181 373 LINE",
"146 419 LINE",
"127 479 LINE",
"127 512 LINE",
"127 572 LINE",
"172 663 LINE",
"252 723 LINE",
"364 753 LINE",
"431 753 LINE",
"479 753 LINE",
"559 730 LINE",
"616 693 LINE",
"646 646 LINE",
"649 623 LINE",
"705 623 LINE",
"676 498 LINE",
"499 498 LINE",
"509 543 LINE",
"500 579 LINE",
"475 604 LINE",
"437 617 LINE",
"413 617 LINE",
"389 617 LINE",
"346 608 LINE",
"314 588 LINE",
"295 557 LINE",
"295 535 LINE",
"295 516 LINE",
"311 492 LINE",
"347 474 LINE",
"382 461 LINE",
"483 424 LINE",
"545 401 LINE",
"603 311 LINE",
"603 245 LINE",
"603 185 LINE",
"556 89 LINE",
"472 23 LINE",
"355 -12 LINE",
"286 -12 LINE",
"235 -12 LINE",
"150 13 LINE",
"92 60 LINE",
"67 112 LINE",
"64 135 LINE",
"10 135 LINE"
);
},
{
closed = 1;
nodes = (
"267 -14 LINE",
"408 -65 LINE",
"312 -230 LINE",
"211 -195 LINE"
);
},
{
closed = 1;
nodes = (
"0 760 LINE",
"619 760 LINE",
"619 0 LINE",
"0 0 LINE"
);
}
);
};
components = (
{
name = S;
},
{
name = commaaccentcomb;
transform = "{1, 0, 0, 1, 239, 0}";
}
);
layerId = "8956C7A5-95B5-4256-B2D2-E489185594C4";
width = 619;
},
{
background = {
paths = (
{
closed = 1;
nodes = (
"39 260 LINE",
"217 260 LINE",
"204 210 LINE",
"211 169 LINE",
"236 142 LINE",
"279 127 LINE",
"309 127 LINE",
"336 127 LINE",
"380 142 LINE",
"411 167 LINE",
"427 203 LINE",
"427 224 LINE",
"427 240 LINE",
"413 264 LINE",
"390 281 LINE",
"360 293 LINE",
"343 299 LINE",
"259 328 LINE",
"229 338 LINE",
"181 373 LINE",
"146 419 LINE",
"127 479 LINE",
"127 512 LINE",
"127 572 LINE",
"172 663 LINE",
"252 723 LINE",
"364 753 LINE",
"431 753 LINE",
"479 753 LINE",
"559 730 LINE",
"616 693 LINE",
"646 646 LINE",
"649 623 LINE",
"705 623 LINE",
"676 498 LINE",
"499 498 LINE",
"509 543 LINE",
"500 579 LINE",
"475 604 LINE",
"437 617 LINE",
"413 617 LINE",
"389 617 LINE",
"346 608 LINE",
"314 588 LINE",
"295 557 LINE",
"295 535 LINE",
"295 516 LINE",
"311 492 LINE",
"347 474 LINE",
"382 461 LINE",
"483 424 LINE",
"545 401 LINE",
"603 311 LINE",
"603 245 LINE",
"603 185 LINE",
"556 89 LINE",
"472 23 LINE",
"355 -12 LINE",
"286 -12 LINE",
"235 -12 LINE",
"150 13 LINE",
"92 60 LINE",
"67 112 LINE",
"64 135 LINE",
"10 135 LINE"
);
},
{
closed = 1;
nodes = (
"267 -14 LINE",
"408 -65 LINE",
"312 -230 LINE",
"211 -195 LINE"
);
},
{
closed = 1;
nodes = (
"0 760 LINE",
"619 760 LINE",
"619 0 LINE",
"0 0 LINE"
);
}
);
};
components = (
{
name = S;
},
{
name = commaaccentcomb;
transform = "{1, 0, 0, 1, 200, 0}";
}
);
layerId = "EEC59083-BA83-4EFB-8B50-D01213A5FD15";
width = 624;
}
);
leftKerningGroup = S;
rightKerningGroup = S;
unicode = 0218;
},
{
glyphname = T;
layers = (
{
anchors = (
{
name = bottom;
position = "{280, 0}";
},
{
name = center;
position = "{365, 370}";
},
{
name = top;
position = "{450, 740}";
}
);
layerId = "EEC59083-BA83-4EFB-8B50-D01213A5FD15";
paths = (
{
closed = 1;
nodes = (
"152 0 LINE",
"392 0 LINE",
"411 84 LINE",
"341 84 LINE",
"473 660 LINE",
"653 660 LINE",
"627 545 LINE",
"727 545 LINE",
"772 740 LINE",
"112 740 LINE",
"67 545 LINE",
"167 545 LINE",
"193 660 LINE",
"372 660 LINE",
"239 84 LINE",
"171 84 LINE"
);
}
);
width = 675;
},
{
anchors = (
{
name = bottom;
position = "{276, 0}";
},
{
name = center;
position = "{361, 370}";
},
{
name = top;
position = "{446, 740}";
}
);
layerId = "8956C7A5-95B5-4256-B2D2-E489185594C4";
paths = (
{
closed = 1;
nodes = (
"136 0 LINE",
"466 0 LINE",
"497 134 LINE",
"415 134 LINE",
"524 606 LINE",
"619 606 LINE",
"598 515 LINE",
"766 515 LINE",
"818 740 LINE",
"122 740 LINE",
"70 515 LINE",
"238 515 LINE",
"259 606 LINE",
"354 606 LINE",
"244 134 LINE",
"167 134 LINE"
);
}
);
width = 668;
}
);
leftKerningGroup = T;
rightKerningGroup = T;
unicode = 0054;
},
{
color = 6;
glyphname = Tcaron;
layers = (
{
background = {
paths = (
{
closed = 1;
nodes = (
"167 134 LINE",
"244 134 LINE",
"354 606 LINE",
"259 606 LINE",
"238 515 LINE",
"70 515 LINE",
"122 740 LINE",
"818 740 LINE",
"766 515 LINE",
"598 515 LINE",
"619 606 LINE",
"524 606 LINE",
"415 134 LINE",
"497 134 LINE",
"466 0 LINE",
"136 0 LINE"
);
},
{
closed = 1;
nodes = (
"692 968 LINE",
"518 809 LINE",
"401 809 LINE",
"305 968 LINE",
"426 968 LINE",
"473 891 LINE",
"557 968 LINE"
);
},
{
closed = 1;
nodes = (
"0 760 LINE",
"668 760 LINE",
"668 0 LINE",
"0 0 LINE"
);
}
);
};
components = (
{
name = T;
},
{
name = caroncomb;
transform = "{1, 0, 0, 1, 206, 234}";
}
);
layerId = "8956C7A5-95B5-4256-B2D2-E489185594C4";
width = 668;
},
{
background = {
paths = (
{
closed = 1;
nodes = (
"167 134 LINE",
"244 134 LINE",
"354 606 LINE",
"259 606 LINE",
"238 515 LINE",
"70 515 LINE",
"122 740 LINE",
"818 740 LINE",
"766 515 LINE",
"598 515 LINE",
"619 606 LINE",
"524 606 LINE",
"415 134 LINE",
"497 134 LINE",
"466 0 LINE",
"136 0 LINE"
);
},
{
closed = 1;
nodes = (
"692 968 LINE",
"518 809 LINE",
"401 809 LINE",
"305 968 LINE",
"426 968 LINE",
"473 891 LINE",
"557 968 LINE"
);
},
{
closed = 1;
nodes = (
"0 760 LINE",
"668 760 LINE",
"668 0 LINE",
"0 0 LINE"
);
}
);
};
components = (
{
name = T;
},
{
name = caroncomb;
transform = "{1, 0, 0, 1, 184, 234}";
}
);
layerId = "EEC59083-BA83-4EFB-8B50-D01213A5FD15";
width = 675;
}
);
leftKerningGroup = T;
rightKerningGroup = T;
unicode = 0164;
},
{
color = 6;
glyphname = Tcommaaccent;
layers = (
{
background = {
paths = (
{
closed = 1;
nodes = (
"167 134 LINE",
"244 134 LINE",
"354 606 LINE",
"259 606 LINE",
"238 515 LINE",
"70 515 LINE",
"122 740 LINE",
"818 740 LINE",
"766 515 LINE",
"598 515 LINE",
"619 606 LINE",
"524 606 LINE",
"415 134 LINE",
"497 134 LINE",
"466 0 LINE",
"136 0 LINE"
);
},
{
closed = 1;
nodes = (
"231 -14 LINE",
"372 -65 LINE",
"276 -230 LINE",
"175 -195 LINE"
);
},
{
closed = 1;
nodes = (
"0 760 LINE",
"668 760 LINE",
"668 0 LINE",
"0 0 LINE"
);
}
);
};
components = (
{
name = T;
},
{
name = commabelow;
transform = "{1, 0, 0, 1, 163, 0}";
}
);
layerId = "8956C7A5-95B5-4256-B2D2-E489185594C4";
width = 668;
},
{
background = {
paths = (
{
closed = 1;
nodes = (
"167 134 LINE",
"244 134 LINE",
"354 606 LINE",
"259 606 LINE",
"238 515 LINE",
"70 515 LINE",
"122 740 LINE",
"818 740 LINE",
"766 515 LINE",
"598 515 LINE",
"619 606 LINE",
"524 606 LINE",
"415 134 LINE",
"497 134 LINE",
"466 0 LINE",
"136 0 LINE"
);
},
{
closed = 1;
nodes = (
"231 -14 LINE",
"372 -65 LINE",
"276 -230 LINE",
"175 -195 LINE"
);
},
{
closed = 1;
nodes = (
"0 760 LINE",
"668 760 LINE",
"668 0 LINE",
"0 0 LINE"
);
}
);
};
components = (
{
name = T;
},
{
name = commabelow;
transform = "{1, 0, 0, 1, 139, 0}";
}
);
layerId = "EEC59083-BA83-4EFB-8B50-D01213A5FD15";
width = 665;
}
);
leftKerningGroup = T;
rightKerningGroup = T;
unicode = 021A;
},
{
color = 6;
glyphname = Tcommaaccent;
layers = (
{
background = {
paths = (
{
closed = 1;
nodes = (
"167 134 LINE",
"244 134 LINE",
"354 606 LINE",
"259 606 LINE",
"238 515 LINE",
"70 515 LINE",
"122 740 LINE",
"818 740 LINE",
"766 515 LINE",
"598 515 LINE",
"619 606 LINE",
"524 606 LINE",
"415 134 LINE",
"497 134 LINE",
"466 0 LINE",
"136 0 LINE"
);
},
{
closed = 1;
nodes = (
"231 -14 LINE",
"372 -65 LINE",
"276 -230 LINE",
"175 -195 LINE"
);
},
{
closed = 1;
nodes = (
"0 760 LINE",
"668 760 LINE",
"668 0 LINE",
"0 0 LINE"
);
}
);
};
components = (
{
name = T;
},
{
name = commaaccentcomb;
transform = "{1, 0, 0, 1, 230, 0}";
}
);
layerId = "8956C7A5-95B5-4256-B2D2-E489185594C4";
width = 668;
},
{
background = {
paths = (
{
closed = 1;
nodes = (
"167 134 LINE",
"244 134 LINE",
"354 606 LINE",
"259 606 LINE",
"238 515 LINE",
"70 515 LINE",
"122 740 LINE",
"818 740 LINE",
"766 515 LINE",
"598 515 LINE",
"619 606 LINE",
"524 606 LINE",
"415 134 LINE",
"497 134 LINE",
"466 0 LINE",
"136 0 LINE"
);
},
{
closed = 1;
nodes = (
"231 -14 LINE",
"372 -65 LINE",
"276 -230 LINE",
"175 -195 LINE"
);
},
{
closed = 1;
nodes = (
"0 760 LINE",
"668 760 LINE",
"668 0 LINE",
"0 0 LINE"
);
}
);
};
components = (
{
name = T;
},
{
name = commaaccentcomb;
transform = "{1, 0, 0, 1, 235, 0}";
}
);
layerId = "EEC59083-BA83-4EFB-8B50-D01213A5FD15";
width = 675;
}
);
leftKerningGroup = T;
rightKerningGroup = T;
unicode = 021A;
},
{
glyphname = U;
layers = (
{
anchors = (
{
name = top;
position = "{483, 740}";
}
);
layerId = "EEC59083-BA83-4EFB-8B50-D01213A5FD15";
paths = (
{
closed = 1;
nodes = (
"118 656 LINE",
"188 656 LINE",
"109 312 LINE",
"102 280 OFFCURVE",
"98 251 OFFCURVE",
"98 222 CURVE SMOOTH",
"95 74 OFFCURVE",
"202 -12 OFFCURVE",
"344 -12 CURVE SMOOTH",
"505 -12 OFFCURVE",
"623 80 OFFCURVE",
"674 303 CURVE",
"755 656 LINE",
"820 656 LINE",
"839 740 LINE",
"599 740 LINE",
"580 656 LINE",
"654 656 LINE",
"575 312 LINE SMOOTH",
"536 143 OFFCURVE",
"461 86 OFFCURVE",
"353 86 CURVE SMOOTH",
"246 86 OFFCURVE",
"200 160 OFFCURVE",
"201 232 CURVE SMOOTH",
"201 264 OFFCURVE",
"206 289 OFFCURVE",
"211 312 CURVE SMOOTH",
"290 656 LINE",
"358 656 LINE",
"377 740 LINE",
"137 740 LINE"
);
}
);
width = 772;
},
{
anchors = (
{
name = top;
position = "{495, 740}";
}
);
layerId = "8956C7A5-95B5-4256-B2D2-E489185594C4";
paths = (
{
closed = 1;
nodes = (
"106 606 LINE",
"179 606 LINE",
"110 309 LINE",
"103 277 OFFCURVE",
"100 247 OFFCURVE",
"100 221 CURVE SMOOTH",
"100 74 OFFCURVE",
"205 -15 OFFCURVE",
"352 -15 CURVE SMOOTH",
"531 -15 OFFCURVE",
"642 71 OFFCURVE",
"689 277 CURVE",
"765 606 LINE",
"828 606 LINE",
"859 740 LINE",
"560 740 LINE",
"529 606 LINE",
"596 606 LINE",
"525 299 LINE SMOOTH",
"497 179 OFFCURVE",
"452 139 OFFCURVE",
"377 139 CURVE SMOOTH",
"299 139 OFFCURVE",
"271 190 OFFCURVE",
"271 247 CURVE SMOOTH",
"271 264 OFFCURVE",
"273 281 OFFCURVE",
"277 299 CURVE SMOOTH",
"348 606 LINE",
"405 606 LINE",
"436 740 LINE",
"137 740 LINE"
);
}
);
width = 749;
}
);
leftKerningGroup = U;
rightKerningGroup = U;
unicode = 0055;
},
{
glyphname = Uhorn;
layers = (
{
anchors = (
{
name = _topright;
position = "{863.584, 740}";
},
{
name = bottom;
position = "{328, 0}";
},
{
name = ogonek;
position = "{637, 10}";
},
{
name = top;
position = "{483, 740}";
},
{
name = topright;
position = "{864, 740}";
}
);
layerId = "EEC59083-BA83-4EFB-8B50-D01213A5FD15";
paths = (
{
closed = 1;
nodes = (
"118 656 LINE",
"188 656 LINE",
"109 312 LINE",
"102 280 OFFCURVE",
"98 251 OFFCURVE",
"98 222 CURVE SMOOTH",
"95 74 OFFCURVE",
"202 -12 OFFCURVE",
"344 -12 CURVE SMOOTH",
"505 -12 OFFCURVE",
"623 80 OFFCURVE",
"674 303 CURVE",
"755 656 LINE",
"773 740 LINE",
"599 740 LINE",
"580 656 LINE",
"654 656 LINE",
"575 312 LINE SMOOTH",
"536 143 OFFCURVE",
"461 86 OFFCURVE",
"353 86 CURVE SMOOTH",
"246 86 OFFCURVE",
"200 160 OFFCURVE",
"201 232 CURVE SMOOTH",
"201 264 OFFCURVE",
"206 289 OFFCURVE",
"211 312 CURVE SMOOTH",
"290 656 LINE",
"358 656 LINE",
"377 740 LINE",
"137 740 LINE"
);
},
{
closed = 1;
nodes = (
"798 673 OFFCURVE",
"889 729 OFFCURVE",
"910 837 CURVE",
"831 837 LINE",
"819 774 OFFCURVE",
"782 740 OFFCURVE",
"726 740 CURVE",
"713 673 LINE"
);
}
);
width = 772;
},
{
anchors = (
{
name = bottom;
position = "{317, 0}";
},
{
name = ogonek;
position = "{616, 10}";
},
{
name = top;
position = "{495, 740}";
}
);
layerId = "8956C7A5-95B5-4256-B2D2-E489185594C4";
paths = (
{
closed = 1;
nodes = (
"106 606 LINE",
"179 606 LINE",
"110 309 LINE",
"103 277 OFFCURVE",
"100 247 OFFCURVE",
"100 221 CURVE SMOOTH",
"100 74 OFFCURVE",
"205 -15 OFFCURVE",
"352 -15 CURVE SMOOTH",
"531 -15 OFFCURVE",
"642 71 OFFCURVE",
"689 277 CURVE",
"765 606 LINE",
"797 740 LINE",
"560 740 LINE",
"529 606 LINE",
"596 606 LINE",
"525 299 LINE SMOOTH",
"497 179 OFFCURVE",
"452 139 OFFCURVE",
"377 139 CURVE SMOOTH",
"299 139 OFFCURVE",
"271 190 OFFCURVE",
"271 247 CURVE SMOOTH",
"271 264 OFFCURVE",
"273 281 OFFCURVE",
"277 299 CURVE SMOOTH",
"348 606 LINE",
"405 606 LINE",
"436 740 LINE",
"137 740 LINE"
);
},
{
closed = 1;
nodes = (
"792 654 OFFCURVE",
"914 703 OFFCURVE",
"940 837 CURVE",
"829 837 LINE",
"817 774 OFFCURVE",
"780 740 OFFCURVE",
"724 740 CURVE",
"707 654 LINE"
);
}
);
width = 749;
}
);
leftKerningGroup = U;
rightKerningGroup = Uhorn;
unicode = 01AF;
},
{
color = 6;
glyphname = Uhungarumlaut;
layers = (
{
background = {
paths = (
{
closed = 1;
nodes = (
"137 740 LINE",
"436 740 LINE",
"405 606 LINE",
"348 606 LINE",
"277 299 LINE",
"267 250 LINE",
"275 196 LINE",
"305 157 LINE",
"348 139 LINE",
"377 139 LINE",
"405 139 LINE",
"451 155 LINE",
"487 193 LINE",
"515 254 LINE",
"525 299 LINE",
"596 606 LINE",
"529 606 LINE",
"560 740 LINE",
"859 740 LINE",
"828 606 LINE",
"765 606 LINE",
"689 277 LINE",
"671 200 LINE",
"612 89 LINE",
"528 18 LINE",
"419 -15 LINE",
"352 -15 LINE",
"297 -15 LINE",
"205 18 LINE",
"138 77 LINE",
"103 160 LINE",
"98 254 LINE",
"110 309 LINE",
"179 606 LINE",
"106 606 LINE"
);
},
{
closed = 1;
nodes = (
"836 974 LINE",
"699 817 LINE",
"607 817 LINE",
"709 974 LINE"
);
},
{
closed = 1;
nodes = (
"642 974 LINE",
"517 817 LINE",
"426 817 LINE",
"516 974 LINE"
);
},
{
closed = 1;
nodes = (
"0 760 LINE",
"749 760 LINE",
"749 0 LINE",
"0 0 LINE"
);
}
);
};
components = (
{
name = U;
},
{
name = hungarumlautcomb;
transform = "{1, 0, 0, 1, 310, 234}";
}
);
layerId = "8956C7A5-95B5-4256-B2D2-E489185594C4";
width = 749;
},
{
background = {
paths = (
{
closed = 1;
nodes = (
"137 740 LINE",
"436 740 LINE",
"405 606 LINE",
"348 606 LINE",
"277 299 LINE",
"267 250 LINE",
"275 196 LINE",
"305 157 LINE",
"348 139 LINE",
"377 139 LINE",
"405 139 LINE",
"451 155 LINE",
"487 193 LINE",
"515 254 LINE",
"525 299 LINE",
"596 606 LINE",
"529 606 LINE",
"560 740 LINE",
"859 740 LINE",
"828 606 LINE",
"765 606 LINE",
"689 277 LINE",
"671 200 LINE",
"612 89 LINE",
"528 18 LINE",
"419 -15 LINE",
"352 -15 LINE",
"297 -15 LINE",
"205 18 LINE",
"138 77 LINE",
"103 160 LINE",
"98 254 LINE",
"110 309 LINE",
"179 606 LINE",
"106 606 LINE"
);
},
{
closed = 1;
nodes = (
"836 974 LINE",
"699 817 LINE",
"607 817 LINE",
"709 974 LINE"
);
},
{
closed = 1;
nodes = (
"642 974 LINE",
"517 817 LINE",
"426 817 LINE",
"516 974 LINE"
);
},
{
closed = 1;
nodes = (
"0 760 LINE",
"749 760 LINE",
"749 0 LINE",
"0 0 LINE"
);
}
);
};
components = (
{
name = U;
},
{
name = hungarumlautcomb;
transform = "{1, 0, 0, 1, 372, 234}";
}
);
layerId = "EEC59083-BA83-4EFB-8B50-D01213A5FD15";
width = 772;
}
);
leftKerningGroup = U;
rightKerningGroup = U;
unicode = 0170;
},
{
color = 6;
glyphname = Umacron;
layers = (
{
background = {
paths = (
{
closed = 1;
nodes = (
"137 740 LINE",
"436 740 LINE",
"405 606 LINE",
"348 606 LINE",
"277 299 LINE",
"267 250 LINE",
"275 196 LINE",
"305 157 LINE",
"348 139 LINE",
"377 139 LINE",
"405 139 LINE",
"451 155 LINE",
"487 193 LINE",
"515 254 LINE",
"525 299 LINE",
"596 606 LINE",
"529 606 LINE",
"560 740 LINE",
"859 740 LINE",
"828 606 LINE",
"765 606 LINE",
"689 277 LINE",
"671 200 LINE",
"612 89 LINE",
"528 18 LINE",
"419 -15 LINE",
"352 -15 LINE",
"297 -15 LINE",
"205 18 LINE",
"138 77 LINE",
"103 160 LINE",
"98 254 LINE",
"110 309 LINE",
"179 606 LINE",
"106 606 LINE"
);
},
{
closed = 1;
nodes = (
"667 809 LINE",
"331 809 LINE",
"331 914 LINE",
"667 914 LINE"
);
},
{
closed = 1;
nodes = (
"0 760 LINE",
"749 760 LINE",
"749 0 LINE",
"0 0 LINE"
);
}
);
};
components = (
{
name = U;
},
{
name = macroncomb;
transform = "{1, 0, 0, 1, 269, 234}";
}
);
layerId = "8956C7A5-95B5-4256-B2D2-E489185594C4";
width = 749;
},
{
background = {
paths = (
{
closed = 1;
nodes = (
"137 740 LINE",
"436 740 LINE",
"405 606 LINE",
"348 606 LINE",
"277 299 LINE",
"267 250 LINE",
"275 196 LINE",
"305 157 LINE",
"348 139 LINE",
"377 139 LINE",
"405 139 LINE",
"451 155 LINE",
"487 193 LINE",
"515 254 LINE",
"525 299 LINE",
"596 606 LINE",
"529 606 LINE",
"560 740 LINE",
"859 740 LINE",
"828 606 LINE",
"765 606 LINE",
"689 277 LINE",
"671 200 LINE",
"612 89 LINE",
"528 18 LINE",
"419 -15 LINE",
"352 -15 LINE",
"297 -15 LINE",
"205 18 LINE",
"138 77 LINE",
"103 160 LINE",
"98 254 LINE",
"110 309 LINE",
"179 606 LINE",
"106 606 LINE"
);
},
{
closed = 1;
nodes = (
"667 809 LINE",
"331 809 LINE",
"331 914 LINE",
"667 914 LINE"
);
},
{
closed = 1;
nodes = (
"0 760 LINE",
"749 760 LINE",
"749 0 LINE",
"0 0 LINE"
);
}
);
};
components = (
{
name = U;
},
{
name = macroncomb;
transform = "{1, 0, 0, 1, 238, 234}";
}
);
layerId = "EEC59083-BA83-4EFB-8B50-D01213A5FD15";
width = 772;
}
);
leftKerningGroup = U;
rightKerningGroup = U;
unicode = 016A;
},
{
color = 6;
glyphname = Uogonek;
layers = (
{
background = {
paths = (
{
closed = 1;
nodes = (
"560 740 LINE",
"859 740 LINE",
"828 606 LINE",
"764 606 LINE",
"689 277 LINE",
"674 213 LINE",
"635 124 LINE",
"581 60 LINE",
"510 15 LINE",
"464 -4 LINE",
"446 -12 LINE",
"400 -33 LINE",
"359 -58 LINE",
"332 -89 LINE",
"332 -105 LINE",
"332 -124 LINE",
"356 -138 LINE",
"367 -138 LINE",
"386 -138 LINE",
"412 -132 LINE",
"422 -127 LINE",
"446 -210 LINE",
"435 -216 LINE",
"385 -230 LINE",
"359 -230 LINE",
"329 -230 LINE",
"278 -216 LINE",
"239 -190 LINE",
"217 -152 LINE",
"217 -127 LINE",
"217 -89 LINE",
"259 -31 LINE",
"291 -9 LINE",
"248 -1 LINE",
"178 37 LINE",
"128 96 LINE",
"100 174 LINE",
"100 221 LINE",
"100 241 LINE",
"105 285 LINE",
"110 309 LINE",
"179 606 LINE",
"106 606 LINE",
"137 740 LINE",
"436 740 LINE",
"405 606 LINE",
"348 606 LINE",
"277 299 LINE",
"274 285 LINE",
"271 260 LINE",
"271 247 LINE",
"271 226 LINE",
"282 187 LINE",
"307 157 LINE",
"348 139 LINE",
"377 139 LINE",
"405 139 LINE",
"451 155 LINE",
"487 193 LINE",
"514 254 LINE",
"525 299 LINE",
"596 606 LINE",
"529 606 LINE"
);
},
{
closed = 1;
nodes = (
"0 760 LINE",
"749 760 LINE",
"749 0 LINE",
"0 0 LINE"
);
}
);
};
layerId = "8956C7A5-95B5-4256-B2D2-E489185594C4";
paths = (
{
closed = 1;
nodes = (
"425 47 LINE",
"351 31 OFFCURVE",
"217 -27 OFFCURVE",
"217 -127 CURVE SMOOTH",
"217 -193 OFFCURVE",
"280 -230 OFFCURVE",
"359 -230 CURVE SMOOTH",
"394 -230 OFFCURVE",
"432 -218 OFFCURVE",
"446 -210 CURVE",
"422 -127 LINE",
"409 -133 OFFCURVE",
"392 -138 OFFCURVE",
"367 -138 CURVE SMOOTH",
"353 -138 OFFCURVE",
"332 -130 OFFCURVE",
"332 -105 CURVE SMOOTH",
"332 -61 OFFCURVE",
"420 -24 OFFCURVE",
"494 9 CURVE"
);
},
{
closed = 1;
nodes = (
"106 606 LINE",
"405 606 LINE",
"436 740 LINE",
"137 740 LINE"
);
},
{
closed = 1;
nodes = (
"529 606 LINE",
"828 606 LINE",
"859 740 LINE",
"560 740 LINE"
);
},
{
closed = 1;
nodes = (
"600 624 LINE",
"525 299 LINE SMOOTH",
"497 179 OFFCURVE",
"452 139 OFFCURVE",
"377 139 CURVE SMOOTH",
"299 139 OFFCURVE",
"271 190 OFFCURVE",
"271 247 CURVE SMOOTH",
"271 264 OFFCURVE",
"273 281 OFFCURVE",
"277 299 CURVE SMOOTH",
"352 622 LINE",
"183 622 LINE",
"110 309 LINE SMOOTH",
"103 277 OFFCURVE",
"100 247 OFFCURVE",
"100 221 CURVE SMOOTH",
"100 74 OFFCURVE",
"205 -15 OFFCURVE",
"352 -15 CURVE SMOOTH",
"531 -15 OFFCURVE",
"642 71 OFFCURVE",
"689 277 CURVE SMOOTH",
"769 625 LINE"
);
}
);
width = 749;
},
{
background = {
paths = (
{
closed = 1;
nodes = (
"560 740 LINE",
"859 740 LINE",
"828 606 LINE",
"764 606 LINE",
"689 277 LINE",
"674 213 LINE",
"635 124 LINE",
"581 60 LINE",
"510 15 LINE",
"464 -4 LINE",
"446 -12 LINE",
"400 -33 LINE",
"359 -58 LINE",
"332 -89 LINE",
"332 -105 LINE",
"332 -124 LINE",
"356 -138 LINE",
"367 -138 LINE",
"386 -138 LINE",
"412 -132 LINE",
"422 -127 LINE",
"446 -210 LINE",
"435 -216 LINE",
"385 -230 LINE",
"359 -230 LINE",
"329 -230 LINE",
"278 -216 LINE",
"239 -190 LINE",
"217 -152 LINE",
"217 -127 LINE",
"217 -89 LINE",
"259 -31 LINE",
"291 -9 LINE",
"248 -1 LINE",
"178 37 LINE",
"128 96 LINE",
"100 174 LINE",
"100 221 LINE",
"100 241 LINE",
"105 285 LINE",
"110 309 LINE",
"179 606 LINE",
"106 606 LINE",
"137 740 LINE",
"436 740 LINE",
"405 606 LINE",
"348 606 LINE",
"277 299 LINE",
"274 285 LINE",
"271 260 LINE",
"271 247 LINE",
"271 226 LINE",
"282 187 LINE",
"307 157 LINE",
"348 139 LINE",
"377 139 LINE",
"405 139 LINE",
"451 155 LINE",
"487 193 LINE",
"514 254 LINE",
"525 299 LINE",
"596 606 LINE",
"529 606 LINE"
);
},
{
closed = 1;
nodes = (
"0 760 LINE",
"749 760 LINE",
"749 0 LINE",
"0 0 LINE"
);
}
);
};
layerId = "EEC59083-BA83-4EFB-8B50-D01213A5FD15";
paths = (
{
closed = 1;
nodes = (
"424 47 LINE",
"367 32 OFFCURVE",
"230 -27 OFFCURVE",
"230 -127 CURVE SMOOTH",
"230 -193 OFFCURVE",
"288 -230 OFFCURVE",
"367 -230 CURVE SMOOTH",
"404 -230 OFFCURVE",
"437 -219 OFFCURVE",
"454 -209 CURVE",
"433 -147 LINE",
"420 -153 OFFCURVE",
"395 -158 OFFCURVE",
"370 -158 CURVE SMOOTH",
"337 -158 OFFCURVE",
"315 -137 OFFCURVE",
"315 -110 CURVE SMOOTH",
"315 -61 OFFCURVE",
"378 -22 OFFCURVE",
"466 9 CURVE"
);
},
{
closed = 1;
nodes = (
"119 656 LINE",
"359 656 LINE",
"378 740 LINE",
"138 740 LINE"
);
},
{
closed = 1;
nodes = (
"581 656 LINE",
"821 656 LINE",
"840 740 LINE",
"600 740 LINE"
);
},
{
closed = 1;
nodes = (
"667 706 LINE",
"576 312 LINE SMOOTH",
"537 143 OFFCURVE",
"462 86 OFFCURVE",
"354 86 CURVE SMOOTH",
"247 86 OFFCURVE",
"201 160 OFFCURVE",
"202 232 CURVE SMOOTH",
"202 264 OFFCURVE",
"207 289 OFFCURVE",
"212 312 CURVE SMOOTH",
"302 704 LINE",
"200 702 LINE",
"110 312 LINE SMOOTH",
"103 280 OFFCURVE",
"99 251 OFFCURVE",
"99 222 CURVE SMOOTH",
"96 74 OFFCURVE",
"203 -12 OFFCURVE",
"345 -12 CURVE SMOOTH",
"506 -12 OFFCURVE",
"624 80 OFFCURVE",
"675 303 CURVE SMOOTH",
"768 707 LINE"
);
}
);
width = 771;
}
);
leftKerningGroup = U;
rightKerningGroup = U;
unicode = 0172;
},
{
color = 6;
glyphname = Uring;
layers = (
{
background = {
paths = (
{
closed = 1;
nodes = (
"137 740 LINE",
"436 740 LINE",
"405 606 LINE",
"348 606 LINE",
"277 299 LINE",
"267 250 LINE",
"275 196 LINE",
"305 157 LINE",
"348 139 LINE",
"377 139 LINE",
"405 139 LINE",
"451 155 LINE",
"487 193 LINE",
"515 254 LINE",
"525 299 LINE",
"596 606 LINE",
"529 606 LINE",
"560 740 LINE",
"859 740 LINE",
"828 606 LINE",
"765 606 LINE",
"689 277 LINE",
"671 200 LINE",
"612 89 LINE",
"528 18 LINE",
"419 -15 LINE",
"352 -15 LINE",
"297 -15 LINE",
"205 18 LINE",
"138 77 LINE",
"103 160 LINE",
"98 254 LINE",
"110 309 LINE",
"179 606 LINE",
"106 606 LINE"
);
},
{
closed = 1;
nodes = (
"622 989 LINE",
"654 989 LINE",
"710 965 LINE",
"753 923 LINE",
"777 866 LINE",
"777 834 LINE",
"777 803 LINE",
"753 746 LINE",
"710 704 LINE",
"654 679 LINE",
"622 679 LINE",
"590 679 LINE",
"534 704 LINE",
"492 746 LINE",
"467 803 LINE",
"467 834 LINE",
"467 866 LINE",
"492 923 LINE",
"534 965 LINE",
"590 989 LINE"
);
},
{
closed = 1;
nodes = (
"561 834 LINE",
"561 822 LINE",
"571 799 LINE",
"587 783 LINE",
"609 773 LINE",
"622 773 LINE",
"635 773 LINE",
"657 783 LINE",
"673 799 LINE",
"682 822 LINE",
"682 834 LINE",
"682 847 LINE",
"673 869 LINE",
"657 885 LINE",
"635 895 LINE",
"622 895 LINE",
"609 895 LINE",
"587 885 LINE",
"571 869 LINE",
"561 847 LINE"
);
},
{
closed = 1;
nodes = (
"0 760 LINE",
"749 760 LINE",
"749 0 LINE",
"0 0 LINE"
);
},
{
closed = 1;
nodes = (
"-812 0 LINE",
"-513 0 LINE",
"-482 134 LINE",
"-781 134 LINE"
);
},
{
closed = 1;
nodes = (
"-350 0 LINE",
"-51 0 LINE",
"-20 134 LINE",
"-319 134 LINE"
);
},
{
closed = 1;
nodes = (
"-589 236 LINE",
"-233 236 LINE",
"-259 377 LINE",
"-504 377 LINE"
);
},
{
closed = 1;
nodes = (
"-735 104 LINE",
"-560 104 LINE",
"-311 573 LINE",
"-276 106 LINE",
"-111 106 LINE",
"-169 740 LINE",
"-382 740 LINE"
);
},
{
closed = 1;
nodes = (
"-333 841 OFFCURVE",
"-306 867 OFFCURVE",
"-272 867 CURVE SMOOTH",
"-238 867 OFFCURVE",
"-212 841 OFFCURVE",
"-212 807 CURVE SMOOTH",
"-212 773 OFFCURVE",
"-238 746 OFFCURVE",
"-272 746 CURVE SMOOTH",
"-306 746 OFFCURVE",
"-333 773 OFFCURVE",
"-333 807 CURVE SMOOTH"
);
},
{
closed = 1;
nodes = (
"-357 962 OFFCURVE",
"-427 892 OFFCURVE",
"-427 807 CURVE SMOOTH",
"-427 722 OFFCURVE",
"-357 652 OFFCURVE",
"-272 652 CURVE SMOOTH",
"-187 652 OFFCURVE",
"-117 722 OFFCURVE",
"-117 807 CURVE SMOOTH",
"-117 892 OFFCURVE",
"-187 962 OFFCURVE",
"-272 962 CURVE SMOOTH"
);
},
{
closed = 1;
nodes = (
"1265 134 LINE",
"1339 134 LINE",
"1305 240 LINE",
"1078 240 LINE",
"1045 134 LINE",
"1123 134 LINE",
"1123 0 LINE",
"842 0 LINE",
"842 134 LINE",
"897 134 LINE",
"1091 716 LINE",
"1066 738 LINE",
"1037 799 LINE",
"1037 834 LINE",
"1037 866 LINE",
"1062 922 LINE",
"1104 964 LINE",
"1160 989 LINE",
"1192 989 LINE",
"1224 989 LINE",
"1280 964 LINE",
"1322 922 LINE",
"1347 866 LINE",
"1347 834 LINE",
"1347 802 LINE",
"1322 744 LINE",
"1300 723 LINE",
"1492 134 LINE",
"1546 134 LINE",
"1546 0 LINE",
"1265 0 LINE"
);
},
{
closed = 1;
nodes = (
"1116 365 LINE",
"1266 365 LINE",
"1191 606 LINE"
);
},
{
closed = 1;
nodes = (
"1131 834 LINE",
"1131 808 LINE",
"1166 773 LINE",
"1192 773 LINE",
"1218 773 LINE",
"1252 808 LINE",
"1252 834 LINE",
"1252 860 LINE",
"1218 894 LINE",
"1192 894 LINE",
"1166 894 LINE",
"1131 860 LINE"
);
}
);
};
layerId = "8956C7A5-95B5-4256-B2D2-E489185594C4";
paths = (
{
closed = 1;
nodes = (
"106 606 LINE",
"179 606 LINE",
"110 309 LINE SMOOTH",
"103 277 OFFCURVE",
"100 247 OFFCURVE",
"100 221 CURVE SMOOTH",
"100 74 OFFCURVE",
"205 -15 OFFCURVE",
"352 -15 CURVE SMOOTH",
"531 -15 OFFCURVE",
"642 71 OFFCURVE",
"689 277 CURVE SMOOTH",
"764 606 LINE",
"828 606 LINE",
"859 740 LINE",
"626 740 LINE",
"595 606 LINE",
"593 598 LINE",
"525 299 LINE SMOOTH",
"497 179 OFFCURVE",
"452 139 OFFCURVE",
"377 139 CURVE SMOOTH",
"299 139 OFFCURVE",
"271 190 OFFCURVE",
"271 247 CURVE SMOOTH",
"271 264 OFFCURVE",
"273 281 OFFCURVE",
"277 299 CURVE SMOOTH",
"346 598 LINE",
"348 606 LINE",
"379 740 LINE",
"137 740 LINE"
);
},
{
closed = 1;
nodes = (
"445 877 OFFCURVE",
"471 903 OFFCURVE",
"505 903 CURVE SMOOTH",
"539 903 OFFCURVE",
"565 877 OFFCURVE",
"565 843 CURVE SMOOTH",
"565 809 OFFCURVE",
"539 783 OFFCURVE",
"505 783 CURVE SMOOTH",
"471 783 OFFCURVE",
"445 809 OFFCURVE",
"445 843 CURVE SMOOTH"
);
},
{
closed = 1;
nodes = (
"425 989 OFFCURVE",
"359 923 OFFCURVE",
"359 843 CURVE SMOOTH",
"359 763 OFFCURVE",
"425 697 OFFCURVE",
"505 697 CURVE SMOOTH",
"585 697 OFFCURVE",
"651 763 OFFCURVE",
"651 843 CURVE SMOOTH",
"651 923 OFFCURVE",
"585 989 OFFCURVE",
"505 989 CURVE SMOOTH"
);
}
);
width = 749;
},
{
background = {
paths = (
{
closed = 1;
nodes = (
"137 740 LINE",
"436 740 LINE",
"405 606 LINE",
"348 606 LINE",
"277 299 LINE",
"267 250 LINE",
"275 196 LINE",
"305 157 LINE",
"348 139 LINE",
"377 139 LINE",
"405 139 LINE",
"451 155 LINE",
"487 193 LINE",
"515 254 LINE",
"525 299 LINE",
"596 606 LINE",
"529 606 LINE",
"560 740 LINE",
"859 740 LINE",
"828 606 LINE",
"765 606 LINE",
"689 277 LINE",
"671 200 LINE",
"612 89 LINE",
"528 18 LINE",
"419 -15 LINE",
"352 -15 LINE",
"297 -15 LINE",
"205 18 LINE",
"138 77 LINE",
"103 160 LINE",
"98 254 LINE",
"110 309 LINE",
"179 606 LINE",
"106 606 LINE"
);
},
{
closed = 1;
nodes = (
"622 989 LINE",
"654 989 LINE",
"710 965 LINE",
"753 923 LINE",
"777 866 LINE",
"777 834 LINE",
"777 803 LINE",
"753 746 LINE",
"710 704 LINE",
"654 679 LINE",
"622 679 LINE",
"590 679 LINE",
"534 704 LINE",
"492 746 LINE",
"467 803 LINE",
"467 834 LINE",
"467 866 LINE",
"492 923 LINE",
"534 965 LINE",
"590 989 LINE"
);
},
{
closed = 1;
nodes = (
"561 834 LINE",
"561 822 LINE",
"571 799 LINE",
"587 783 LINE",
"609 773 LINE",
"622 773 LINE",
"635 773 LINE",
"657 783 LINE",
"673 799 LINE",
"682 822 LINE",
"682 834 LINE",
"682 847 LINE",
"673 869 LINE",
"657 885 LINE",
"635 895 LINE",
"622 895 LINE",
"609 895 LINE",
"587 885 LINE",
"571 869 LINE",
"561 847 LINE"
);
},
{
closed = 1;
nodes = (
"0 760 LINE",
"749 760 LINE",
"749 0 LINE",
"0 0 LINE"
);
},
{
closed = 1;
nodes = (
"-73 0 LINE",
"167 0 LINE",
"186 84 LINE",
"-54 84 LINE"
);
},
{
closed = 1;
nodes = (
"430 0 LINE",
"670 0 LINE",
"689 84 LINE",
"449 84 LINE"
);
},
{
closed = 1;
nodes = (
"178 251 LINE",
"542 251 LINE",
"529 335 LINE",
"226 335 LINE"
);
},
{
closed = 1;
nodes = (
"-15 40 LINE",
"95 40 LINE",
"447 671 LINE",
"516 42 LINE",
"621 42 LINE",
"539 740 LINE",
"381 740 LINE"
);
},
{
closed = 1;
nodes = (
"411 827 OFFCURVE",
"435 851 OFFCURVE",
"462 851 CURVE SMOOTH",
"489 851 OFFCURVE",
"513 827 OFFCURVE",
"513 800 CURVE SMOOTH",
"513 773 OFFCURVE",
"489 749 OFFCURVE",
"462 749 CURVE SMOOTH",
"435 749 OFFCURVE",
"411 773 OFFCURVE",
"411 800 CURVE SMOOTH"
);
},
{
closed = 1;
nodes = (
"394 925 OFFCURVE",
"337 868 OFFCURVE",
"337 800 CURVE SMOOTH",
"337 732 OFFCURVE",
"394 675 OFFCURVE",
"462 675 CURVE SMOOTH",
"530 675 OFFCURVE",
"587 732 OFFCURVE",
"587 800 CURVE SMOOTH",
"587 868 OFFCURVE",
"530 925 OFFCURVE",
"462 925 CURVE SMOOTH"
);
},
{
closed = 1;
nodes = (
"436 134 LINE",
"510 134 LINE",
"476 240 LINE",
"249 240 LINE",
"216 134 LINE",
"294 134 LINE",
"294 0 LINE",
"13 0 LINE",
"13 134 LINE",
"68 134 LINE",
"262 716 LINE",
"237 738 LINE",
"208 799 LINE",
"208 834 LINE",
"208 866 LINE",
"233 922 LINE",
"275 964 LINE",
"331 989 LINE",
"363 989 LINE",
"395 989 LINE",
"451 964 LINE",
"493 922 LINE",
"518 866 LINE",
"518 834 LINE",
"518 802 LINE",
"493 744 LINE",
"471 723 LINE",
"663 134 LINE",
"717 134 LINE",
"717 0 LINE",
"436 0 LINE"
);
},
{
closed = 1;
nodes = (
"287 365 LINE",
"437 365 LINE",
"362 606 LINE"
);
},
{
closed = 1;
nodes = (
"302 834 LINE",
"302 808 LINE",
"337 773 LINE",
"363 773 LINE",
"389 773 LINE",
"423 808 LINE",
"423 834 LINE",
"423 860 LINE",
"389 894 LINE",
"363 894 LINE",
"337 894 LINE",
"302 860 LINE"
);
}
);
};
layerId = "EEC59083-BA83-4EFB-8B50-D01213A5FD15";
paths = (
{
closed = 1;
nodes = (
"119 656 LINE",
"189 656 LINE",
"110 312 LINE SMOOTH",
"103 280 OFFCURVE",
"99 251 OFFCURVE",
"99 222 CURVE SMOOTH",
"96 74 OFFCURVE",
"203 -12 OFFCURVE",
"345 -12 CURVE SMOOTH",
"506 -12 OFFCURVE",
"624 80 OFFCURVE",
"675 303 CURVE SMOOTH",
"756 656 LINE",
"821 656 LINE",
"840 740 LINE",
"600 740 LINE",
"581 656 LINE",
"655 656 LINE",
"576 312 LINE SMOOTH",
"537 143 OFFCURVE",
"462 86 OFFCURVE",
"354 86 CURVE SMOOTH",
"247 86 OFFCURVE",
"201 160 OFFCURVE",
"202 232 CURVE SMOOTH",
"202 264 OFFCURVE",
"207 289 OFFCURVE",
"212 312 CURVE SMOOTH",
"291 656 LINE",
"359 656 LINE",
"378 740 LINE",
"138 740 LINE"
);
},
{
closed = 1;
nodes = (
"452 917 OFFCURVE",
"476 941 OFFCURVE",
"503 941 CURVE SMOOTH",
"530 941 OFFCURVE",
"554 917 OFFCURVE",
"554 890 CURVE SMOOTH",
"554 863 OFFCURVE",
"530 839 OFFCURVE",
"503 839 CURVE SMOOTH",
"476 839 OFFCURVE",
"452 863 OFFCURVE",
"452 890 CURVE SMOOTH"
);
},
{
closed = 1;
nodes = (
"435 1015 OFFCURVE",
"378 958 OFFCURVE",
"378 890 CURVE SMOOTH",
"378 822 OFFCURVE",
"435 765 OFFCURVE",
"503 765 CURVE SMOOTH",
"571 765 OFFCURVE",
"628 822 OFFCURVE",
"628 890 CURVE SMOOTH",
"628 958 OFFCURVE",
"571 1015 OFFCURVE",
"503 1015 CURVE SMOOTH"
);
}
);
width = 771;
}
);
leftKerningGroup = U;
rightKerningGroup = U;
unicode = 016E;
},
{
glyphname = V;
layers = (
{
anchors = (
{
name = top;
position = "{302, 700}";
}
);
layerId = "EEC59083-BA83-4EFB-8B50-D01213A5FD15";
paths = (
{
closed = 1;
nodes = (
"556 656 LINE",
"622 656 LINE",
"307 85 LINE",
"258 656 LINE",
"327 656 LINE",
"346 740 LINE",
"106 740 LINE",
"87 656 LINE",
"155 656 LINE",
"218 0 LINE",
"367 0 LINE",
"731 656 LINE",
"796 656 LINE",
"815 740 LINE",
"575 740 LINE"
);
}
);
width = 718;
},
{
anchors = (
{
name = top;
position = "{305, 700}";
}
);
layerId = "8956C7A5-95B5-4256-B2D2-E489185594C4";
paths = (
{
closed = 1;
nodes = (
"513 606 LINE",
"570 606 LINE",
"354 223 LINE",
"324 606 LINE",
"379 606 LINE",
"410 740 LINE",
"111 740 LINE",
"80 606 LINE",
"156 606 LINE",
"208 0 LINE",
"407 0 LINE",
"753 606 LINE",
"812 606 LINE",
"843 740 LINE",
"544 740 LINE"
);
}
);
width = 683;
}
);
leftKerningGroup = V;
rightKerningGroup = V;
unicode = 0056;
},
{
glyphname = W;
layers = (
{
anchors = (
{
name = top;
position = "{522, 700}";
}
);
layerId = "EEC59083-BA83-4EFB-8B50-D01213A5FD15";
paths = (
{
closed = 1;
nodes = (
"967 656 LINE",
"1041 656 LINE",
"746 95 LINE",
"722 740 LINE",
"618 740 LINE",
"296 95 LINE",
"262 656 LINE",
"327 656 LINE",
"346 740 LINE",
"106 740 LINE",
"87 656 LINE",
"162 656 LINE",
"206 0 LINE",
"345 0 LINE",
"631 572 LINE",
"657 0 LINE",
"796 0 LINE",
"1139 656 LINE",
"1207 656 LINE",
"1226 740 LINE",
"986 740 LINE"
);
}
);
width = 1109;
},
{
anchors = (
{
name = top;
position = "{509, 700}";
}
);
layerId = "8956C7A5-95B5-4256-B2D2-E489185594C4";
paths = (
{
closed = 1;
nodes = (
"904 606 LINE",
"980 606 LINE",
"777 203 LINE",
"769 740 LINE",
"593 740 LINE",
"334 201 LINE",
"315 606 LINE",
"376 606 LINE",
"407 740 LINE",
"108 740 LINE",
"77 606 LINE",
"157 606 LINE",
"191 0 LINE",
"391 0 LINE",
"624 476 LINE",
"628 0 LINE",
"828 0 LINE",
"1145 606 LINE",
"1203 606 LINE",
"1234 740 LINE",
"935 740 LINE"
);
}
);
width = 999;
}
);
leftKerningGroup = V;
rightKerningGroup = V;
unicode = 0057;
},
{
glyphname = X;
layers = (
{
anchors = (
{
name = top;
position = "{278, 700}";
}
);
layerId = "EEC59083-BA83-4EFB-8B50-D01213A5FD15";
paths = (
{
closed = 1;
nodes = (
"523 656 LINE",
"588 656 LINE",
"401 459 LINE",
"307 656 LINE",
"371 656 LINE",
"391 740 LINE",
"151 740 LINE",
"131 656 LINE",
"202 656 LINE",
"333 387 LINE",
"45 84 LINE",
"-14 84 LINE",
"-33 0 LINE",
"207 0 LINE",
"226 84 LINE",
"168 84 LINE",
"375 302 LINE",
"481 84 LINE",
"415 84 LINE",
"396 0 LINE",
"636 0 LINE",
"655 84 LINE",
"582 84 LINE",
"443 373 LINE",
"712 656 LINE",
"763 656 LINE",
"783 740 LINE",
"543 740 LINE"
);
}
);
width = 726;
},
{
anchors = (
{
name = top;
position = "{360, 700}";
}
);
layerId = "8956C7A5-95B5-4256-B2D2-E489185594C4";
paths = (
{
closed = 1;
nodes = (
"559 606 LINE",
"608 606 LINE",
"475 489 LINE",
"399 606 LINE",
"456 606 LINE",
"487 740 LINE",
"157 740 LINE",
"126 606 LINE",
"210 606 LINE",
"355 384 LINE",
"70 134 LINE",
"11 134 LINE",
"-20 0 LINE",
"310 0 LINE",
"341 134 LINE",
"292 134 LINE",
"436 261 LINE",
"519 134 LINE",
"461 134 LINE",
"430 0 LINE",
"760 0 LINE",
"791 134 LINE",
"708 134 LINE",
"556 366 LINE",
"828 606 LINE",
"889 606 LINE",
"920 740 LINE",
"590 740 LINE"
);
}
);
width = 790;
}
);
leftKerningGroup = X;
rightKerningGroup = X;
unicode = 0058;
},
{
glyphname = Y;
layers = (
{
anchors = (
{
name = top;
position = "{430, 740}";
}
);
layerId = "EEC59083-BA83-4EFB-8B50-D01213A5FD15";
paths = (
{
closed = 1;
nodes = (
"87 656 LINE",
"159 656 LINE",
"285 337 LINE",
"227 84 LINE",
"158 84 LINE",
"139 0 LINE",
"379 0 LINE",
"398 84 LINE",
"329 84 LINE",
"388 335 LINE",
"674 656 LINE",
"734 656 LINE",
"753 740 LINE",
"513 740 LINE",
"494 656 LINE",
"553 656 LINE",
"353 425 LINE",
"267 656 LINE",
"327 656 LINE",
"346 740 LINE",
"106 740 LINE"
);
}
);
width = 646;
},
{
anchors = (
{
name = top;
position = "{479, 740}";
}
);
layerId = "8956C7A5-95B5-4256-B2D2-E489185594C4";
paths = (
{
closed = 1;
nodes = (
"90 606 LINE",
"155 606 LINE",
"292 310 LINE",
"252 134 LINE",
"174 134 LINE",
"143 0 LINE",
"473 0 LINE",
"504 134 LINE",
"421 134 LINE",
"459 300 LINE",
"750 606 LINE",
"799 606 LINE",
"830 740 LINE",
"531 740 LINE",
"500 606 LINE",
"543 606 LINE",
"403 446 LINE",
"338 606 LINE",
"389 606 LINE",
"420 740 LINE",
"121 740 LINE"
);
}
);
width = 680;
}
);
leftKerningGroup = Y;
rightKerningGroup = Y;
unicode = 0059;
},
{
glyphname = Z;
layers = (
{
anchors = (
{
name = top;
position = "{406, 740}";
}
);
layerId = "EEC59083-BA83-4EFB-8B50-D01213A5FD15";
paths = (
{
closed = 1;
nodes = (
"701 740 LINE",
"163 740 LINE",
"114 528 LINE",
"215 528 LINE",
"244 654 LINE",
"566 654 LINE",
"12 113 LINE",
"-13 0 LINE",
"529 0 LINE",
"577 210 LINE",
"476 210 LINE",
"448 87 LINE",
"115 87 LINE",
"678 634 LINE"
);
}
);
width = 634;
},
{
anchors = (
{
name = top;
position = "{432, 740}";
}
);
layerId = "8956C7A5-95B5-4256-B2D2-E489185594C4";
paths = (
{
closed = 1;
nodes = (
"731 740 LINE",
"163 740 LINE",
"102 478 LINE",
"270 478 LINE",
"299 606 LINE",
"497 606 LINE",
"30 153 LINE",
"-5 0 LINE",
"569 0 LINE",
"629 260 LINE",
"459 260 LINE",
"430 134 LINE",
"220 134 LINE",
"696 587 LINE"
);
}
);
width = 621;
}
);
leftKerningGroup = Z;
rightKerningGroup = Z;
unicode = 005A;
},
{
color = 6;
glyphname = Zacute;
layers = (
{
background = {
paths = (
{
closed = 1;
nodes = (
"710 587 LINE",
"235 134 LINE",
"445 134 LINE",
"474 260 LINE",
"644 260 LINE",
"583 0 LINE",
"10 0 LINE",
"44 153 LINE",
"511 606 LINE",
"313 606 LINE",
"285 478 LINE",
"117 478 LINE",
"178 740 LINE",
"746 740 LINE"
);
},
{
closed = 1;
nodes = (
"473 961 LINE",
"632 961 LINE",
"632 949 LINE",
"483 809 LINE",
"368 809 LINE"
);
},
{
closed = 1;
nodes = (
"0 760 LINE",
"621 760 LINE",
"621 0 LINE",
"0 0 LINE"
);
}
);
};
components = (
{
name = Z;
},
{
name = acute;
transform = "{1, 0, 0, 1, 335, 234}";
}
);
layerId = "8956C7A5-95B5-4256-B2D2-E489185594C4";
width = 621;
},
{
background = {
paths = (
{
closed = 1;
nodes = (
"710 587 LINE",
"235 134 LINE",
"445 134 LINE",
"474 260 LINE",
"644 260 LINE",
"583 0 LINE",
"10 0 LINE",
"44 153 LINE",
"511 606 LINE",
"313 606 LINE",
"285 478 LINE",
"117 478 LINE",
"178 740 LINE",
"746 740 LINE"
);
},
{
closed = 1;
nodes = (
"473 961 LINE",
"632 961 LINE",
"632 949 LINE",
"483 809 LINE",
"368 809 LINE"
);
},
{
closed = 1;
nodes = (
"0 760 LINE",
"621 760 LINE",
"621 0 LINE",
"0 0 LINE"
);
}
);
};
components = (
{
name = Z;
},
{
name = acute;
transform = "{1, 0, 0, 1, 241, 234}";
}
);
layerId = "EEC59083-BA83-4EFB-8B50-D01213A5FD15";
width = 634;
}
);
leftKerningGroup = Z;
rightKerningGroup = Z;
unicode = 0179;
},
{
color = 6;
glyphname = Zdotaccent;
layers = (
{
background = {
paths = (
{
closed = 1;
nodes = (
"710 587 LINE",
"235 134 LINE",
"445 134 LINE",
"474 260 LINE",
"644 260 LINE",
"583 0 LINE",
"10 0 LINE",
"44 153 LINE",
"511 606 LINE",
"313 606 LINE",
"285 478 LINE",
"117 478 LINE",
"178 740 LINE",
"746 740 LINE"
);
},
{
closed = 1;
nodes = (
"354 903 LINE",
"354 921 LINE",
"367 953 LINE",
"391 976 LINE",
"422 990 LINE",
"441 990 LINE",
"458 990 LINE",
"490 976 LINE",
"513 953 LINE",
"527 921 LINE",
"527 903 LINE",
"527 885 LINE",
"513 853 LINE",
"490 830 LINE",
"458 816 LINE",
"441 816 LINE",
"422 816 LINE",
"391 830 LINE",
"367 853 LINE",
"354 885 LINE"
);
},
{
closed = 1;
nodes = (
"0 760 LINE",
"621 760 LINE",
"621 0 LINE",
"0 0 LINE"
);
}
);
};
components = (
{
name = Z;
},
{
name = dotaccentcomb;
transform = "{1, 0, 0, 1, 333, 234}";
}
);
layerId = "8956C7A5-95B5-4256-B2D2-E489185594C4";
width = 621;
},
{
background = {
paths = (
{
closed = 1;
nodes = (
"710 587 LINE",
"235 134 LINE",
"445 134 LINE",
"474 260 LINE",
"644 260 LINE",
"583 0 LINE",
"10 0 LINE",
"44 153 LINE",
"511 606 LINE",
"313 606 LINE",
"285 478 LINE",
"117 478 LINE",
"178 740 LINE",
"746 740 LINE"
);
},
{
closed = 1;
nodes = (
"354 903 LINE",
"354 921 LINE",
"367 953 LINE",
"391 976 LINE",
"422 990 LINE",
"441 990 LINE",
"458 990 LINE",
"490 976 LINE",
"513 953 LINE",
"527 921 LINE",
"527 903 LINE",
"527 885 LINE",
"513 853 LINE",
"490 830 LINE",
"458 816 LINE",
"441 816 LINE",
"422 816 LINE",
"391 830 LINE",
"367 853 LINE",
"354 885 LINE"
);
},
{
closed = 1;
nodes = (
"0 760 LINE",
"621 760 LINE",
"621 0 LINE",
"0 0 LINE"
);
}
);
};
components = (
{
name = Z;
},
{
name = dotaccentcomb;
transform = "{1, 0, 0, 1, 269, 234}";
}
);
layerId = "EEC59083-BA83-4EFB-8B50-D01213A5FD15";
width = 634;
}
);
leftKerningGroup = Z;
rightKerningGroup = Z;
unicode = 017B;
},
{
glyphname = a;
layers = (
{
anchors = (
{
name = top;
position = "{370, 506}";
}
);
layerId = "EEC59083-BA83-4EFB-8B50-D01213A5FD15";
paths = (
{
closed = 1;
nodes = (
"493 506 LINE",
"486 479 LINE",
"459 503 OFFCURVE",
"414 519 OFFCURVE",
"365 519 CURVE SMOOTH",
"194 519 OFFCURVE",
"52 387 OFFCURVE",
"52 198 CURVE SMOOTH",
"52 82 OFFCURVE",
"139 -9 OFFCURVE",
"250 -9 CURVE SMOOTH",
"296 -9 OFFCURVE",
"340 5 OFFCURVE",
"384 35 CURVE",
"376 0 LINE",
"553 0 LINE",
"572 84 LINE",
"493 84 LINE",
"591 506 LINE"
);
},
{
closed = 1;
nodes = (
"202 75 OFFCURVE",
"153 125 OFFCURVE",
"153 208 CURVE SMOOTH",
"153 351 OFFCURVE",
"258 435 OFFCURVE",
"358 435 CURVE SMOOTH",
"415 435 OFFCURVE",
"451 417 OFFCURVE",
"467 396 CURVE",
"405 125 LINE",
"374 100 OFFCURVE",
"322 75 OFFCURVE",
"273 75 CURVE SMOOTH"
);
}
);
width = 649;
},
{
anchors = (
{
name = top;
position = "{369, 506}";
}
);
layerId = "8956C7A5-95B5-4256-B2D2-E489185594C4";
paths = (
{
closed = 1;
nodes = (
"492 506 LINE",
"486 481 LINE",
"461 501 OFFCURVE",
"411 518 OFFCURVE",
"364 518 CURVE SMOOTH",
"203 518 OFFCURVE",
"50 402 OFFCURVE",
"50 214 CURVE SMOOTH",
"50 69 OFFCURVE",
"156 -8 OFFCURVE",
"261 -8 CURVE SMOOTH",
"316 -8 OFFCURVE",
"359 13 OFFCURVE",
"384 39 CURVE",
"375 0 LINE",
"634 0 LINE",
"665 134 LINE",
"572 134 LINE",
"658 506 LINE"
);
},
{
closed = 1;
nodes = (
"257 143 OFFCURVE",
"215 175 OFFCURVE",
"215 237 CURVE SMOOTH",
"215 311 OFFCURVE",
"276 370 OFFCURVE",
"346 370 CURVE SMOOTH",
"389 370 OFFCURVE",
"431 350 OFFCURVE",
"448 314 CURVE",
"423 208 LINE",
"396 164 OFFCURVE",
"349 143 OFFCURVE",
"307 143 CURVE SMOOTH"
);
}
);
width = 679;
}
);
leftKerningGroup = a;
rightKerningGroup = n;
unicode = 0061;
},
{
color = 6;
glyphname = amacron;
layers = (
{
background = {
paths = (
{
closed = 1;
nodes = (
"384 39 LINE",
"366 20 LINE",
"336 6 LINE",
"304 -8 LINE",
"261 -8 LINE",
"222 -8 LINE",
"146 21 LINE",
"86 77 LINE",
"50 160 LINE",
"50 214 LINE",
"50 261 LINE",
"74 342 LINE",
"117 410 LINE",
"176 463 LINE",
"246 499 LINE",
"324 518 LINE",
"364 518 LINE",
"386 518 LINE",
"418 512 LINE",
"459 500 LINE",
"486 481 LINE",
"492 506 LINE",
"658 506 LINE",
"572 134 LINE",
"665 134 LINE",
"634 0 LINE",
"375 0 LINE"
);
},
{
closed = 1;
nodes = (
"402 182 LINE",
"423 208 LINE",
"448 314 LINE",
"442 325 LINE",
"423 346 LINE",
"396 362 LINE",
"363 370 LINE",
"346 370 LINE",
"320 370 LINE",
"272 349 LINE",
"236 313 LINE",
"215 265 LINE",
"215 237 LINE",
"215 213 LINE",
"229 178 LINE",
"255 155 LINE",
"288 143 LINE",
"307 143 LINE",
"323 143 LINE",
"357 151 LINE",
"388 168 LINE"
);
},
{
closed = 1;
nodes = (
"537 574 LINE",
"201 574 LINE",
"201 679 LINE",
"537 679 LINE"
);
},
{
closed = 1;
nodes = (
"0 760 LINE",
"679 760 LINE",
"679 0 LINE",
"0 0 LINE"
);
}
);
};
components = (
{
name = a;
},
{
name = macroncomb;
transform = "{1, 0, 0, 1, 143, 0}";
}
);
layerId = "8956C7A5-95B5-4256-B2D2-E489185594C4";
width = 679;
},
{
background = {
paths = (
{
closed = 1;
nodes = (
"384 39 LINE",
"366 20 LINE",
"336 6 LINE",
"304 -8 LINE",
"261 -8 LINE",
"222 -8 LINE",
"146 21 LINE",
"86 77 LINE",
"50 160 LINE",
"50 214 LINE",
"50 261 LINE",
"74 342 LINE",
"117 410 LINE",
"176 463 LINE",
"246 499 LINE",
"324 518 LINE",
"364 518 LINE",
"386 518 LINE",
"418 512 LINE",
"459 500 LINE",
"486 481 LINE",
"492 506 LINE",
"658 506 LINE",
"572 134 LINE",
"665 134 LINE",
"634 0 LINE",
"375 0 LINE"
);
},
{
closed = 1;
nodes = (
"402 182 LINE",
"423 208 LINE",
"448 314 LINE",
"442 325 LINE",
"423 346 LINE",
"396 362 LINE",
"363 370 LINE",
"346 370 LINE",
"320 370 LINE",
"272 349 LINE",
"236 313 LINE",
"215 265 LINE",
"215 237 LINE",
"215 213 LINE",
"229 178 LINE",
"255 155 LINE",
"288 143 LINE",
"307 143 LINE",
"323 143 LINE",
"357 151 LINE",
"388 168 LINE"
);
},
{
closed = 1;
nodes = (
"537 574 LINE",
"201 574 LINE",
"201 679 LINE",
"537 679 LINE"
);
},
{
closed = 1;
nodes = (
"0 760 LINE",
"679 760 LINE",
"679 0 LINE",
"0 0 LINE"
);
}
);
};
components = (
{
name = a;
},
{
name = macroncomb;
transform = "{1, 0, 0, 1, 125, 0}";
}
);
layerId = "EEC59083-BA83-4EFB-8B50-D01213A5FD15";
width = 649;
}
);
leftKerningGroup = a;
rightKerningGroup = a;
unicode = 0101;
},
{
color = 6;
glyphname = aogonek;
layers = (
{
background = {
paths = (
{
closed = 1;
nodes = (
"658 506 LINE",
"572 134 LINE",
"665 134 LINE",
"634 0 LINE",
"575 0 LINE",
"547 0 LINE",
"484 -18 LINE",
"432 -48 LINE",
"397 -86 LINE",
"397 -106 LINE",
"397 -125 LINE",
"424 -139 LINE",
"435 -139 LINE",
"454 -139 LINE",
"477 -133 LINE",
"487 -128 LINE",
"511 -211 LINE",
"500 -217 LINE",
"450 -231 LINE",
"424 -231 LINE",
"394 -231 LINE",
"343 -217 LINE",
"304 -191 LINE",
"282 -153 LINE",
"282 -128 LINE",
"282 -89 LINE",
"335 -23 LINE",
"375 0 LINE",
"384 38 LINE",
"365 18 LINE",
"303 -8 LINE",
"261 -8 LINE",
"222 -8 LINE",
"146 21 LINE",
"86 77 LINE",
"50 160 LINE",
"50 214 LINE",
"50 284 LINE",
"103 397 LINE",
"190 476 LINE",
"304 518 LINE",
"364 518 LINE",
"399 518 LINE",
"467 497 LINE",
"486 481 LINE",
"492 506 LINE"
);
},
{
closed = 1;
nodes = (
"307 143 LINE",
"338 143 LINE",
"402 174 LINE",
"423 208 LINE",
"447 314 LINE",
"434 341 LINE",
"378 370 LINE",
"346 370 LINE",
"320 370 LINE",
"272 349 LINE",
"236 313 LINE",
"215 265 LINE",
"215 237 LINE",
"215 190 LINE",
"269 143 LINE"
);
},
{
closed = 1;
nodes = (
"0 760 LINE",
"679 760 LINE",
"679 0 LINE",
"0 0 LINE"
);
}
);
};
layerId = "8956C7A5-95B5-4256-B2D2-E489185594C4";
paths = (
{
closed = 1;
nodes = (
"535 46 LINE",
"429 46 OFFCURVE",
"282 -28 OFFCURVE",
"282 -128 CURVE SMOOTH",
"282 -194 OFFCURVE",
"345 -231 OFFCURVE",
"424 -231 CURVE SMOOTH",
"459 -231 OFFCURVE",
"497 -219 OFFCURVE",
"511 -211 CURVE",
"487 -128 LINE",
"474 -134 OFFCURVE",
"460 -139 OFFCURVE",
"435 -139 CURVE SMOOTH",
"421 -139 OFFCURVE",
"397 -131 OFFCURVE",
"397 -106 CURVE SMOOTH",
"397 -53 OFFCURVE",
"500 0 OFFCURVE",
"575 0 CURVE"
);
},
{
closed = 1;
nodes = (
"488 480 LINE",
"463 501 OFFCURVE",
"412 518 OFFCURVE",
"364 518 CURVE SMOOTH",
"203 518 OFFCURVE",
"50 402 OFFCURVE",
"50 214 CURVE SMOOTH",
"50 69 OFFCURVE",
"156 -8 OFFCURVE",
"261 -8 CURVE SMOOTH",
"318 -8 OFFCURVE",
"362 14 OFFCURVE",
"386 41 CURVE",
"426 213 LINE",
"399 165 OFFCURVE",
"350 143 OFFCURVE",
"307 143 CURVE SMOOTH",
"257 143 OFFCURVE",
"215 175 OFFCURVE",
"215 237 CURVE SMOOTH",
"215 311 OFFCURVE",
"276 370 OFFCURVE",
"346 370 CURVE SMOOTH",
"391 370 OFFCURVE",
"435 348 OFFCURVE",
"450 308 CURVE"
);
},
{
closed = 1;
nodes = (
"492 506 LINE",
"375 0 LINE",
"541 0 LINE",
"658 506 LINE"
);
},
{
closed = 1;
nodes = (
"434 0 LINE",
"634 0 LINE",
"665 134 LINE",
"465 134 LINE"
);
}
);
width = 679;
},
{
background = {
paths = (
{
closed = 1;
nodes = (
"658 506 LINE",
"572 134 LINE",
"665 134 LINE",
"634 0 LINE",
"575 0 LINE",
"547 0 LINE",
"484 -18 LINE",
"432 -48 LINE",
"397 -86 LINE",
"397 -106 LINE",
"397 -125 LINE",
"424 -139 LINE",
"435 -139 LINE",
"454 -139 LINE",
"477 -133 LINE",
"487 -128 LINE",
"511 -211 LINE",
"500 -217 LINE",
"450 -231 LINE",
"424 -231 LINE",
"394 -231 LINE",
"343 -217 LINE",
"304 -191 LINE",
"282 -153 LINE",
"282 -128 LINE",
"282 -89 LINE",
"335 -23 LINE",
"375 0 LINE",
"384 38 LINE",
"365 18 LINE",
"303 -8 LINE",
"261 -8 LINE",
"222 -8 LINE",
"146 21 LINE",
"86 77 LINE",
"50 160 LINE",
"50 214 LINE",
"50 284 LINE",
"103 397 LINE",
"190 476 LINE",
"304 518 LINE",
"364 518 LINE",
"399 518 LINE",
"467 497 LINE",
"486 481 LINE",
"492 506 LINE"
);
},
{
closed = 1;
nodes = (
"307 143 LINE",
"338 143 LINE",
"402 174 LINE",
"423 208 LINE",
"447 314 LINE",
"434 341 LINE",
"378 370 LINE",
"346 370 LINE",
"320 370 LINE",
"272 349 LINE",
"236 313 LINE",
"215 265 LINE",
"215 237 LINE",
"215 190 LINE",
"269 143 LINE"
);
},
{
closed = 1;
nodes = (
"0 760 LINE",
"679 760 LINE",
"679 0 LINE",
"0 0 LINE"
);
}
);
};
layerId = "EEC59083-BA83-4EFB-8B50-D01213A5FD15";
paths = (
{
closed = 1;
nodes = (
"464 38 LINE",
"407 23 OFFCURVE",
"291 -27 OFFCURVE",
"291 -127 CURVE SMOOTH",
"291 -193 OFFCURVE",
"349 -230 OFFCURVE",
"428 -230 CURVE SMOOTH",
"465 -230 OFFCURVE",
"498 -219 OFFCURVE",
"515 -209 CURVE",
"494 -147 LINE",
"481 -153 OFFCURVE",
"456 -158 OFFCURVE",
"431 -158 CURVE SMOOTH",
"398 -158 OFFCURVE",
"376 -137 OFFCURVE",
"376 -110 CURVE SMOOTH",
"376 -61 OFFCURVE",
"444 0 OFFCURVE",
"508 0 CURVE"
);
},
{
closed = 1;
nodes = (
"505 458 LINE",
"484 492 OFFCURVE",
"427 519 OFFCURVE",
"364 519 CURVE SMOOTH",
"193 519 OFFCURVE",
"51 387 OFFCURVE",
"51 198 CURVE SMOOTH",
"51 82 OFFCURVE",
"138 -9 OFFCURVE",
"249 -9 CURVE SMOOTH",
"310 -9 OFFCURVE",
"366 15 OFFCURVE",
"423 66 CURVE",
"419 139 LINE",
"392 110 OFFCURVE",
"330 75 OFFCURVE",
"272 75 CURVE SMOOTH",
"201 75 OFFCURVE",
"152 125 OFFCURVE",
"152 208 CURVE SMOOTH",
"152 351 OFFCURVE",
"257 435 OFFCURVE",
"357 435 CURVE SMOOTH",
"425 435 OFFCURVE",
"462 410 OFFCURVE",
"474 384 CURVE"
);
},
{
closed = 1;
nodes = (
"492 506 LINE",
"375 0 LINE",
"473 0 LINE",
"590 506 LINE"
);
},
{
closed = 1;
nodes = (
"407 0 LINE",
"552 0 LINE",
"571 84 LINE",
"426 84 LINE"
);
}
);
width = 644;
}
);
leftKerningGroup = a;
rightKerningGroup = a;
unicode = 0105;
},
{
glyphname = ae;
layers = (
{
layerId = "EEC59083-BA83-4EFB-8B50-D01213A5FD15";
paths = (
{
closed = 1;
nodes = (
"149 296 OFFCURVE",
"-3 264 OFFCURVE",
"-3 120 CURVE SMOOTH",
"-3 27 OFFCURVE",
"70 -14 OFFCURVE",
"164 -14 CURVE SMOOTH",
"245 -14 OFFCURVE",
"323 22 OFFCURVE",
"374 91 CURVE",
"412 23 OFFCURVE",
"484 -15 OFFCURVE",
"567 -15 CURVE SMOOTH",
"655 -15 OFFCURVE",
"737 22 OFFCURVE",
"781 80 CURVE",
"757 98 OFFCURVE",
"733 115 OFFCURVE",
"709 133 CURVE",
"677 93 OFFCURVE",
"627 71 OFFCURVE",
"575 71 CURVE SMOOTH",
"497 71 OFFCURVE",
"441 133 OFFCURVE",
"441 215 CURVE SMOOTH",
"441 221 OFFCURVE",
"441 227 OFFCURVE",
"442 236 CURVE",
"831 236 LINE",
"836 262 OFFCURVE",
"840 294 OFFCURVE",
"840 327 CURVE SMOOTH",
"840 427 OFFCURVE",
"765 521 OFFCURVE",
"636 521 CURVE SMOOTH",
"562 521 OFFCURVE",
"495 494 OFFCURVE",
"444 449 CURVE",
"422 496 OFFCURVE",
"374 517 OFFCURVE",
"303 517 CURVE SMOOTH",
"239 517 OFFCURVE",
"164 494 OFFCURVE",
"109 463 CURVE",
"114 442 OFFCURVE",
"119 421 OFFCURVE",
"124 400 CURVE",
"158 419 OFFCURVE",
"215 437 OFFCURVE",
"276 437 CURVE SMOOTH",
"341 437 OFFCURVE",
"378 404 OFFCURVE",
"361 332 CURVE SMOOTH",
"357 316 OFFCURVE",
"354 301 OFFCURVE",
"350 286 CURVE",
"325 292 OFFCURVE",
"292 296 OFFCURVE",
"248 296 CURVE SMOOTH"
);
},
{
closed = 1;
nodes = (
"122 62 OFFCURVE",
"89 85 OFFCURVE",
"89 133 CURVE SMOOTH",
"89 195 OFFCURVE",
"151 233 OFFCURVE",
"231 233 CURVE SMOOTH",
"343 233 LINE",
"343 228 OFFCURVE",
"343 222 OFFCURVE",
"343 217 CURVE SMOOTH",
"343 192 OFFCURVE",
"346 170 OFFCURVE",
"351 149 CURVE",
"304 94 OFFCURVE",
"240 62 OFFCURVE",
"173 62 CURVE SMOOTH"
);
},
{
closed = 1;
nodes = (
"697 438 OFFCURVE",
"748 396 OFFCURVE",
"746 315 CURVE",
"458 315 LINE",
"484 385 OFFCURVE",
"545 438 OFFCURVE",
"623 438 CURVE SMOOTH"
);
}
);
width = 865;
},
{
layerId = "8956C7A5-95B5-4256-B2D2-E489185594C4";
paths = (
{
closed = 1;
nodes = (
"113 311 OFFCURVE",
"20 238 OFFCURVE",
"20 131 CURVE SMOOTH",
"20 55 OFFCURVE",
"77 -12 OFFCURVE",
"192 -12 CURVE SMOOTH",
"289 -12 OFFCURVE",
"349 23 OFFCURVE",
"400 75 CURVE",
"442 19 OFFCURVE",
"511 -13 OFFCURVE",
"589 -13 CURVE SMOOTH",
"687 -13 OFFCURVE",
"776 19 OFFCURVE",
"841 89 CURVE",
"805 120 OFFCURVE",
"770 152 OFFCURVE",
"734 183 CURVE",
"698 152 OFFCURVE",
"664 130 OFFCURVE",
"612 130 CURVE SMOOTH",
"570 130 OFFCURVE",
"543 146 OFFCURVE",
"529 171 CURVE SMOOTH",
"522 184 OFFCURVE",
"518 199 OFFCURVE",
"517 215 CURVE",
"878 215 LINE",
"887 243 OFFCURVE",
"893 285 OFFCURVE",
"893 311 CURVE SMOOTH",
"893 421 OFFCURVE",
"798 521 OFFCURVE",
"667 521 CURVE SMOOTH",
"601 521 OFFCURVE",
"539 501 OFFCURVE",
"488 466 CURVE",
"454 501 OFFCURVE",
"398 517 OFFCURVE",
"334 517 CURVE SMOOTH",
"255 517 OFFCURVE",
"181 491 OFFCURVE",
"111 447 CURVE",
"119 415 OFFCURVE",
"128 384 OFFCURVE",
"136 352 CURVE",
"185 375 OFFCURVE",
"231 387 OFFCURVE",
"292 387 CURVE SMOOTH",
"351 387 OFFCURVE",
"384 365 OFFCURVE",
"372 314 CURVE SMOOTH",
"371 309 OFFCURVE",
"370 304 OFFCURVE",
"369 299 CURVE",
"338 306 OFFCURVE",
"303 311 OFFCURVE",
"259 311 CURVE SMOOTH"
);
},
{
closed = 1;
nodes = (
"178 103 OFFCURVE",
"161 121 OFFCURVE",
"161 146 CURVE SMOOTH",
"161 198 OFFCURVE",
"212 206 OFFCURVE",
"259 206 CURVE SMOOTH",
"358 206 LINE",
"358 200 OFFCURVE",
"358 194 OFFCURVE",
"359 188 CURVE SMOOTH",
"360 177 OFFCURVE",
"361 166 OFFCURVE",
"364 155 CURVE",
"323 124 OFFCURVE",
"275 103 OFFCURVE",
"216 103 CURVE SMOOTH"
);
},
{
closed = 1;
nodes = (
"705 395 OFFCURVE",
"743 360 OFFCURVE",
"746 325 CURVE",
"534 325 LINE",
"552 370 OFFCURVE",
"599 395 OFFCURVE",
"651 395 CURVE SMOOTH"
);
}
);
width = 903;
}
);
leftKerningGroup = a;
rightKerningGroup = e;
unicode = 00E6;
},
{
glyphname = b;
layers = (
{
anchors = (
{
name = top;
position = "{171, 506}";
}
);
layerId = "EEC59083-BA83-4EFB-8B50-D01213A5FD15";
paths = (
{
closed = 1;
nodes = (
"104 676 LINE",
"197 676 LINE",
"42 0 LINE",
"140 0 LINE",
"147 31 LINE",
"174 8 OFFCURVE",
"220 -9 OFFCURVE",
"270 -9 CURVE SMOOTH",
"441 -9 OFFCURVE",
"583 123 OFFCURVE",
"583 312 CURVE SMOOTH",
"583 428 OFFCURVE",
"496 519 OFFCURVE",
"385 519 CURVE SMOOTH",
"337 519 OFFCURVE",
"293 504 OFFCURVE",
"249 474 CURVE",
"315 760 LINE",
"124 760 LINE"
);
},
{
closed = 1;
nodes = (
"433 435 OFFCURVE",
"482 385 OFFCURVE",
"482 302 CURVE SMOOTH",
"482 159 OFFCURVE",
"377 75 OFFCURVE",
"277 75 CURVE SMOOTH",
"219 75 OFFCURVE",
"183 93 OFFCURVE",
"166 115 CURVE",
"228 383 LINE",
"267 415 OFFCURVE",
"316 435 OFFCURVE",
"362 435 CURVE SMOOTH"
);
}
);
width = 621;
},
{
anchors = (
{
name = top;
position = "{225, 506}";
}
);
layerId = "8956C7A5-95B5-4256-B2D2-E489185594C4";
paths = (
{
closed = 1;
nodes = (
"98 626 LINE",
"194 626 LINE",
"50 0 LINE",
"216 0 LINE",
"222 28 LINE",
"248 8 OFFCURVE",
"297 -8 OFFCURVE",
"344 -8 CURVE SMOOTH",
"518 -8 OFFCURVE",
"658 117 OFFCURVE",
"658 296 CURVE SMOOTH",
"658 441 OFFCURVE",
"557 518 OFFCURVE",
"447 518 CURVE SMOOTH",
"392 518 OFFCURVE",
"350 498 OFFCURVE",
"325 472 CURVE",
"391 760 LINE",
"129 760 LINE"
);
},
{
closed = 1;
nodes = (
"451 367 OFFCURVE",
"493 335 OFFCURVE",
"493 273 CURVE SMOOTH",
"493 199 OFFCURVE",
"432 140 OFFCURVE",
"362 140 CURVE SMOOTH",
"319 140 OFFCURVE",
"278 159 OFFCURVE",
"261 195 CURVE",
"286 303 LINE",
"313 347 OFFCURVE",
"360 367 OFFCURVE",
"401 367 CURVE SMOOTH"
);
}
);
width = 648;
}
);
leftKerningGroup = I;
rightKerningGroup = o;
unicode = 0062;
},
{
glyphname = c;
layers = (
{
anchors = (
{
name = bottom;
position = "{274, 0}";
},
{
name = top;
position = "{350, 506}";
}
);
layerId = "EEC59083-BA83-4EFB-8B50-D01213A5FD15";
paths = (
{
closed = 1;
nodes = (
"552 357 LINE",
"566 441 LINE",
"505 441 LINE",
"464 496 OFFCURVE",
"397 521 OFFCURVE",
"332 521 CURVE SMOOTH",
"193 521 OFFCURVE",
"47 396 OFFCURVE",
"47 219 CURVE SMOOTH",
"47 89 OFFCURVE",
"144 -12 OFFCURVE",
"277 -12 CURVE SMOOTH",
"350 -12 OFFCURVE",
"429 14 OFFCURVE",
"480 86 CURVE",
"409 139 LINE",
"371 91 OFFCURVE",
"333 75 OFFCURVE",
"281 75 CURVE SMOOTH",
"210 75 OFFCURVE",
"149 127 OFFCURVE",
"149 225 CURVE SMOOTH",
"149 359 OFFCURVE",
"252 435 OFFCURVE",
"323 435 CURVE SMOOTH",
"379 435 OFFCURVE",
"429 409 OFFCURVE",
"450 357 CURVE"
);
}
);
width = 564;
},
{
anchors = (
{
name = bottom;
position = "{272, 0}";
},
{
name = top;
position = "{355, 506}";
}
);
layerId = "8956C7A5-95B5-4256-B2D2-E489185594C4";
paths = (
{
closed = 1;
nodes = (
"577 326 LINE",
"608 460 LINE",
"514 460 LINE",
"475 497 OFFCURVE",
"422 521 OFFCURVE",
"359 521 CURVE SMOOTH",
"194 521 OFFCURVE",
"50 399 OFFCURVE",
"50 213 CURVE SMOOTH",
"50 89 OFFCURVE",
"148 -12 OFFCURVE",
"279 -12 CURVE SMOOTH",
"401 -12 OFFCURVE",
"499 51 OFFCURVE",
"540 132 CURVE",
"407 204 LINE",
"384 164 OFFCURVE",
"349 136 OFFCURVE",
"295 136 CURVE SMOOTH",
"249 136 OFFCURVE",
"209 173 OFFCURVE",
"209 231 CURVE SMOOTH",
"209 309 OFFCURVE",
"269 372 OFFCURVE",
"342 372 CURVE SMOOTH",
"374 372 OFFCURVE",
"406 353 OFFCURVE",
"416 326 CURVE"
);
}
);
width = 572;
}
);
leftKerningGroup = o;
rightKerningGroup = c;
unicode = 0063;
},
{
color = 6;
glyphname = cacute;
layers = (
{
background = {
paths = (
{
closed = 1;
nodes = (
"416 326 LINE",
"408 347 LINE",
"366 372 LINE",
"342 372 LINE",
"314 372 LINE",
"266 350 LINE",
"230 312 LINE",
"209 260 LINE",
"209 231 LINE",
"209 209 LINE",
"223 174 LINE",
"247 149 LINE",
"278 136 LINE",
"295 136 LINE",
"335 136 LINE",
"390 174 LINE",
"407 204 LINE",
"540 132 LINE",
"524 102 LINE",
"474 49 LINE",
"406 10 LINE",
"325 -12 LINE",
"279 -12 LINE",
"229 -12 LINE",
"146 23 LINE",
"84 84 LINE",
"50 167 LINE",
"50 213 LINE",
"50 283 LINE",
"100 396 LINE",
"185 477 LINE",
"297 521 LINE",
"359 521 LINE",
"398 521 LINE",
"464 499 LINE",
"491 479 LINE",
"503 470 LINE",
"514 460 LINE",
"608 460 LINE",
"577 326 LINE"
);
},
{
closed = 1;
nodes = (
"313 742 LINE",
"472 742 LINE",
"472 730 LINE",
"323 590 LINE",
"208 590 LINE"
);
},
{
closed = 1;
nodes = (
"0 760 LINE",
"572 760 LINE",
"572 0 LINE",
"0 0 LINE"
);
}
);
};
components = (
{
name = c;
},
{
name = acutecomb;
transform = "{1, 0, 0, 1, 258, 0}";
}
);
layerId = "8956C7A5-95B5-4256-B2D2-E489185594C4";
width = 572;
},
{
background = {
paths = (
{
closed = 1;
nodes = (
"416 326 LINE",
"408 347 LINE",
"366 372 LINE",
"342 372 LINE",
"314 372 LINE",
"266 350 LINE",
"230 312 LINE",
"209 260 LINE",
"209 231 LINE",
"209 209 LINE",
"223 174 LINE",
"247 149 LINE",
"278 136 LINE",
"295 136 LINE",
"335 136 LINE",
"390 174 LINE",
"407 204 LINE",
"540 132 LINE",
"524 102 LINE",
"474 49 LINE",
"406 10 LINE",
"325 -12 LINE",
"279 -12 LINE",
"229 -12 LINE",
"146 23 LINE",
"84 84 LINE",
"50 167 LINE",
"50 213 LINE",
"50 283 LINE",
"100 396 LINE",
"185 477 LINE",
"297 521 LINE",
"359 521 LINE",
"398 521 LINE",
"464 499 LINE",
"491 479 LINE",
"503 470 LINE",
"514 460 LINE",
"608 460 LINE",
"577 326 LINE"
);
},
{
closed = 1;
nodes = (
"313 742 LINE",
"472 742 LINE",
"472 730 LINE",
"323 590 LINE",
"208 590 LINE"
);
},
{
closed = 1;
nodes = (
"0 760 LINE",
"572 760 LINE",
"572 0 LINE",
"0 0 LINE"
);
}
);
};
components = (
{
name = c;
},
{
name = acutecomb;
transform = "{1, 0, 0, 1, 185, 0}";
}
);
layerId = "EEC59083-BA83-4EFB-8B50-D01213A5FD15";
width = 564;
}
);
leftKerningGroup = o;
rightKerningGroup = c;
unicode = 0107;
},
{
glyphname = d;
layers = (
{
anchors = (
{
name = bottom;
position = "{271, 0}";
},
{
name = center;
position = "{525, 603}";
},
{
name = top;
position = "{563, 760}";
},
{
name = topright;
position = "{684, 506}";
}
);
layerId = "EEC59083-BA83-4EFB-8B50-D01213A5FD15";
paths = (
{
closed = 1;
nodes = (
"451 676 LINE",
"536 676 LINE",
"491 479 LINE",
"458 505 OFFCURVE",
"412 521 OFFCURVE",
"360 521 CURVE SMOOTH",
"194 521 OFFCURVE",
"57 387 OFFCURVE",
"57 208 CURVE SMOOTH",
"57 85 OFFCURVE",
"149 -10 OFFCURVE",
"264 -10 CURVE SMOOTH",
"311 -10 OFFCURVE",
"352 7 OFFCURVE",
"388 33 CURVE",
"381 0 LINE",
"563 0 LINE",
"582 84 LINE",
"498 84 LINE",
"654 760 LINE",
"471 760 LINE"
);
},
{
closed = 1;
nodes = (
"212 75 OFFCURVE",
"158 130 OFFCURVE",
"158 217 CURVE SMOOTH",
"158 350 OFFCURVE",
"256 435 OFFCURVE",
"354 435 CURVE SMOOTH",
"409 435 OFFCURVE",
"447 419 OFFCURVE",
"471 391 CURVE",
"411 129 LINE",
"375 94 OFFCURVE",
"328 75 OFFCURVE",
"287 75 CURVE SMOOTH"
);
}
);
width = 657;
},
{
anchors = (
{
name = bottom;
position = "{285, 0}";
},
{
name = center;
position = "{560, 574}";
},
{
name = top;
position = "{596, 760}";
},
{
name = topright;
position = "{724, 506}";
}
);
layerId = "8956C7A5-95B5-4256-B2D2-E489185594C4";
paths = (
{
closed = 1;
nodes = (
"418 626 LINE",
"519 626 LINE",
"486 483 LINE",
"460 504 OFFCURVE",
"408 518 OFFCURVE",
"364 518 CURVE SMOOTH",
"203 518 OFFCURVE",
"50 402 OFFCURVE",
"50 214 CURVE SMOOTH",
"50 94 OFFCURVE",
"128 -9 OFFCURVE",
"261 -9 CURVE SMOOTH",
"317 -9 OFFCURVE",
"360 13 OFFCURVE",
"384 38 CURVE",
"375 0 LINE",
"634 0 LINE",
"665 134 LINE",
"572 134 LINE",
"716 760 LINE",
"449 760 LINE"
);
},
{
closed = 1;
nodes = (
"258 150 OFFCURVE",
"221 186 OFFCURVE",
"221 242 CURVE SMOOTH",
"221 316 OFFCURVE",
"279 373 OFFCURVE",
"349 373 CURVE SMOOTH",
"389 373 OFFCURVE",
"432 355 OFFCURVE",
"449 321 CURVE",
"423 211 LINE",
"396 173 OFFCURVE",
"351 150 OFFCURVE",
"306 150 CURVE SMOOTH"
);
}
);
width = 686;
}
);
leftKerningGroup = a;
rightKerningGroup = d;
unicode = 0064;
},
{
glyphname = eth;
layers = (
{
layerId = "EEC59083-BA83-4EFB-8B50-D01213A5FD15";
paths = (
{
closed = 1;
nodes = (
"309 563 OFFCURVE",
"339 575 OFFCURVE",
"370 588 CURVE",
"390 561 OFFCURVE",
"407 532 OFFCURVE",
"423 502 CURVE",
"392 514 OFFCURVE",
"356 521 OFFCURVE",
"323 521 CURVE SMOOTH",
"170 521 OFFCURVE",
"37 387 OFFCURVE",
"37 219 CURVE SMOOTH",
"37 89 OFFCURVE",
"130 -12 OFFCURVE",
"271 -12 CURVE SMOOTH",
"417 -12 OFFCURVE",
"565 111 OFFCURVE",
"565 318 CURVE SMOOTH",
"565 410 OFFCURVE",
"532 526 OFFCURVE",
"461 625 CURVE",
"480 633 OFFCURVE",
"500 641 OFFCURVE",
"519 649 CURVE",
"508 675 OFFCURVE",
"497 701 OFFCURVE",
"486 727 CURVE",
"458 715 OFFCURVE",
"431 704 OFFCURVE",
"403 692 CURVE",
"377 717 OFFCURVE",
"348 740 OFFCURVE",
"316 760 CURVE",
"191 760 LINE",
"239 726 OFFCURVE",
"279 691 OFFCURVE",
"313 655 CURVE",
"291 646 OFFCURVE",
"269 637 OFFCURVE",
"246 628 CURVE",
"257 602 OFFCURVE",
"268 576 OFFCURVE",
"278 550 CURVE"
);
},
{
closed = 1;
nodes = (
"463 155 OFFCURVE",
"364 74 OFFCURVE",
"276 74 CURVE SMOOTH",
"180 74 OFFCURVE",
"139 143 OFFCURVE",
"139 226 CURVE SMOOTH",
"139 310 OFFCURVE",
"202 435 OFFCURVE",
"325 435 CURVE SMOOTH",
"395 435 OFFCURVE",
"447 393 OFFCURVE",
"462 308 CURVE",
"462 311 OFFCURVE",
"463 313 OFFCURVE",
"463 315 CURVE SMOOTH",
"463 305 OFFCURVE",
"463 295 OFFCURVE",
"463 286 CURVE SMOOTH"
);
}
);
width = 603;
},
{
layerId = "8956C7A5-95B5-4256-B2D2-E489185594C4";
paths = (
{
closed = 1;
nodes = (
"291 546 OFFCURVE",
"318 555 OFFCURVE",
"346 564 CURVE",
"357 548 OFFCURVE",
"368 531 OFFCURVE",
"377 514 CURVE",
"362 515 OFFCURVE",
"344 514 OFFCURVE",
"321 514 CURVE SMOOTH",
"195 514 OFFCURVE",
"50 399 OFFCURVE",
"50 213 CURVE SMOOTH",
"50 89 OFFCURVE",
"148 -12 OFFCURVE",
"279 -12 CURVE SMOOTH",
"512 -12 OFFCURVE",
"587 182 OFFCURVE",
"587 295 CURVE SMOOTH",
"587 418 OFFCURVE",
"561 526 OFFCURVE",
"501 615 CURVE",
"513 619 OFFCURVE",
"524 623 OFFCURVE",
"536 627 CURVE",
"522 669 OFFCURVE",
"508 712 OFFCURVE",
"495 754 CURVE",
"464 744 OFFCURVE",
"433 734 OFFCURVE",
"402 724 CURVE",
"387 736 OFFCURVE",
"371 748 OFFCURVE",
"353 760 CURVE",
"155 760 LINE",
"190 732 OFFCURVE",
"223 704 OFFCURVE",
"253 674 CURVE",
"243 671 OFFCURVE",
"232 667 OFFCURVE",
"221 664 CURVE",
"235 622 OFFCURVE",
"249 580 OFFCURVE",
"263 537 CURVE"
);
},
{
closed = 1;
nodes = (
"428 196 OFFCURVE",
"358 134 OFFCURVE",
"295 134 CURVE SMOOTH",
"229 134 OFFCURVE",
"209 186 OFFCURVE",
"209 231 CURVE SMOOTH",
"209 313 OFFCURVE",
"268 375 OFFCURVE",
"342 375 CURVE SMOOTH",
"373 375 OFFCURVE",
"405 359 OFFCURVE",
"427 316 CURVE",
"427 309 OFFCURVE",
"428 302 OFFCURVE",
"428 296 CURVE SMOOTH",
"428 290 OFFCURVE",
"428 283 OFFCURVE",
"428 277 CURVE SMOOTH"
);
}
);
width = 577;
}
);
leftKerningGroup = o;
rightKerningGroup = o;
unicode = 00F0;
},
{
color = 6;
glyphname = dcaron;
layers = (
{
background = {
paths = (
{
closed = 1;
nodes = (
"449 760 LINE",
"716 760 LINE",
"572 134 LINE",
"665 134 LINE",
"634 0 LINE",
"375 0 LINE",
"384 38 LINE",
"376 29 LINE",
"365 21 LINE",
"353 13 LINE",
"321 -1 LINE",
"283 -9 LINE",
"261 -9 LINE",
"211 -9 LINE",
"133 27 LINE",
"79 88 LINE",
"50 169 LINE",
"50 214 LINE",
"50 261 LINE",
"74 342 LINE",
"117 410 LINE",
"176 463 LINE",
"246 499 LINE",
"324 518 LINE",
"364 518 LINE",
"381 518 LINE",
"417 513 LINE",
"451 503 LINE",
"465 496 LINE",
"478 490 LINE",
"486 483 LINE",
"519 626 LINE",
"418 626 LINE"
);
},
{
closed = 1;
nodes = (
"374 167 LINE",
"403 184 LINE",
"423 211 LINE",
"449 321 LINE",
"444 330 LINE",
"437 338 LINE",
"427 350 LINE",
"398 365 LINE",
"366 373 LINE",
"349 373 LINE",
"323 373 LINE",
"276 353 LINE",
"241 318 LINE",
"221 270 LINE",
"221 242 LINE",
"221 221 LINE",
"234 187 LINE",
"257 163 LINE",
"288 150 LINE",
"306 150 LINE",
"341 150 LINE"
);
},
{
closed = 1;
nodes = (
"0 760 LINE",
"800 760 LINE",
"800 0 LINE",
"0 0 LINE"
);
}
);
};
components = (
{
alignment = -1;
name = d;
},
{
alignment = -1;
name = caroncomb.alt;
transform = "{1, 0, 0, 1, 620, 0}";
}
);
layerId = "8956C7A5-95B5-4256-B2D2-E489185594C4";
width = 804;
},
{
background = {
paths = (
{
closed = 1;
nodes = (
"449 760 LINE",
"716 760 LINE",
"572 134 LINE",
"665 134 LINE",
"634 0 LINE",
"375 0 LINE",
"384 38 LINE",
"376 29 LINE",
"365 21 LINE",
"353 13 LINE",
"321 -1 LINE",
"283 -9 LINE",
"261 -9 LINE",
"211 -9 LINE",
"133 27 LINE",
"79 88 LINE",
"50 169 LINE",
"50 214 LINE",
"50 261 LINE",
"74 342 LINE",
"117 410 LINE",
"176 463 LINE",
"246 499 LINE",
"324 518 LINE",
"364 518 LINE",
"381 518 LINE",
"417 513 LINE",
"451 503 LINE",
"465 496 LINE",
"478 490 LINE",
"486 483 LINE",
"519 626 LINE",
"418 626 LINE"
);
},
{
closed = 1;
nodes = (
"374 167 LINE",
"403 184 LINE",
"423 211 LINE",
"449 321 LINE",
"444 330 LINE",
"437 338 LINE",
"427 350 LINE",
"398 365 LINE",
"366 373 LINE",
"349 373 LINE",
"323 373 LINE",
"276 353 LINE",
"241 318 LINE",
"221 270 LINE",
"221 242 LINE",
"221 221 LINE",
"234 187 LINE",
"257 163 LINE",
"288 150 LINE",
"306 150 LINE",
"341 150 LINE"
);
},
{
closed = 1;
nodes = (
"0 760 LINE",
"800 760 LINE",
"800 0 LINE",
"0 0 LINE"
);
}
);
};
components = (
{
alignment = -1;
name = d;
},
{
alignment = -1;
name = quotesingle;
transform = "{1, 0, 0, 1, 579, 0}";
}
);
layerId = "EEC59083-BA83-4EFB-8B50-D01213A5FD15";
width = 676;
}
);
leftKerningGroup = a;
rightKerningGroup = d;
unicode = 010F;
},
{
glyphname = e;
layers = (
{
anchors = (
{
name = top;
position = "{361, 506}";
}
);
layerId = "EEC59083-BA83-4EFB-8B50-D01213A5FD15";
paths = (
{
closed = 1;
nodes = (
"545 236 LINE",
"550 262 OFFCURVE",
"554 294 OFFCURVE",
"554 327 CURVE SMOOTH",
"554 427 OFFCURVE",
"479 521 OFFCURVE",
"350 521 CURVE SMOOTH",
"183 521 OFFCURVE",
"57 385 OFFCURVE",
"57 217 CURVE SMOOTH",
"57 71 OFFCURVE",
"156 -15 OFFCURVE",
"281 -15 CURVE SMOOTH",
"369 -15 OFFCURVE",
"451 22 OFFCURVE",
"495 80 CURVE",
"471 98 OFFCURVE",
"447 115 OFFCURVE",
"423 133 CURVE",
"391 93 OFFCURVE",
"341 71 OFFCURVE",
"289 71 CURVE SMOOTH",
"211 71 OFFCURVE",
"155 133 OFFCURVE",
"155 215 CURVE SMOOTH",
"155 221 OFFCURVE",
"155 227 OFFCURVE",
"156 236 CURVE"
);
},
{
closed = 1;
nodes = (
"411 438 OFFCURVE",
"462 396 OFFCURVE",
"460 315 CURVE",
"171 315 LINE",
"198 385 OFFCURVE",
"259 438 OFFCURVE",
"337 438 CURVE SMOOTH"
);
}
);
width = 597;
},
{
anchors = (
{
name = top;
position = "{355, 506}";
}
);
layerId = "8956C7A5-95B5-4256-B2D2-E489185594C4";
paths = (
{
closed = 1;
nodes = (
"570 215 LINE",
"579 243 OFFCURVE",
"585 285 OFFCURVE",
"585 311 CURVE SMOOTH",
"585 421 OFFCURVE",
"490 521 OFFCURVE",
"359 521 CURVE SMOOTH",
"194 521 OFFCURVE",
"50 397 OFFCURVE",
"50 211 CURVE SMOOTH",
"50 73 OFFCURVE",
"154 -13 OFFCURVE",
"281 -13 CURVE SMOOTH",
"379 -13 OFFCURVE",
"468 19 OFFCURVE",
"533 89 CURVE",
"498 120 OFFCURVE",
"461 152 OFFCURVE",
"426 183 CURVE",
"390 152 OFFCURVE",
"356 130 OFFCURVE",
"304 130 CURVE SMOOTH",
"262 130 OFFCURVE",
"235 146 OFFCURVE",
"221 171 CURVE SMOOTH",
"214 184 OFFCURVE",
"210 199 OFFCURVE",
"209 215 CURVE"
);
},
{
closed = 1;
nodes = (
"397 395 OFFCURVE",
"435 360 OFFCURVE",
"438 325 CURVE",
"227 325 LINE",
"245 370 OFFCURVE",
"291 395 OFFCURVE",
"343 395 CURVE SMOOTH"
);
}
);
width = 575;
}
);
leftKerningGroup = o;
rightKerningGroup = e;
unicode = 0065;
},
{
color = 6;
glyphname = ecaron;
layers = (
{
background = {
paths = (
{
closed = 1;
nodes = (
"209 215 LINE",
"210 203 LINE",
"213 192 LINE",
"218 174 LINE",
"241 146 LINE",
"278 130 LINE",
"304 130 LINE",
"324 130 LINE",
"356 138 LINE",
"386 152 LINE",
"413 171 LINE",
"426 183 LINE",
"533 89 LINE",
"484 36 LINE",
"355 -13 LINE",
"281 -13 LINE",
"233 -13 LINE",
"149 18 LINE",
"86 76 LINE",
"50 159 LINE",
"50 211 LINE",
"50 281 LINE",
"100 395 LINE",
"185 477 LINE",
"297 521 LINE",
"359 521 LINE",
"408 521 LINE",
"491 486 LINE",
"551 428 LINE",
"585 352 LINE",
"585 311 LINE",
"585 301 LINE",
"583 277 LINE",
"579 251 LINE",
"573 226 LINE",
"570 215 LINE"
);
},
{
closed = 1;
nodes = (
"230 332 LINE",
"228 329 LINE",
"227 325 LINE",
"438 325 LINE",
"437 338 LINE",
"422 363 LINE",
"397 383 LINE",
"363 395 LINE",
"343 395 LINE",
"318 395 LINE",
"274 380 LINE",
"240 353 LINE"
);
},
{
closed = 1;
nodes = (
"598 734 LINE",
"424 575 LINE",
"307 575 LINE",
"211 734 LINE",
"332 734 LINE",
"379 657 LINE",
"463 734 LINE"
);
},
{
closed = 1;
nodes = (
"0 760 LINE",
"575 760 LINE",
"575 0 LINE",
"0 0 LINE"
);
}
);
};
components = (
{
name = e;
},
{
name = caroncomb;
transform = "{1, 0, 0, 1, 115, 0}";
}
);
layerId = "8956C7A5-95B5-4256-B2D2-E489185594C4";
width = 575;
},
{
background = {
paths = (
{
closed = 1;
nodes = (
"209 215 LINE",
"210 203 LINE",
"213 192 LINE",
"218 174 LINE",
"241 146 LINE",
"278 130 LINE",
"304 130 LINE",
"324 130 LINE",
"356 138 LINE",
"386 152 LINE",
"413 171 LINE",
"426 183 LINE",
"533 89 LINE",
"484 36 LINE",
"355 -13 LINE",
"281 -13 LINE",
"233 -13 LINE",
"149 18 LINE",
"86 76 LINE",
"50 159 LINE",
"50 211 LINE",
"50 281 LINE",
"100 395 LINE",
"185 477 LINE",
"297 521 LINE",
"359 521 LINE",
"408 521 LINE",
"491 486 LINE",
"551 428 LINE",
"585 352 LINE",
"585 311 LINE",
"585 301 LINE",
"583 277 LINE",
"579 251 LINE",
"573 226 LINE",
"570 215 LINE"
);
},
{
closed = 1;
nodes = (
"230 332 LINE",
"228 329 LINE",
"227 325 LINE",
"438 325 LINE",
"437 338 LINE",
"422 363 LINE",
"397 383 LINE",
"363 395 LINE",
"343 395 LINE",
"318 395 LINE",
"274 380 LINE",
"240 353 LINE"
);
},
{
closed = 1;
nodes = (
"598 734 LINE",
"424 575 LINE",
"307 575 LINE",
"211 734 LINE",
"332 734 LINE",
"379 657 LINE",
"463 734 LINE"
);
},
{
closed = 1;
nodes = (
"0 760 LINE",
"575 760 LINE",
"575 0 LINE",
"0 0 LINE"
);
}
);
};
components = (
{
name = e;
},
{
name = caroncomb;
transform = "{1, 0, 0, 1, 95, 0}";
}
);
layerId = "EEC59083-BA83-4EFB-8B50-D01213A5FD15";
width = 597;
}
);
leftKerningGroup = o;
rightKerningGroup = e;
unicode = 011B;
},
{
color = 6;
glyphname = edotaccent;
layers = (
{
background = {
paths = (
{
closed = 1;
nodes = (
"209 215 LINE",
"210 203 LINE",
"213 192 LINE",
"218 174 LINE",
"241 146 LINE",
"278 130 LINE",
"304 130 LINE",
"324 130 LINE",
"356 138 LINE",
"386 152 LINE",
"413 171 LINE",
"426 183 LINE",
"533 89 LINE",
"484 36 LINE",
"355 -13 LINE",
"281 -13 LINE",
"233 -13 LINE",
"149 18 LINE",
"86 76 LINE",
"50 159 LINE",
"50 211 LINE",
"50 281 LINE",
"100 395 LINE",
"185 477 LINE",
"297 521 LINE",
"359 521 LINE",
"408 521 LINE",
"491 486 LINE",
"551 428 LINE",
"585 352 LINE",
"585 311 LINE",
"585 301 LINE",
"583 277 LINE",
"579 251 LINE",
"573 226 LINE",
"570 215 LINE"
);
},
{
closed = 1;
nodes = (
"230 332 LINE",
"228 329 LINE",
"227 325 LINE",
"438 325 LINE",
"437 338 LINE",
"422 363 LINE",
"397 383 LINE",
"363 395 LINE",
"343 395 LINE",
"318 395 LINE",
"274 380 LINE",
"240 353 LINE"
);
},
{
closed = 1;
nodes = (
"272 669 LINE",
"272 687 LINE",
"285 719 LINE",
"309 742 LINE",
"340 756 LINE",
"359 756 LINE",
"376 756 LINE",
"408 742 LINE",
"431 719 LINE",
"445 687 LINE",
"445 669 LINE",
"445 651 LINE",
"431 619 LINE",
"408 596 LINE",
"376 582 LINE",
"359 582 LINE",
"340 582 LINE",
"309 596 LINE",
"285 619 LINE",
"272 651 LINE"
);
},
{
closed = 1;
nodes = (
"0 760 LINE",
"575 760 LINE",
"575 0 LINE",
"0 0 LINE"
);
}
);
};
components = (
{
name = e;
},
{
name = dotaccent;
transform = "{1, 0, 0, 1, 219, 0}";
}
);
layerId = "8956C7A5-95B5-4256-B2D2-E489185594C4";
width = 575;
},
{
background = {
paths = (
{
closed = 1;
nodes = (
"209 215 LINE",
"210 203 LINE",
"213 192 LINE",
"218 174 LINE",
"241 146 LINE",
"278 130 LINE",
"304 130 LINE",
"324 130 LINE",
"356 138 LINE",
"386 152 LINE",
"413 171 LINE",
"426 183 LINE",
"533 89 LINE",
"484 36 LINE",
"355 -13 LINE",
"281 -13 LINE",
"233 -13 LINE",
"149 18 LINE",
"86 76 LINE",
"50 159 LINE",
"50 211 LINE",
"50 281 LINE",
"100 395 LINE",
"185 477 LINE",
"297 521 LINE",
"359 521 LINE",
"408 521 LINE",
"491 486 LINE",
"551 428 LINE",
"585 352 LINE",
"585 311 LINE",
"585 301 LINE",
"583 277 LINE",
"579 251 LINE",
"573 226 LINE",
"570 215 LINE"
);
},
{
closed = 1;
nodes = (
"230 332 LINE",
"228 329 LINE",
"227 325 LINE",
"438 325 LINE",
"437 338 LINE",
"422 363 LINE",
"397 383 LINE",
"363 395 LINE",
"343 395 LINE",
"318 395 LINE",
"274 380 LINE",
"240 353 LINE"
);
},
{
closed = 1;
nodes = (
"272 669 LINE",
"272 687 LINE",
"285 719 LINE",
"309 742 LINE",
"340 756 LINE",
"359 756 LINE",
"376 756 LINE",
"408 742 LINE",
"431 719 LINE",
"445 687 LINE",
"445 669 LINE",
"445 651 LINE",
"431 619 LINE",
"408 596 LINE",
"376 582 LINE",
"359 582 LINE",
"340 582 LINE",
"309 596 LINE",
"285 619 LINE",
"272 651 LINE"
);
},
{
closed = 1;
nodes = (
"0 760 LINE",
"575 760 LINE",
"575 0 LINE",
"0 0 LINE"
);
}
);
};
components = (
{
name = e;
},
{
name = dotaccent;
transform = "{1, 0, 0, 1, 194, 0}";
}
);
layerId = "EEC59083-BA83-4EFB-8B50-D01213A5FD15";
width = 597;
}
);
leftKerningGroup = o;
rightKerningGroup = e;
unicode = 0117;
},
{
color = 6;
glyphname = emacron;
layers = (
{
background = {
paths = (
{
closed = 1;
nodes = (
"209 215 LINE",
"210 203 LINE",
"213 192 LINE",
"218 174 LINE",
"241 146 LINE",
"278 130 LINE",
"304 130 LINE",
"324 130 LINE",
"356 138 LINE",
"386 152 LINE",
"413 171 LINE",
"426 183 LINE",
"533 89 LINE",
"484 36 LINE",
"355 -13 LINE",
"281 -13 LINE",
"233 -13 LINE",
"149 18 LINE",
"86 76 LINE",
"50 159 LINE",
"50 211 LINE",
"50 281 LINE",
"100 395 LINE",
"185 477 LINE",
"297 521 LINE",
"359 521 LINE",
"408 521 LINE",
"491 486 LINE",
"551 428 LINE",
"585 352 LINE",
"585 311 LINE",
"585 301 LINE",
"583 277 LINE",
"579 251 LINE",
"573 226 LINE",
"570 215 LINE"
);
},
{
closed = 1;
nodes = (
"230 332 LINE",
"228 329 LINE",
"227 325 LINE",
"438 325 LINE",
"437 338 LINE",
"422 363 LINE",
"397 383 LINE",
"363 395 LINE",
"343 395 LINE",
"318 395 LINE",
"274 380 LINE",
"240 353 LINE"
);
},
{
closed = 1;
nodes = (
"531 574 LINE",
"195 574 LINE",
"195 679 LINE",
"531 679 LINE"
);
},
{
closed = 1;
nodes = (
"0 760 LINE",
"575 760 LINE",
"575 0 LINE",
"0 0 LINE"
);
}
);
};
components = (
{
name = e;
},
{
name = macroncomb;
transform = "{1, 0, 0, 1, 129, 0}";
}
);
layerId = "8956C7A5-95B5-4256-B2D2-E489185594C4";
width = 575;
},
{
background = {
paths = (
{
closed = 1;
nodes = (
"209 215 LINE",
"210 203 LINE",
"213 192 LINE",
"218 174 LINE",
"241 146 LINE",
"278 130 LINE",
"304 130 LINE",
"324 130 LINE",
"356 138 LINE",
"386 152 LINE",
"413 171 LINE",
"426 183 LINE",
"533 89 LINE",
"484 36 LINE",
"355 -13 LINE",
"281 -13 LINE",
"233 -13 LINE",
"149 18 LINE",
"86 76 LINE",
"50 159 LINE",
"50 211 LINE",
"50 281 LINE",
"100 395 LINE",
"185 477 LINE",
"297 521 LINE",
"359 521 LINE",
"408 521 LINE",
"491 486 LINE",
"551 428 LINE",
"585 352 LINE",
"585 311 LINE",
"585 301 LINE",
"583 277 LINE",
"579 251 LINE",
"573 226 LINE",
"570 215 LINE"
);
},
{
closed = 1;
nodes = (
"230 332 LINE",
"228 329 LINE",
"227 325 LINE",
"438 325 LINE",
"437 338 LINE",
"422 363 LINE",
"397 383 LINE",
"363 395 LINE",
"343 395 LINE",
"318 395 LINE",
"274 380 LINE",
"240 353 LINE"
);
},
{
closed = 1;
nodes = (
"531 574 LINE",
"195 574 LINE",
"195 679 LINE",
"531 679 LINE"
);
},
{
closed = 1;
nodes = (
"0 760 LINE",
"575 760 LINE",
"575 0 LINE",
"0 0 LINE"
);
}
);
};
components = (
{
name = e;
},
{
name = macroncomb;
transform = "{1, 0, 0, 1, 116, 0}";
}
);
layerId = "EEC59083-BA83-4EFB-8B50-D01213A5FD15";
width = 597;
}
);
leftKerningGroup = o;
rightKerningGroup = e;
unicode = 0113;
},
{
color = 6;
glyphname = eogonek;
layers = (
{
background = {
paths = (
{
closed = 1;
nodes = (
"158 -127 LINE",
"158 -89 LINE",
"194 -28 LINE",
"221 -6 LINE",
"184 2 LINE",
"122 39 LINE",
"76 95 LINE",
"50 167 LINE",
"50 211 LINE",
"50 281 LINE",
"100 395 LINE",
"185 476 LINE",
"297 521 LINE",
"359 521 LINE",
"408 521 LINE",
"491 486 LINE",
"551 428 LINE",
"585 352 LINE",
"585 311 LINE",
"585 291 LINE",
"577 236 LINE",
"570 215 LINE",
"209 215 LINE",
"210 203 LINE",
"216 182 LINE",
"221 172 LINE",
"226 163 LINE",
"242 147 LINE",
"262 136 LINE",
"288 130 LINE",
"304 130 LINE",
"343 130 LINE",
"399 160 LINE",
"426 183 LINE",
"453 160 LINE",
"506 112 LINE",
"533 89 LINE",
"479 31 LINE",
"403 6 LINE",
"378 -4 LINE",
"331 -29 LINE",
"295 -57 LINE",
"273 -89 LINE",
"273 -105 LINE",
"273 -124 LINE",
"297 -138 LINE",
"308 -138 LINE",
"327 -138 LINE",
"353 -132 LINE",
"363 -127 LINE",
"369 -148 LINE",
"381 -189 LINE",
"387 -210 LINE",
"376 -216 LINE",
"326 -230 LINE",
"300 -230 LINE",
"270 -230 LINE",
"219 -216 LINE",
"180 -190 LINE",
"158 -152 LINE"
);
},
{
closed = 1;
nodes = (
"343 395 LINE",
"304 395 LINE",
"240 359 LINE",
"226 325 LINE",
"438 325 LINE",
"437 338 LINE",
"422 363 LINE",
"397 383 LINE",
"363 395 LINE"
);
},
{
closed = 1;
nodes = (
"0 760 LINE",
"575 760 LINE",
"575 0 LINE",
"0 0 LINE"
);
}
);
};
layerId = "8956C7A5-95B5-4256-B2D2-E489185594C4";
paths = (
{
closed = 1;
nodes = (
"336 47 LINE",
"262 31 OFFCURVE",
"158 -27 OFFCURVE",
"158 -127 CURVE SMOOTH",
"158 -193 OFFCURVE",
"221 -230 OFFCURVE",
"300 -230 CURVE SMOOTH",
"335 -230 OFFCURVE",
"373 -218 OFFCURVE",
"387 -210 CURVE",
"363 -127 LINE",
"350 -133 OFFCURVE",
"333 -138 OFFCURVE",
"308 -138 CURVE SMOOTH",
"294 -138 OFFCURVE",
"273 -130 OFFCURVE",
"273 -105 CURVE SMOOTH",
"273 -61 OFFCURVE",
"336 -20 OFFCURVE",
"403 6 CURVE"
);
},
{
closed = 1;
nodes = (
"112 215 LINE",
"570 215 LINE",
"579 243 OFFCURVE",
"585 285 OFFCURVE",
"585 311 CURVE SMOOTH",
"585 421 OFFCURVE",
"490 521 OFFCURVE",
"359 521 CURVE SMOOTH",
"194 521 OFFCURVE",
"50 397 OFFCURVE",
"50 211 CURVE SMOOTH",
"50 73 OFFCURVE",
"154 -13 OFFCURVE",
"281 -13 CURVE SMOOTH",
"379 -13 OFFCURVE",
"468 19 OFFCURVE",
"533 89 CURVE",
"426 183 LINE",
"390 152 OFFCURVE",
"356 130 OFFCURVE",
"304 130 CURVE SMOOTH",
"234 130 OFFCURVE",
"206 176 OFFCURVE",
"209 232 CURVE SMOOTH",
"209 241 OFFCURVE",
"219 284 OFFCURVE",
"219 286 CURVE SMOOTH",
"220 355 OFFCURVE",
"278 395 OFFCURVE",
"343 395 CURVE SMOOTH",
"397 395 OFFCURVE",
"435 360 OFFCURVE",
"438 325 CURVE",
"138 325 LINE"
);
}
);
width = 575;
},
{
background = {
paths = (
{
closed = 1;
nodes = (
"158 -127 LINE",
"158 -89 LINE",
"194 -28 LINE",
"221 -6 LINE",
"184 2 LINE",
"122 39 LINE",
"76 95 LINE",
"50 167 LINE",
"50 211 LINE",
"50 281 LINE",
"100 395 LINE",
"185 476 LINE",
"297 521 LINE",
"359 521 LINE",
"408 521 LINE",
"491 486 LINE",
"551 428 LINE",
"585 352 LINE",
"585 311 LINE",
"585 291 LINE",
"577 236 LINE",
"570 215 LINE",
"209 215 LINE",
"210 203 LINE",
"216 182 LINE",
"221 172 LINE",
"226 163 LINE",
"242 147 LINE",
"262 136 LINE",
"288 130 LINE",
"304 130 LINE",
"343 130 LINE",
"399 160 LINE",
"426 183 LINE",
"453 160 LINE",
"506 112 LINE",
"533 89 LINE",
"479 31 LINE",
"403 6 LINE",
"378 -4 LINE",
"331 -29 LINE",
"295 -57 LINE",
"273 -89 LINE",
"273 -105 LINE",
"273 -124 LINE",
"297 -138 LINE",
"308 -138 LINE",
"327 -138 LINE",
"353 -132 LINE",
"363 -127 LINE",
"369 -148 LINE",
"381 -189 LINE",
"387 -210 LINE",
"376 -216 LINE",
"326 -230 LINE",
"300 -230 LINE",
"270 -230 LINE",
"219 -216 LINE",
"180 -190 LINE",
"158 -152 LINE"
);
},
{
closed = 1;
nodes = (
"343 395 LINE",
"304 395 LINE",
"240 359 LINE",
"226 325 LINE",
"438 325 LINE",
"437 338 LINE",
"422 363 LINE",
"397 383 LINE",
"363 395 LINE"
);
},
{
closed = 1;
nodes = (
"0 760 LINE",
"575 760 LINE",
"575 0 LINE",
"0 0 LINE"
);
}
);
};
layerId = "EEC59083-BA83-4EFB-8B50-D01213A5FD15";
paths = (
{
closed = 1;
nodes = (
"358 47 LINE",
"301 32 OFFCURVE",
"185 -27 OFFCURVE",
"185 -127 CURVE SMOOTH",
"185 -193 OFFCURVE",
"243 -230 OFFCURVE",
"322 -230 CURVE SMOOTH",
"359 -230 OFFCURVE",
"392 -219 OFFCURVE",
"409 -209 CURVE",
"388 -147 LINE",
"375 -153 OFFCURVE",
"350 -158 OFFCURVE",
"325 -158 CURVE SMOOTH",
"292 -158 OFFCURVE",
"270 -137 OFFCURVE",
"270 -110 CURVE SMOOTH",
"270 -61 OFFCURVE",
"318 -28 OFFCURVE",
"404 11 CURVE"
);
},
{
closed = 1;
nodes = (
"108 236 LINE",
"545 236 LINE",
"550 262 OFFCURVE",
"554 294 OFFCURVE",
"554 327 CURVE SMOOTH",
"554 427 OFFCURVE",
"479 521 OFFCURVE",
"350 521 CURVE SMOOTH",
"183 521 OFFCURVE",
"57 385 OFFCURVE",
"57 217 CURVE SMOOTH",
"57 71 OFFCURVE",
"156 -15 OFFCURVE",
"281 -15 CURVE SMOOTH",
"369 -15 OFFCURVE",
"451 22 OFFCURVE",
"495 80 CURVE",
"423 133 LINE",
"391 93 OFFCURVE",
"341 71 OFFCURVE",
"289 71 CURVE SMOOTH",
"211 71 OFFCURVE",
"155 133 OFFCURVE",
"155 215 CURVE SMOOTH",
"155 223 OFFCURVE",
"156 231 OFFCURVE",
"157 246 CURVE SMOOTH",
"163 348 OFFCURVE",
"236 438 OFFCURVE",
"337 438 CURVE SMOOTH",
"411 438 OFFCURVE",
"462 396 OFFCURVE",
"460 315 CURVE",
"124 315 LINE"
);
}
);
width = 571;
}
);
leftKerningGroup = o;
rightKerningGroup = e;
unicode = 0119;
},
{
glyphname = f;
layers = (
{
anchors = (
{
name = top;
position = "{57, 506}";
}
);
layerId = "EEC59083-BA83-4EFB-8B50-D01213A5FD15";
paths = (
{
closed = 1;
nodes = (
"62 422 LINE",
"166 422 LINE",
"17 -230 LINE",
"116 -230 LINE",
"265 422 LINE",
"402 422 LINE",
"422 506 LINE",
"284 506 LINE",
"304 590 LINE SMOOTH",
"320 660 OFFCURVE",
"358 686 OFFCURVE",
"410 686 CURVE SMOOTH",
"444 686 OFFCURVE",
"476 676 OFFCURVE",
"493 665 CURVE",
"543 740 LINE",
"520 753 OFFCURVE",
"476 770 OFFCURVE",
"414 770 CURVE SMOOTH",
"311 770 OFFCURVE",
"235 720 OFFCURVE",
"206 595 CURVE",
"185 506 LINE",
"82 506 LINE"
);
}
);
width = 396;
},
{
anchors = (
{
name = top;
position = "{126, 506}";
}
);
layerId = "8956C7A5-95B5-4256-B2D2-E489185594C4";
paths = (
{
closed = 1;
nodes = (
"56 363 LINE",
"154 363 LINE",
"15 -230 LINE",
"180 -230 LINE",
"318 363 LINE",
"427 363 LINE",
"460 506 LINE",
"352 506 LINE",
"367 571 LINE SMOOTH",
"376 609 OFFCURVE",
"405 629 OFFCURVE",
"434 629 CURVE SMOOTH",
"459 629 OFFCURVE",
"470 623 OFFCURVE",
"481 612 CURVE",
"571 725 LINE",
"560 743 OFFCURVE",
"512 771 OFFCURVE",
"437 771 CURVE SMOOTH",
"327 771 OFFCURVE",
"236 716 OFFCURVE",
"207 589 CURVE",
"188 506 LINE",
"89 506 LINE"
);
}
);
width = 391;
}
);
leftKerningGroup = f;
rightKerningGroup = f;
unicode = 0066;
},
{
glyphname = g;
layers = (
{
anchors = (
{
name = bottom;
position = "{189, -230}";
},
{
name = top;
position = "{350, 506}";
}
);
layerId = "EEC59083-BA83-4EFB-8B50-D01213A5FD15";
paths = (
{
closed = 1;
nodes = (
"380 22 LINE",
"350 -109 OFFCURVE",
"291 -144 OFFCURVE",
"197 -144 CURVE SMOOTH",
"136 -144 OFFCURVE",
"76 -119 OFFCURVE",
"45 -86 CURVE",
"-18 -157 LINE",
"31 -207 OFFCURVE",
"117 -230 OFFCURVE",
"189 -230 CURVE SMOOTH",
"346 -230 OFFCURVE",
"436 -163 OFFCURVE",
"475 6 CURVE SMOOTH",
"591 506 LINE",
"492 506 LINE",
"485 479 LINE",
"458 503 OFFCURVE",
"413 519 OFFCURVE",
"364 519 CURVE SMOOTH",
"193 519 OFFCURVE",
"51 387 OFFCURVE",
"51 198 CURVE SMOOTH",
"51 82 OFFCURVE",
"138 -9 OFFCURVE",
"249 -9 CURVE SMOOTH",
"299 -9 OFFCURVE",
"341 3 OFFCURVE",
"382 31 CURVE"
);
},
{
closed = 1;
nodes = (
"201 75 OFFCURVE",
"152 125 OFFCURVE",
"152 208 CURVE SMOOTH",
"152 351 OFFCURVE",
"257 435 OFFCURVE",
"357 435 CURVE SMOOTH",
"414 435 OFFCURVE",
"450 417 OFFCURVE",
"466 396 CURVE",
"404 125 LINE",
"366 94 OFFCURVE",
"321 75 OFFCURVE",
"272 75 CURVE SMOOTH"
);
}
);
width = 624;
},
{
anchors = (
{
name = bottom;
position = "{219, -230}";
},
{
name = top;
position = "{346, 506}";
}
);
layerId = "8956C7A5-95B5-4256-B2D2-E489185594C4";
paths = (
{
closed = 1;
nodes = (
"376 24 LINE",
"355 -65 OFFCURVE",
"292 -85 OFFCURVE",
"226 -85 CURVE SMOOTH",
"167 -85 OFFCURVE",
"115 -64 OFFCURVE",
"76 -36 CURVE",
"-10 -165 LINE",
"40 -204 OFFCURVE",
"116 -230 OFFCURVE",
"219 -230 CURVE SMOOTH",
"376 -230 OFFCURVE",
"495 -178 OFFCURVE",
"541 21 CURVE SMOOTH",
"656 518 LINE",
"490 518 LINE",
"482 483 LINE",
"458 501 OFFCURVE",
"408 518 OFFCURVE",
"360 518 CURVE SMOOTH",
"183 518 OFFCURVE",
"46 388 OFFCURVE",
"46 214 CURVE SMOOTH",
"46 73 OFFCURVE",
"154 0 OFFCURVE",
"257 0 CURVE SMOOTH",
"309 0 OFFCURVE",
"354 17 OFFCURVE",
"379 39 CURVE"
);
},
{
closed = 1;
nodes = (
"256 146 OFFCURVE",
"214 178 OFFCURVE",
"214 240 CURVE SMOOTH",
"214 314 OFFCURVE",
"275 373 OFFCURVE",
"345 373 CURVE SMOOTH",
"385 373 OFFCURVE",
"427 355 OFFCURVE",
"445 322 CURVE",
"418 208 LINE",
"391 166 OFFCURVE",
"347 146 OFFCURVE",
"306 146 CURVE SMOOTH"
);
}
);
width = 636;
}
);
leftKerningGroup = a;
rightKerningGroup = g;
unicode = 0067;
},
{
color = 6;
glyphname = gbreve;
layers = (
{
background = {
paths = (
{
closed = 1;
nodes = (
"379 39 LINE",
"361 23 LINE",
"330 12 LINE",
"297 0 LINE",
"257 0 LINE",
"218 0 LINE",
"143 27 LINE",
"83 81 LINE",
"46 161 LINE",
"46 214 LINE",
"46 279 LINE",
"94 391 LINE",
"179 472 LINE",
"293 518 LINE",
"360 518 LINE",
"379 518 LINE",
"417 512 LINE",
"450 501 LINE",
"482 483 LINE",
"490 518 LINE",
"656 518 LINE",
"541 21 LINE",
"524 -54 LINE",
"463 -151 LINE",
"380 -208 LINE",
"278 -230 LINE",
"219 -230 LINE",
"142 -230 LINE",
"28 -194 LINE",
"-10 -165 LINE",
"76 -36 LINE",
"105 -57 LINE",
"182 -85 LINE",
"226 -85 LINE",
"251 -85 LINE",
"298 -76 LINE",
"338 -52 LINE",
"368 -9 LINE",
"376 24 LINE"
);
},
{
closed = 1;
nodes = (
"399 185 LINE",
"410 195 LINE",
"418 208 LINE",
"445 322 LINE",
"428 348 LINE",
"396 365 LINE",
"363 373 LINE",
"345 373 LINE",
"319 373 LINE",
"271 352 LINE",
"235 316 LINE",
"214 268 LINE",
"214 240 LINE",
"214 217 LINE",
"229 182 LINE",
"254 158 LINE",
"287 146 LINE",
"306 146 LINE",
"322 146 LINE",
"355 154 LINE",
"386 171 LINE"
);
},
{
closed = 1;
nodes = (
"357 565 LINE",
"311 565 LINE",
"240 586 LINE",
"188 626 LINE",
"153 685 LINE",
"141 723 LINE",
"264 723 LINE",
"274 694 LINE",
"320 663 LINE",
"357 663 LINE",
"392 663 LINE",
"437 691 LINE",
"449 723 LINE",
"571 723 LINE",
"561 686 LINE",
"525 627 LINE",
"473 586 LINE",
"403 565 LINE"
);
},
{
closed = 1;
nodes = (
"0 760 LINE",
"636 760 LINE",
"636 0 LINE",
"0 0 LINE"
);
}
);
};
components = (
{
name = g;
},
{
name = brevecomb;
transform = "{1, 0, 0, 1, 133, 0}";
}
);
layerId = "8956C7A5-95B5-4256-B2D2-E489185594C4";
width = 636;
},
{
background = {
paths = (
{
closed = 1;
nodes = (
"379 39 LINE",
"361 23 LINE",
"330 12 LINE",
"297 0 LINE",
"257 0 LINE",
"218 0 LINE",
"143 27 LINE",
"83 81 LINE",
"46 161 LINE",
"46 214 LINE",
"46 279 LINE",
"94 391 LINE",
"179 472 LINE",
"293 518 LINE",
"360 518 LINE",
"379 518 LINE",
"417 512 LINE",
"450 501 LINE",
"482 483 LINE",
"490 518 LINE",
"656 518 LINE",
"541 21 LINE",
"524 -54 LINE",
"463 -151 LINE",
"380 -208 LINE",
"278 -230 LINE",
"219 -230 LINE",
"142 -230 LINE",
"28 -194 LINE",
"-10 -165 LINE",
"76 -36 LINE",
"105 -57 LINE",
"182 -85 LINE",
"226 -85 LINE",
"251 -85 LINE",
"298 -76 LINE",
"338 -52 LINE",
"368 -9 LINE",
"376 24 LINE"
);
},
{
closed = 1;
nodes = (
"399 185 LINE",
"410 195 LINE",
"418 208 LINE",
"445 322 LINE",
"428 348 LINE",
"396 365 LINE",
"363 373 LINE",
"345 373 LINE",
"319 373 LINE",
"271 352 LINE",
"235 316 LINE",
"214 268 LINE",
"214 240 LINE",
"214 217 LINE",
"229 182 LINE",
"254 158 LINE",
"287 146 LINE",
"306 146 LINE",
"322 146 LINE",
"355 154 LINE",
"386 171 LINE"
);
},
{
closed = 1;
nodes = (
"357 565 LINE",
"311 565 LINE",
"240 586 LINE",
"188 626 LINE",
"153 685 LINE",
"141 723 LINE",
"264 723 LINE",
"274 694 LINE",
"320 663 LINE",
"357 663 LINE",
"392 663 LINE",
"437 691 LINE",
"449 723 LINE",
"571 723 LINE",
"561 686 LINE",
"525 627 LINE",
"473 586 LINE",
"403 565 LINE"
);
},
{
closed = 1;
nodes = (
"0 760 LINE",
"636 760 LINE",
"636 0 LINE",
"0 0 LINE"
);
}
);
};
components = (
{
name = g;
},
{
name = brevecomb;
transform = "{1, 0, 0, 1, 57, 0}";
}
);
layerId = "EEC59083-BA83-4EFB-8B50-D01213A5FD15";
width = 624;
}
);
leftKerningGroup = a;
rightKerningGroup = g;
unicode = 011F;
},
{
color = 6;
glyphname = gcommaaccent;
layers = (
{
background = {
paths = (
{
closed = 1;
nodes = (
"379 39 LINE",
"361 23 LINE",
"330 12 LINE",
"297 0 LINE",
"257 0 LINE",
"218 0 LINE",
"143 27 LINE",
"83 81 LINE",
"46 161 LINE",
"46 214 LINE",
"46 279 LINE",
"94 391 LINE",
"179 472 LINE",
"293 518 LINE",
"360 518 LINE",
"379 518 LINE",
"417 512 LINE",
"450 501 LINE",
"482 483 LINE",
"490 518 LINE",
"656 518 LINE",
"541 21 LINE",
"524 -54 LINE",
"463 -151 LINE",
"380 -208 LINE",
"278 -230 LINE",
"219 -230 LINE",
"142 -230 LINE",
"28 -194 LINE",
"-10 -165 LINE",
"76 -36 LINE",
"105 -57 LINE",
"182 -85 LINE",
"226 -85 LINE",
"251 -85 LINE",
"298 -76 LINE",
"338 -52 LINE",
"368 -9 LINE",
"376 24 LINE"
);
},
{
closed = 1;
nodes = (
"399 185 LINE",
"410 195 LINE",
"418 208 LINE",
"445 322 LINE",
"428 348 LINE",
"396 365 LINE",
"363 373 LINE",
"345 373 LINE",
"319 373 LINE",
"271 352 LINE",
"235 316 LINE",
"214 268 LINE",
"214 240 LINE",
"214 217 LINE",
"229 182 LINE",
"254 158 LINE",
"287 146 LINE",
"306 146 LINE",
"322 146 LINE",
"355 154 LINE",
"386 171 LINE"
);
},
{
closed = 1;
nodes = (
"430 543 LINE",
"289 594 LINE",
"385 759 LINE",
"486 724 LINE"
);
},
{
closed = 1;
nodes = (
"0 760 LINE",
"636 760 LINE",
"636 0 LINE",
"0 0 LINE"
);
}
);
};
components = (
{
name = g;
},
{
name = commaaccentcomb;
transform = "{1, 0, 0, 1, 173, -230}";
}
);
layerId = "8956C7A5-95B5-4256-B2D2-E489185594C4";
width = 636;
},
{
background = {
paths = (
{
closed = 1;
nodes = (
"379 39 LINE",
"361 23 LINE",
"330 12 LINE",
"297 0 LINE",
"257 0 LINE",
"218 0 LINE",
"143 27 LINE",
"83 81 LINE",
"46 161 LINE",
"46 214 LINE",
"46 279 LINE",
"94 391 LINE",
"179 472 LINE",
"293 518 LINE",
"360 518 LINE",
"379 518 LINE",
"417 512 LINE",
"450 501 LINE",
"482 483 LINE",
"490 518 LINE",
"656 518 LINE",
"541 21 LINE",
"524 -54 LINE",
"463 -151 LINE",
"380 -208 LINE",
"278 -230 LINE",
"219 -230 LINE",
"142 -230 LINE",
"28 -194 LINE",
"-10 -165 LINE",
"76 -36 LINE",
"105 -57 LINE",
"182 -85 LINE",
"226 -85 LINE",
"251 -85 LINE",
"298 -76 LINE",
"338 -52 LINE",
"368 -9 LINE",
"376 24 LINE"
);
},
{
closed = 1;
nodes = (
"399 185 LINE",
"410 195 LINE",
"418 208 LINE",
"445 322 LINE",
"428 348 LINE",
"396 365 LINE",
"363 373 LINE",
"345 373 LINE",
"319 373 LINE",
"271 352 LINE",
"235 316 LINE",
"214 268 LINE",
"214 240 LINE",
"214 217 LINE",
"229 182 LINE",
"254 158 LINE",
"287 146 LINE",
"306 146 LINE",
"322 146 LINE",
"355 154 LINE",
"386 171 LINE"
);
},
{
closed = 1;
nodes = (
"430 543 LINE",
"289 594 LINE",
"385 759 LINE",
"486 724 LINE"
);
},
{
closed = 1;
nodes = (
"0 760 LINE",
"636 760 LINE",
"636 0 LINE",
"0 0 LINE"
);
}
);
};
components = (
{
name = g;
},
{
name = commaaccentcomb;
transform = "{1, 0, 0, 1, 144, -230}";
}
);
layerId = "EEC59083-BA83-4EFB-8B50-D01213A5FD15";
width = 624;
}
);
leftKerningGroup = a;
rightKerningGroup = g;
unicode = 0123;
},
{
glyphname = h;
layers = (
{
anchors = (
{
name = top;
position = "{191, 506}";
}
);
layerId = "EEC59083-BA83-4EFB-8B50-D01213A5FD15";
paths = (
{
closed = 1;
nodes = (
"385 0 LINE",
"556 0 LINE",
"575 84 LINE",
"503 84 LINE",
"559 325 LINE SMOOTH",
"588 452 OFFCURVE",
"519 515 OFFCURVE",
"415 515 CURVE SMOOTH",
"358 515 OFFCURVE",
"303 491 OFFCURVE",
"255 455 CURVE",
"326 760 LINE",
"130 760 LINE",
"110 676 LINE",
"207 676 LINE",
"52 0 LINE",
"151 0 LINE",
"238 377 LINE",
"280 408 OFFCURVE",
"329 429 OFFCURVE",
"373 429 CURVE SMOOTH",
"444 429 OFFCURVE",
"476 389 OFFCURVE",
"458 313 CURVE"
);
}
);
width = 648;
},
{
anchors = (
{
name = top;
position = "{244, 506}";
}
);
layerId = "8956C7A5-95B5-4256-B2D2-E489185594C4";
paths = (
{
closed = 1;
nodes = (
"373 0 LINE",
"633 0 LINE",
"664 134 LINE",
"571 134 LINE",
"612 312 LINE SMOOTH",
"642 442 OFFCURVE",
"583 521 OFFCURVE",
"469 521 CURVE SMOOTH",
"416 521 OFFCURVE",
"367 499 OFFCURVE",
"324 465 CURVE",
"392 760 LINE",
"130 760 LINE",
"99 626 LINE",
"194 626 LINE",
"50 0 LINE",
"217 0 LINE",
"288 310 LINE",
"329 340 OFFCURVE",
"365 355 OFFCURVE",
"390 355 CURVE SMOOTH",
"426 355 OFFCURVE",
"447 322 OFFCURVE",
"436 272 CURVE"
);
}
);
width = 669;
}
);
leftKerningGroup = I;
rightKerningGroup = n;
unicode = 0068;
},
{
glyphname = i;
layers = (
{
layerId = "EEC59083-BA83-4EFB-8B50-D01213A5FD15";
paths = (
{
closed = 1;
nodes = (
"79 422 LINE",
"169 422 LINE",
"72 0 LINE",
"252 0 LINE",
"271 84 LINE",
"190 84 LINE",
"288 506 LINE",
"99 506 LINE"
);
},
{
closed = 1;
nodes = (
"192 649 OFFCURVE",
"221 618 OFFCURVE",
"257 618 CURVE SMOOTH",
"292 618 OFFCURVE",
"321 649 OFFCURVE",
"321 684 CURVE SMOOTH",
"321 719 OFFCURVE",
"292 748 OFFCURVE",
"257 748 CURVE SMOOTH",
"221 748 OFFCURVE",
"192 719 OFFCURVE",
"192 684 CURVE SMOOTH"
);
}
);
width = 354;
},
{
layerId = "8956C7A5-95B5-4256-B2D2-E489185594C4";
paths = (
{
closed = 1;
nodes = (
"70 372 LINE",
"163 372 LINE",
"77 0 LINE",
"337 0 LINE",
"368 134 LINE",
"275 134 LINE",
"361 506 LINE",
"101 506 LINE"
);
},
{
closed = 1;
nodes = (
"212 621 OFFCURVE",
"250 582 OFFCURVE",
"299 582 CURVE SMOOTH",
"346 582 OFFCURVE",
"385 621 OFFCURVE",
"385 669 CURVE SMOOTH",
"385 717 OFFCURVE",
"346 756 OFFCURVE",
"299 756 CURVE SMOOTH",
"250 756 OFFCURVE",
"212 717 OFFCURVE",
"212 669 CURVE SMOOTH"
);
}
);
width = 380;
}
);
leftKerningGroup = idotless;
rightKerningGroup = idotless;
unicode = 0069;
},
{
glyphname = idotless;
layers = (
{
anchors = (
{
name = top;
position = "{238, 506}";
}
);
layerId = "EEC59083-BA83-4EFB-8B50-D01213A5FD15";
paths = (
{
closed = 1;
nodes = (
"79 422 LINE",
"169 422 LINE",
"72 0 LINE",
"252 0 LINE",
"271 84 LINE",
"190 84 LINE",
"288 506 LINE",
"99 506 LINE"
);
}
);
width = 319;
},
{
anchors = (
{
name = top;
position = "{258, 506}";
}
);
layerId = "8956C7A5-95B5-4256-B2D2-E489185594C4";
paths = (
{
closed = 1;
nodes = (
"38 372 LINE",
"146 372 LINE",
"60 0 LINE",
"344 0 LINE",
"375 134 LINE",
"258 134 LINE",
"344 506 LINE",
"69 506 LINE"
);
}
);
width = 420;
}
);
leftKerningGroup = idotless;
rightKerningGroup = idotless;
unicode = 0131;
},
{
color = 6;
glyphname = idotless;
layers = (
{
anchors = (
{
name = top;
position = "{258, 506}";
}
);
background = {
paths = (
{
closed = 1;
nodes = (
"69 506 LINE",
"344 506 LINE",
"258 134 LINE",
"375 134 LINE",
"344 0 LINE",
"60 0 LINE",
"146 372 LINE",
"38 372 LINE"
);
},
{
closed = 1;
nodes = (
"0 760 LINE",
"420 760 LINE",
"420 0 LINE",
"0 0 LINE"
);
}
);
};
layerId = "8956C7A5-95B5-4256-B2D2-E489185594C4";
paths = (
{
closed = 1;
nodes = (
"144 0 LINE",
"344 0 LINE",
"375 134 LINE",
"175 134 LINE"
);
},
{
closed = 1;
nodes = (
"38 372 LINE",
"288 372 LINE",
"319 506 LINE",
"69 506 LINE"
);
},
{
closed = 1;
nodes = (
"227 0 LINE",
"344 506 LINE",
"177 506 LINE",
"60 0 LINE"
);
}
);
width = 420;
},
{
anchors = (
{
name = top;
position = "{227, 506}";
}
);
background = {
paths = (
{
closed = 1;
nodes = (
"69 506 LINE",
"344 506 LINE",
"258 134 LINE",
"375 134 LINE",
"344 0 LINE",
"60 0 LINE",
"146 372 LINE",
"38 372 LINE"
);
},
{
closed = 1;
nodes = (
"0 760 LINE",
"420 760 LINE",
"420 0 LINE",
"0 0 LINE"
);
}
);
};
layerId = "EEC59083-BA83-4EFB-8B50-D01213A5FD15";
paths = (
{
closed = 1;
nodes = (
"105 0 LINE",
"250 0 LINE",
"269 84 LINE",
"124 84 LINE"
);
},
{
closed = 1;
nodes = (
"77 422 LINE",
"262 422 LINE",
"282 506 LINE",
"97 506 LINE"
);
},
{
closed = 1;
nodes = (
"169 0 LINE",
"286 506 LINE",
"187 506 LINE",
"70 0 LINE"
);
}
);
width = 354;
}
);
leftKerningGroup = n;
rightKerningGroup = i;
unicode = 0131;
},
{
color = 6;
glyphname = imacron;
layers = (
{
background = {
paths = (
{
closed = 1;
nodes = (
"69 506 LINE",
"344 506 LINE",
"258 134 LINE",
"375 134 LINE",
"344 0 LINE",
"60 0 LINE",
"146 372 LINE",
"38 372 LINE"
);
},
{
closed = 1;
nodes = (
"426 574 LINE",
"90 574 LINE",
"90 679 LINE",
"426 679 LINE"
);
},
{
closed = 1;
nodes = (
"0 760 LINE",
"420 760 LINE",
"420 0 LINE",
"0 0 LINE"
);
}
);
};
components = (
{
name = idotless;
},
{
name = macroncomb.i;
transform = "{1, 0, 0, 1, 62, 0}";
}
);
layerId = "8956C7A5-95B5-4256-B2D2-E489185594C4";
width = 420;
},
{
background = {
paths = (
{
closed = 1;
nodes = (
"69 506 LINE",
"344 506 LINE",
"258 134 LINE",
"375 134 LINE",
"344 0 LINE",
"60 0 LINE",
"146 372 LINE",
"38 372 LINE"
);
},
{
closed = 1;
nodes = (
"426 574 LINE",
"90 574 LINE",
"90 679 LINE",
"426 679 LINE"
);
},
{
closed = 1;
nodes = (
"0 760 LINE",
"420 760 LINE",
"420 0 LINE",
"0 0 LINE"
);
}
);
};
components = (
{
name = idotless;
},
{
name = macroncomb.i;
transform = "{1, 0, 0, 1, 32, 0}";
}
);
layerId = "EEC59083-BA83-4EFB-8B50-D01213A5FD15";
width = 354;
}
);
leftKerningGroup = i;
rightKerningGroup = i;
unicode = 012B;
},
{
color = 6;
glyphname = iogonek;
layers = (
{
background = {
paths = (
{
closed = 1;
nodes = (
"101 506 LINE",
"361 506 LINE",
"275 134 LINE",
"368 134 LINE",
"337 0 LINE",
"271 0 LINE",
"243 -1 LINE",
"183 -19 LINE",
"132 -49 LINE",
"99 -87 LINE",
"99 -106 LINE",
"99 -125 LINE",
"126 -139 LINE",
"137 -139 LINE",
"156 -139 LINE",
"179 -133 LINE",
"189 -128 LINE",
"213 -211 LINE",
"202 -217 LINE",
"152 -231 LINE",
"126 -231 LINE",
"96 -231 LINE",
"45 -217 LINE",
"6 -191 LINE",
"-16 -153 LINE",
"-16 -128 LINE",
"-16 -89 LINE",
"37 -23 LINE",
"77 0 LINE",
"163 372 LINE",
"70 372 LINE"
);
},
{
closed = 1;
nodes = (
"212 669 LINE",
"212 705 LINE",
"262 756 LINE",
"299 756 LINE",
"317 756 LINE",
"348 742 LINE",
"371 719 LINE",
"385 687 LINE",
"385 669 LINE",
"385 651 LINE",
"371 619 LINE",
"348 596 LINE",
"317 582 LINE",
"299 582 LINE",
"262 582 LINE",
"212 633 LINE"
);
},
{
closed = 1;
nodes = (
"0 760 LINE",
"380 760 LINE",
"380 0 LINE",
"0 0 LINE"
);
}
);
};
layerId = "8956C7A5-95B5-4256-B2D2-E489185594C4";
paths = (
{
closed = 1;
nodes = (
"237 46 LINE",
"131 46 OFFCURVE",
"-16 -28 OFFCURVE",
"-16 -128 CURVE SMOOTH",
"-16 -194 OFFCURVE",
"47 -231 OFFCURVE",
"126 -231 CURVE SMOOTH",
"161 -231 OFFCURVE",
"199 -219 OFFCURVE",
"213 -211 CURVE",
"189 -128 LINE",
"176 -134 OFFCURVE",
"162 -139 OFFCURVE",
"137 -139 CURVE SMOOTH",
"123 -139 OFFCURVE",
"99 -131 OFFCURVE",
"99 -106 CURVE SMOOTH",
"99 -53 OFFCURVE",
"202 0 OFFCURVE",
"277 0 CURVE"
);
},
{
closed = 1;
nodes = (
"137 0 LINE",
"337 0 LINE",
"368 134 LINE",
"168 134 LINE"
);
},
{
closed = 1;
nodes = (
"70 372 LINE",
"320 372 LINE",
"351 506 LINE",
"101 506 LINE"
);
},
{
closed = 1;
nodes = (
"244 0 LINE",
"361 506 LINE",
"194 506 LINE",
"77 0 LINE"
);
},
{
closed = 1;
nodes = (
"212 621 OFFCURVE",
"250 582 OFFCURVE",
"299 582 CURVE SMOOTH",
"346 582 OFFCURVE",
"385 621 OFFCURVE",
"385 669 CURVE SMOOTH",
"385 717 OFFCURVE",
"346 756 OFFCURVE",
"299 756 CURVE SMOOTH",
"250 756 OFFCURVE",
"212 717 OFFCURVE",
"212 669 CURVE SMOOTH"
);
}
);
width = 380;
},
{
background = {
paths = (
{
closed = 1;
nodes = (
"101 506 LINE",
"361 506 LINE",
"275 134 LINE",
"368 134 LINE",
"337 0 LINE",
"271 0 LINE",
"243 -1 LINE",
"183 -19 LINE",
"132 -49 LINE",
"99 -87 LINE",
"99 -106 LINE",
"99 -125 LINE",
"126 -139 LINE",
"137 -139 LINE",
"156 -139 LINE",
"179 -133 LINE",
"189 -128 LINE",
"213 -211 LINE",
"202 -217 LINE",
"152 -231 LINE",
"126 -231 LINE",
"96 -231 LINE",
"45 -217 LINE",
"6 -191 LINE",
"-16 -153 LINE",
"-16 -128 LINE",
"-16 -89 LINE",
"37 -23 LINE",
"77 0 LINE",
"163 372 LINE",
"70 372 LINE"
);
},
{
closed = 1;
nodes = (
"212 669 LINE",
"212 705 LINE",
"262 756 LINE",
"299 756 LINE",
"317 756 LINE",
"348 742 LINE",
"371 719 LINE",
"385 687 LINE",
"385 669 LINE",
"385 651 LINE",
"371 619 LINE",
"348 596 LINE",
"317 582 LINE",
"299 582 LINE",
"262 582 LINE",
"212 633 LINE"
);
},
{
closed = 1;
nodes = (
"0 760 LINE",
"380 760 LINE",
"380 0 LINE",
"0 0 LINE"
);
}
);
};
layerId = "EEC59083-BA83-4EFB-8B50-D01213A5FD15";
paths = (
{
closed = 1;
nodes = (
"172 38 LINE",
"101 29 OFFCURVE",
"-6 -27 OFFCURVE",
"-6 -127 CURVE SMOOTH",
"-6 -193 OFFCURVE",
"52 -230 OFFCURVE",
"131 -230 CURVE SMOOTH",
"168 -230 OFFCURVE",
"201 -219 OFFCURVE",
"218 -209 CURVE",
"197 -147 LINE",
"184 -153 OFFCURVE",
"159 -158 OFFCURVE",
"134 -158 CURVE SMOOTH",
"101 -158 OFFCURVE",
"79 -137 OFFCURVE",
"79 -110 CURVE SMOOTH",
"79 -58 OFFCURVE",
"140 0 OFFCURVE",
"224 0 CURVE"
);
},
{
closed = 1;
nodes = (
"106 0 LINE",
"251 0 LINE",
"270 84 LINE",
"125 84 LINE"
);
},
{
closed = 1;
nodes = (
"78 422 LINE",
"263 422 LINE",
"283 506 LINE",
"98 506 LINE"
);
},
{
closed = 1;
nodes = (
"170 0 LINE",
"287 506 LINE",
"188 506 LINE",
"71 0 LINE"
);
},
{
closed = 1;
nodes = (
"191 649 OFFCURVE",
"220 618 OFFCURVE",
"256 618 CURVE SMOOTH",
"291 618 OFFCURVE",
"320 649 OFFCURVE",
"320 684 CURVE SMOOTH",
"320 719 OFFCURVE",
"291 748 OFFCURVE",
"256 748 CURVE SMOOTH",
"220 748 OFFCURVE",
"191 719 OFFCURVE",
"191 684 CURVE SMOOTH"
);
}
);
width = 354;
}
);
leftKerningGroup = i;
rightKerningGroup = i;
unicode = 012F;
},
{
glyphname = j;
layers = (
{
anchors = (
{
name = top;
position = "{3, 506}";
}
);
layerId = "EEC59083-BA83-4EFB-8B50-D01213A5FD15";
paths = (
{
closed = 1;
nodes = (
"71 422 LINE",
"170 422 LINE",
"66 -28 LINE",
"49 -103 OFFCURVE",
"13 -151 OFFCURVE",
"-45 -159 CURVE",
"-53 -230 LINE",
"56 -227 OFFCURVE",
"136 -156 OFFCURVE",
"163 -37 CURVE SMOOTH",
"289 506 LINE",
"91 506 LINE"
);
},
{
closed = 1;
nodes = (
"194 649 OFFCURVE",
"223 618 OFFCURVE",
"259 618 CURVE SMOOTH",
"294 618 OFFCURVE",
"323 649 OFFCURVE",
"323 684 CURVE SMOOTH",
"323 719 OFFCURVE",
"294 748 OFFCURVE",
"259 748 CURVE SMOOTH",
"223 748 OFFCURVE",
"194 719 OFFCURVE",
"194 684 CURVE SMOOTH"
);
}
);
width = 326;
},
{
anchors = (
{
name = top;
position = "{50, 506}";
}
);
layerId = "8956C7A5-95B5-4256-B2D2-E489185594C4";
paths = (
{
closed = 1;
nodes = (
"55 372 LINE",
"169 372 LINE",
"79 -16 LINE",
"67 -71 OFFCURVE",
"27 -100 OFFCURVE",
"-16 -100 CURVE",
"-35 -229 LINE",
"114 -229 OFFCURVE",
"209 -165 OFFCURVE",
"247 -1 CURVE SMOOTH",
"364 506 LINE",
"86 506 LINE"
);
},
{
closed = 1;
nodes = (
"202 621 OFFCURVE",
"240 582 OFFCURVE",
"289 582 CURVE SMOOTH",
"336 582 OFFCURVE",
"375 621 OFFCURVE",
"375 669 CURVE SMOOTH",
"375 717 OFFCURVE",
"336 756 OFFCURVE",
"289 756 CURVE SMOOTH",
"240 756 OFFCURVE",
"202 717 OFFCURVE",
"202 669 CURVE SMOOTH"
);
}
);
width = 345;
}
);
leftKerningGroup = jdotless;
rightKerningGroup = jdotless;
unicode = 006A;
},
{
glyphname = k;
layers = (
{
anchors = (
{
name = bottom;
position = "{269, 0}";
},
{
name = top;
position = "{272, 760}";
}
);
layerId = "EEC59083-BA83-4EFB-8B50-D01213A5FD15";
paths = (
{
closed = 1;
nodes = (
"117 676 LINE",
"207 676 LINE",
"52 0 LINE",
"151 0 LINE",
"204 229 LINE",
"263 229 LINE",
"415 0 LINE",
"522 0 LINE",
"541 83 LINE",
"480 83 LINE",
"358 261 LINE",
"547 422 LINE",
"600 422 LINE",
"620 506 LINE",
"456 506 LINE",
"438 430 LINE",
"272 289 LINE",
"217 289 LINE",
"326 760 LINE",
"137 760 LINE"
);
}
);
width = 613;
},
{
anchors = (
{
name = bottom;
position = "{292, 0}";
},
{
name = top;
position = "{316, 760}";
}
);
layerId = "8956C7A5-95B5-4256-B2D2-E489185594C4";
paths = (
{
closed = 1;
nodes = (
"97 626 LINE",
"194 626 LINE",
"50 0 LINE",
"216 0 LINE",
"261 198 LINE",
"324 198 LINE",
"420 0 LINE",
"567 0 LINE",
"598 134 LINE",
"522 134 LINE",
"456 263 LINE",
"571 372 LINE",
"639 372 LINE",
"670 506 LINE",
"447 506 LINE",
"426 416 LINE",
"348 333 LINE",
"292 333 LINE",
"391 760 LINE",
"128 760 LINE"
);
}
);
width = 640;
}
);
leftKerningGroup = I;
rightKerningGroup = k;
unicode = 006B;
},
{
color = 6;
glyphname = kcommaaccent;
layers = (
{
background = {
paths = (
{
closed = 1;
nodes = (
"128 760 LINE",
"391 760 LINE",
"292 333 LINE",
"348 333 LINE",
"426 416 LINE",
"447 506 LINE",
"670 506 LINE",
"639 372 LINE",
"571 372 LINE",
"456 263 LINE",
"522 134 LINE",
"598 134 LINE",
"567 0 LINE",
"420 0 LINE",
"324 198 LINE",
"261 198 LINE",
"216 0 LINE",
"50 0 LINE",
"194 626 LINE",
"97 626 LINE"
);
},
{
closed = 1;
nodes = (
"277 -14 LINE",
"418 -65 LINE",
"322 -230 LINE",
"222 -195 LINE"
);
},
{
closed = 1;
nodes = (
"0 760 LINE",
"640 760 LINE",
"640 0 LINE",
"0 0 LINE"
);
}
);
};
components = (
{
name = k;
},
{
name = commaaccentcomb;
transform = "{1, 0, 0, 1, 246, 0}";
}
);
layerId = "8956C7A5-95B5-4256-B2D2-E489185594C4";
width = 640;
},
{
background = {
paths = (
{
closed = 1;
nodes = (
"128 760 LINE",
"391 760 LINE",
"292 333 LINE",
"348 333 LINE",
"426 416 LINE",
"447 506 LINE",
"670 506 LINE",
"639 372 LINE",
"571 372 LINE",
"456 263 LINE",
"522 134 LINE",
"598 134 LINE",
"567 0 LINE",
"420 0 LINE",
"324 198 LINE",
"261 198 LINE",
"216 0 LINE",
"50 0 LINE",
"194 626 LINE",
"97 626 LINE"
);
},
{
closed = 1;
nodes = (
"277 -14 LINE",
"418 -65 LINE",
"322 -230 LINE",
"222 -195 LINE"
);
},
{
closed = 1;
nodes = (
"0 760 LINE",
"640 760 LINE",
"640 0 LINE",
"0 0 LINE"
);
}
);
};
components = (
{
name = k;
},
{
name = commaaccentcomb;
transform = "{1, 0, 0, 1, 224, 0}";
}
);
layerId = "EEC59083-BA83-4EFB-8B50-D01213A5FD15";
width = 613;
}
);
leftKerningGroup = h;
rightKerningGroup = k;
unicode = 0137;
},
